{
.appVersion = "3134";
.storedFileType = "public.opentype-font";
.formatVersion = 3;
customParameters = (
{
name = vendorID;
value = DAMA;
},
{
name = panose;
value = (
0,
0,
0,
0,
0,
0,
0,
0,
0,
0
);
},
{
name = unicodeRanges;
value = (
0,
1,
2,
3,
4,
5,
6,
7,
9,
29,
30,
31,
32,
33,
35,
36,
38,
45,
60,
62
);
},
{
name = codePageRanges;
value = (
"1252",
"1250",
"1251",
"1253",
"1254",
"1257",
"869",
"855",
"852",
"737",
"850"
);
},
{
name = fsType;
value = (
);
},
{
name = glyphOrder;
value = (
.notdef,
.null,
nonmarkingreturn,
space,
exclam,
quotedbl,
numbersign,
dollar,
percent,
ampersand,
quotesingle,
parenleft,
parenright,
asterisk,
plus,
comma,
hyphen,
period,
slash,
zero,
one,
two,
three,
four,
five,
six,
seven,
eight,
nine,
colon,
semicolon,
less,
equal,
greater,
question,
at,
A,
B,
C,
D,
E,
F,
G,
H,
I,
J,
K,
L,
M,
N,
O,
P,
Q,
R,
S,
T,
U,
V,
W,
X,
Y,
Z,
bracketleft,
backslash,
bracketright,
asciicircum,
underscore,
grave,
a,
b,
c,
d,
e,
f,
g,
h,
i,
j,
k,
l,
m,
n,
o,
p,
q,
r,
s,
t,
u,
v,
w,
x,
y,
z,
braceleft,
bar,
braceright,
asciitilde,
Euro,
quotesinglbase,
florin,
quotedblbase,
ellipsis,
dagger,
daggerdbl,
circumflex,
perthousand,
Scaron,
guilsinglleft,
OE,
quoteleft,
quoteright,
quotedblleft,
quotedblright,
bullet,
endash,
emdash,
tilde,
trademark,
scaron,
guilsinglright,
oe,
Ydieresis,
uni00A0,
exclamdown,
cent,
sterling,
currency,
yen,
brokenbar,
section,
dieresis,
copyright,
ordfeminine,
guillemotleft,
logicalnot,
uni00AD,
registered,
macron,
degree,
plusminus,
uni00B2,
uni00B3,
acute,
uni03BC,
paragraph,
periodcentered,
cedilla,
uni00B9,
ordmasculine,
guillemotright,
onequarter,
onehalf,
threequarters,
questiondown,
Agrave,
Aacute,
Acircumflex,
Atilde,
Adieresis,
Aring,
AE,
Ccedilla,
Egrave,
Eacute,
Ecircumflex,
Edieresis,
Igrave,
Iacute,
Icircumflex,
Idieresis,
Eth,
Ntilde,
Ograve,
Oacute,
Ocircumflex,
Otilde,
Odieresis,
multiply,
Oslash,
Ugrave,
Uacute,
Ucircumflex,
Udieresis,
Yacute,
Thorn,
germandbls,
agrave,
aacute,
acircumflex,
atilde,

glyphs = (
{
glyphname = .notdef;
layers = (
{
layerId = m01;
shapes = (
{
closed = 1;
nodes = (
(50,0,l),
(450,0,l),
(450,750,l),
(50,750,l)
);
},
{
closed = 1;
nodes = (
(100,50,l),
(100,700,l),
(400,700,l),
(400,50,l)
);
}
);
width = 500;
}
);
note = ".notdef";
},
{
glyphname = exclam;
kernLeft = exclam;
layers = (
{
layerId = m01;
shapes = (
{
closed = 1;
nodes = (
(163,215,l),
(175,305,o),
(184,391,o),
(184,503,cs),
(184,693,l),
(93,693,l),
(93,503,ls),
(93,391,o),
(102,305,o),
(114,215,c)
);
},
{
closed = 1;
nodes = (
(176,-12,o),
(202,15,o),
(202,51,cs),
(202,88,o),
(176,115,o),
(138,115,cs),
(101,115,o),
(75,88,o),
(75,51,cs),
(75,15,o),
(101,-12,o),
(138,-12,cs)
);
}
);
width = 277;
}
);
note = exclam;
unicode = 33;
},
{
glyphname = quotedbl;
kernLeft = quotedbl;
kernRight = quotedbl;
layers = (
{
layerId = m01;
shapes = (
{
closed = 1;
nodes = (
(145,506,l),
(157,576,o),
(165,648,o),
(165,714,cs),
(165,760,l),
(76,760,l),
(76,715,ls),
(76,647,o),
(84,576,o),
(96,506,c)
);
},
{
closed = 1;
nodes = (
(312,506,l),
(324,576,o),
(333,648,o),
(333,714,cs),
(333,760,l),
(243,760,l),
(243,715,ls),
(243,647,o),
(252,576,o),
(264,506,c)
);
}
);
width = 409;
}
);
note = quotedbl;
unicode = 34;
},
{
glyphname = numbersign;
layers = (
{
layerId = m01;
shapes = (
{
closed = 1;
nodes = (
(103,0,l),
(180,0,l),
(216,185,l),
(385,185,l),
(349,0,l),
(426,0,l),
(462,185,l),
(615,185,l),
(615,253,l),
(475,253,l),
(511,440,l),
(615,440,l),
(615,508,l),
(524,508,l),
(559,693,l),
(482,693,l),
(447,508,l),
(278,508,l),
(313,693,l),
(236,693,l),
(201,508,l),
(49,508,l),
(49,440,l),
(188,440,l),
(152,253,l),
(49,253,l),
(49,185,l),
(139,185,l)
);
},
{
closed = 1;
nodes = (
(229,253,l),
(265,440,l),
(434,440,l),
(398,253,l)
);
}
);
width = 664;
}
);
note = numbersign;
unicode = 35;
},
{
glyphname = dollar;
layers = (
{
layerId = m01;
shapes = (
{
closed = 1;
nodes = (
(247,-109,l),
(322,-109,l),
(322,21,l),
(434,32,o),
(495,97,o),
(495,188,cs),
(495,303,o),
(408,344,o),
(306,381,cs),
(220,413,o),
(169,432,o),
(169,498,cs),
(169,558,o),
(211,591,o),
(299,591,cs),
(371,591,o),
(417,575,o),
(445,563,c),
(465,633,l),
(434,646,o),
(385,660,o),
(322,663,c),
(322,776,l),
(247,776,l),
(247,660,l),
(134,642,o),
(81,584,o),
(81,488,cs),
(81,385,o),
(167,348,o),
(242,320,cs),
(341,284,o),
(406,261,o),
(406,182,cs),
(406,129,o),
(370,89,o),
(271,89,cs),
(179,89,o),
(129,111,o),
(90,130,c),
(66,61,l),
(95,44,o),
(156,20,o),
(247,18,c)
);
}
);
width = 565;
}
);
note = dollar;
unicode = 36;
},
{
glyphname = percent;
kernLeft = percent;
kernRight = percent;
layers = (
{
layerId = m01;
shapes = (
{
closed = 1;
nodes = (
(296,343,o),
(366,407,o),
(366,526,cs),
(366,645,o),
(296,708,o),
(210,708,cs),
(123,708,o),
(53,645,o),
(53,526,cs),
(53,407,o),
(123,343,o),
(210,343,cs)
);
},
{
closed = 1;
nodes = (
(187,0,l),
(270,0,l),
(664,693,l),
(581,693,l)
);
},
{
closed = 1;
nodes = (
(155,406,o),
(125,452,o),
(125,526,cs),
(125,599,o),
(155,645,o),
(210,645,cs),
(264,645,o),
(294,599,o),
(294,526,cs),
(294,452,o),
(264,406,o),
(210,406,cs)
);
},
{
closed = 1;
nodes = (
(728,-15,o),
(798,48,o),
(798,167,cs),
(798,286,o),
(728,350,o),
(641,350,cs),
(555,350,o),
(485,286,o),
(485,167,cs),
(485,48,o),
(555,-15,o),
(641,-15,cs)
);
},
{
closed = 1;
nodes = (
(586,48,o),
(557,94,o),
(557,167,cs),
(557,241,o),
(586,287,o),
(641,287,cs),
(696,287,o),
(726,241,o),
(726,167,cs),
(726,94,o),
(696,48,o),
(641,48,cs)
);
}
);
width = 851;
}
);
note = percent;
unicode = 37;
},
{
glyphname = ampersand;
layers = (
{
layerId = m01;
shapes = (
{
closed = 1;
nodes = (
(361,-9,o),
(435,30,o),
(490,85,c),
(517,57,o),
(543,28,o),
(560,0,c),
(651,0,l),
(627,45,o),
(585,94,o),
(538,143,c),
(575,201,o),
(598,271,o),
(604,333,c),
(532,342,l),
(527,292,o),
(510,237,o),
(486,195,c),
(317,367,l),
(392,407,o),
(461,464,o),
(461,559,cs),
(461,643,o),
(401,708,o),
(295,708,cs),
(192,708,o),
(120,646,o),
(120,538,cs),
(120,485,o),
(143,435,o),
(195,385,c),
(116,346,o),
(47,285,o),
(47,180,cs),
(47,95,o),
(101,-9,o),
(270,-9,cs)
);
},
{
closed = 1;
nodes = (
(219,460,o),
(201,501,o),
(201,545,cs),
(201,603,o),
(235,641,o),
(296,641,cs),
(350,641,o),
(384,603,o),
(384,556,cs),
(384,483,o),
(336,445,o),
(271,412,c)
);
},
{
closed = 1;
nodes = (
(170,62,o),
(132,127,o),
(132,184,cs),
(132,274,o),
(193,313,o),
(243,337,c),
(441,134,l),
(400,90,o),
(343,62,o),
(271,62,cs)
);
}
);
width = 661;
}
);
note = ampersand;
unicode = 38;
},
{
glyphname = quotesingle;
kernLeft = quotedbl;
kernRight = quotedbl;
layers = (
{
layerId = m01;
shapes = (
{
closed = 1;
nodes = (
(145,506,l),
(157,576,o),
(165,648,o),
(165,714,cs),
(165,760,l),
(76,760,l),
(76,715,ls),
(76,647,o),
(84,576,o),
(96,506,c)
);
}
);
width = 242;
}
);
note = quotesingle;
unicode = 39;
},
{
glyphname = parenleft;
kernLeft = parenleft;
kernRight = parenleft;
layers = (
{
layerId = m01;
shapes = (
{
closed = 1;
nodes = (
(313,-145,l),
(213,-19,o),
(165,125,o),
(165,299,cs),
(165,473,o),
(213,617,o),
(313,743,c),
(252,783,l),
(149,656,o),
(80,489,o),
(80,299,cs),
(80,109,o),
(149,-58,o),
(252,-185,c)
);
}
);
width = 321;
}
);
note = parenleft;
unicode = 40;
},
{
glyphname = parenright;
kernLeft = parenright;
kernRight = parenright;
layers = (
{
layerId = m01;
shapes = (
{
closed = 1;
nodes = (
(68,-185,l),
(172,-58,o),
(241,109,o),
(241,299,cs),
(241,489,o),
(172,656,o),
(68,783,c),
(8,743,l),
(107,617,o),
(156,473,o),
(156,299,cs),
(156,125,o),
(107,-19,o),
(8,-145,c)
);
}
);
width = 321;
}
);
note = parenright;
unicode = 41;
},
{
glyphname = asterisk;
kernLeft = asterisk;
kernRight = asterisk;
layers = (
{
layerId = m01;
shapes = (
{
closed = 1;
nodes = (
(157,311,l),
(195,364,o),
(213,405,o),
(239,463,c),
(266,406,o),
(284,364,o),
(322,311,c),
(389,360,l),
(349,414,o),
(319,441,o),
(270,485,c),
(335,493,o),
(375,496,o),
(440,517,c),
(414,595,l),
(353,575,o),
(313,552,o),
(258,522,c),
(276,608,o),
(279,625,o),
(281,693,c),
(198,693,l),
(200,625,o),
(202,609,o),
(221,522,c),
(165,553,o),
(128,574,o),
(65,595,c),
(39,517,l),
(104,496,o),
(144,493,o),
(209,485,c),
(161,442,o),
(130,414,o),
(90,360,c)
);
}
);
width = 479;
}
);
note = asterisk;
unicode = 42;
},
{
glyphname = plus;
layers = (
{
layerId = m01;
shapes = (
{
closed = 1;
nodes = (
(244,45,l),
(320,45,l),
(320,255,l),
(511,255,l),
(511,327,l),
(320,327,l),
(320,537,l),
(244,537,l),
(244,327,l),
(54,327,l),
(54,255,l),
(244,255,l)
);
}
);
width = 565;
}
);
note = plus;
unicode = 43;
},
{
glyphname = comma;
kernLeft = comma;
kernRight = comma;
layers = (
{
layerId = m01;
shapes = (
{
closed = 1;
nodes = (
(106,-160,l),
(149,-90,o),
(175,-7,o),
(175,75,cs),
(175,82,o),
(175,92,o),
(173,108,c),
(81,108,l),
(82,95,o),
(83,79,o),
(83,63,cs),
(83,-2,o),
(72,-72,o),
(42,-136,c)
);
}
);
width = 246;
}
);
note = comma;
unicode = 44;
},
{
glyphname = hyphen;
kernLeft = hyphen;
kernRight = hyphen;
layers = (
{
layerId = m01;
shapes = (
{
closed = 1;
nodes = (
(27,252,l),
(268,252,l),
(268,331,l),
(27,331,l)
);
}
);
width = 295;
}
);
note = hyphen;
unicode = 45;
},
{
glyphname = period;
kernLeft = comma;
kernRight = comma;
layers = (
{
layerId = m01;
shapes = (
{
closed = 1;
nodes = (
(160,-12,o),
(187,15,o),
(187,51,cs),
(187,88,o),
(160,115,o),
(123,115,cs),
(86,115,o),
(59,88,o),
(59,51,cs),
(59,15,o),
(86,-12,o),
(123,-12,cs)
);
}
);
width = 246;
}
);
note = period;
unicode = 46;
},
{
glyphname = slash;
kernLeft = slash;
kernRight = slash;
layers = (
{
layerId = m01;
shapes = (
{
closed = 1;
nodes = (
(-23,-185,l),
(63,-185,l),
(400,783,l),
(316,783,l)
);
}
);
width = 377;
}
);
note = slash;
unicode = 47;
},
{
glyphname = zero;
layers = (
{
layerId = m01;
shapes = (
{
closed = 1;
nodes = (
(426,-15,o),
(512,114,o),
(512,346,cs),
(512,579,o),
(426,708,o),
(282,708,cs),
(138,708,o),
(53,579,o),
(53,346,cs),
(53,114,o),
(139,-15,o),
(282,-15,cs)
);
},
{
closed = 1;
nodes = (
(176,60,o),
(143,192,o),
(143,346,cs),
(143,501,o),
(176,633,o),
(282,633,cs),
(388,633,o),
(422,501,o),
(422,346,cs),
(422,192,o),
(388,60,o),
(282,60,cs)
);
}
);
width = 565;
}
);
note = zero;
unicode = 48;
},
{
glyphname = one;
layers = (
{
layerId = m01;
shapes = (
{
closed = 1;
nodes = (
(280,0,l),
(365,0,l),
(365,693,l),
(305,693,l),
(245,622,o),
(178,579,o),
(98,551,c),
(123,486,l),
(183,505,o),
(249,542,o),
(280,572,c)
);
}
);
width = 565;
}
);
note = one;
unicode = 49;
},
{
glyphname = two;
layers = (
{
layerId = m01;
shapes = (
{
closed = 1;
nodes = (
(489,0,l),
(489,73,l),
(168,73,l),
(170,129,o),
(237,197,o),
(299,257,cs),
(382,336,o),
(465,415,o),
(465,519,cs),
(465,637,o),
(396,708,o),
(255,708,cs),
(158,708,o),
(88,654,o),
(61,626,c),
(104,567,l),
(122,584,o),
(174,633,o),
(255,633,cs),
(324,633,o),
(376,599,o),
(376,514,cs),
(376,435,o),
(320,383,o),
(254,321,cs),
(173,244,o),
(74,157,o),
(74,30,cs),
(74,17,o),
(74,6,o),
(75,0,c)
);
}
);
width = 565;
}
);
note = two;
unicode = 50;
},
{
glyphname = three;
layers = (
{
layerId = m01;
shapes = (
{
closed = 1;
nodes = (
(406,-15,o),
(487,74,o),
(487,193,cs),
(487,299,o),
(420,355,o),
(347,377,c),
(410,400,o),
(455,453,o),
(455,528,cs),
(455,632,o),
(390,708,o),
(246,708,cs),
(165,708,o),
(104,675,o),
(73,654,c),
(107,590,l),
(136,608,o),
(175,633,o),
(243,633,cs),
(309,633,o),
(368,603,o),
(368,523,cs),
(368,427,o),
(285,403,o),
(217,403,cs),
(184,403,l),
(184,334,l),
(205,334,ls),
(310,334,o),
(399,302,o),
(399,195,cs),
(399,113,o),
(350,60,o),
(232,60,cs),
(155,60,o),
(98,84,o),
(77,96,c),
(58,22,l),
(79,11,o),
(148,-15,o),
(232,-15,cs)
);
}
);
width = 565;
}
);
note = three;
unicode = 51;
},
{
glyphname = four;
layers = (
{
layerId = m01;
shapes = (
{
closed = 1;
nodes = (
(354,0,l),
(437,0,l),
(437,180,l),
(520,180,l),
(520,249,l),
(437,249,l),
(437,693,l),
(352,693,l),
(223,564,o),
(93,361,o),
(43,236,c),
(43,180,l),
(354,180,l)
);
},
{
closed = 1;
nodes = (
(127,249,l),
(176,363,o),
(269,505,o),
(354,595,c),
(354,249,l)
);
}
);
width = 565;
}
);
note = four;
unicode = 52;
},
{
glyphname = five;
layers = (
{
layerId = m01;
shapes = (
{
closed = 1;
nodes = (
(409,-15,o),
(489,76,o),
(489,197,cs),
(489,332,o),
(398,416,o),
(196,424,c),
(201,466,o),
(209,571,o),
(211,620,c),
(465,620,l),
(465,693,l),
(138,693,l),
(135,585,o),
(129,487,o),
(113,354,c),
(341,354,o),
(401,295,o),
(401,195,cs),
(401,120,o),
(361,60,o),
(237,60,cs),
(164,60,o),
(104,84,o),
(83,95,c),
(64,22,l),
(85,11,o),
(156,-15,o),
(238,-15,cs)
);
}
);
width = 565;
}
);
note = five;
unicode = 53;
},
{
glyphname = six;
layers = (
{
layerId = m01;
shapes = (
{
closed = 1;
nodes = (
(444,-15,o),
(511,105,o),
(511,209,cs),
(511,322,o),
(453,422,o),
(298,422,cs),
(248,422,o),
(200,408,o),
(166,391,c),
(196,560,o),
(312,618,o),
(468,626,c),
(463,696,l),
(211,688,o),
(68,545,o),
(68,277,cs),
(68,94,o),
(147,-15,o),
(297,-15,cs)
);
},
{
closed = 1;
nodes = (
(186,58,o),
(156,158,o),
(156,277,cs),
(156,292,o),
(156,303,o),
(158,321,c),
(193,338,o),
(236,351,o),
(289,351,cs),
(378,351,o),
(423,304,o),
(423,207,cs),
(423,131,o),
(388,58,o),
(296,58,cs)
);
}
);
width = 565;
}
);
note = six;
unicode = 54;
},
{
glyphname = seven;
layers = (
{
layerId = m01;
shapes = (
{
closed = 1;
nodes = (
(255,0,l),
(271,249,o),
(409,519,o),
(499,624,c),
(499,693,l),
(63,693,l),
(63,618,l),
(405,618,l),
(303,498,o),
(183,216,o),
(167,0,c)
);
}
);
width = 565;
}
);
note = seven;
unicode = 55;
},
{
glyphname = eight;
layers = (
{
layerId = m01;
shapes = (
{
closed = 1;
nodes = (
(421,-15,o),
(505,67,o),
(505,183,cs),
(505,251,o),
(473,311,o),
(383,353,c),
(435,385,o),
(489,444,o),
(489,527,cs),
(489,616,o),
(427,708,o),
(282,708,cs),
(160,708,o),
(75,630,o),
(75,516,cs),
(75,451,o),
(99,399,o),
(175,357,c),
(114,321,o),
(60,266,o),
(60,176,cs),
(60,74,o),
(139,-15,o),
(282,-15,cs)
);
},
{
closed = 1;
nodes = (
(188,413,o),
(161,456,o),
(161,523,cs),
(161,583,o),
(200,638,o),
(282,638,cs),
(370,638,o),
(404,580,o),
(404,526,cs),
(404,456,o),
(368,411,o),
(311,378,c)
);
},
{
closed = 1;
nodes = (
(190,56,o),
(146,112,o),
(146,177,cs),
(146,247,o),
(183,297,o),
(244,328,c),
(331,301,o),
(419,280,o),
(419,177,cs),
(419,111,o),
(375,56,o),
(282,56,cs)
);
}
);
width = 565;
}
);
note = eight;
unicode = 56;
},
{
glyphname = nine;
layers = (
{
layerId = m01;
shapes = (
{
closed = 1;
nodes = (
(95,-2,l),
(361,-1,o),
(498,141,o),
(498,414,cs),
(498,600,o),
(419,708,o),
(267,708,cs),
(120,708,o),
(55,588,o),
(55,485,cs),
(55,371,o),
(114,274,o),
(268,274,cs),
(318,274,o),
(367,288,o),
(401,305,c),
(375,135,o),
(264,69,o),
(92,68,c)
);
},
{
closed = 1;
nodes = (
(188,344,o),
(143,391,o),
(143,488,cs),
(143,563,o),
(178,636,o),
(269,636,cs),
(380,636,o),
(410,536,o),
(410,418,cs),
(410,402,o),
(409,390,o),
(408,375,c),
(373,358,o),
(331,344,o),
(277,344,cs)
);
}
);
width = 565;
}
);
note = nine;
unicode = 57;
},
{
glyphname = colon;
kernLeft = colon;
kernRight = colon;
layers = (
{
layerId = m01;
shapes = (
{
closed = 1;
nodes = (
(160,392,o),
(187,419,o),
(187,456,cs),
(187,492,o),
(160,519,o),
(123,519,cs),
(86,519,o),
(59,492,o),
(59,456,cs),
(59,419,o),
(86,392,o),
(123,392,cs)
);
},
{
closed = 1;
nodes = (
(160,-12,o),
(187,15,o),
(187,51,cs),
(187,88,o),
(160,115,o),
(123,115,cs),
(86,115,o),
(59,88,o),
(59,51,cs),
(59,15,o),
(86,-12,o),
(123,-12,cs)
);
}
);
width = 246;
}
);
note = colon;
unicode = 58;
},
{
glyphname = semicolon;
kernLeft = colon;
kernRight = colon;
layers = (
{
layerId = m01;
shapes = (
{
closed = 1;
nodes = (
(160,392,o),
(187,419,o),
(187,456,cs),
(187,492,o),
(160,519,o),
(123,519,cs),
(86,519,o),
(59,492,o),
(59,456,cs),
(59,419,o),
(86,392,o),
(123,392,cs)
);
},
{
closed = 1;
nodes = (
(106,-160,l),
(149,-90,o),
(175,-7,o),
(175,75,cs),
(175,82,o),
(175,92,o),
(173,108,c),
(81,108,l),
(82,95,o),
(83,79,o),
(83,63,cs),
(83,-2,o),
(72,-72,o),
(42,-136,c)
);
}
);
width = 246;
}
);
note = semicolon;
unicode = 59;
},
{
glyphname = less;
layers = (
{
layerId = m01;
shapes = (
{
closed = 1;
nodes = (
(486,71,l),
(511,141,l),
(148,291,l),
(511,440,l),
(486,510,l),
(54,327,l),
(54,254,l)
);
}
);
width = 565;
}
);
note = less;
unicode = 60;
},
{
glyphname = equal;
layers = (
{
layerId = m01;
shapes = (
{
closed = 1;
nodes = (
(54,361,l),
(511,361,l),
(511,433,l),
(54,433,l)
);
},
{
closed = 1;
nodes = (
(54,149,l),
(511,149,l),
(511,221,l),
(54,221,l)
);
}
);
width = 565;
}
);
note = equal;
unicode = 61;
},
{
glyphname = greater;
layers = (
{
layerId = m01;
shapes = (
{
closed = 1;
nodes = (
(78,71,l),
(510,254,l),
(510,327,l),
(78,510,l),
(54,440,l),
(416,291,l),
(54,141,l)
);
}
);
width = 565;
}
);
note = greater;
unicode = 62;
},
{
glyphname = question;
kernLeft = question;
layers = (
{
layerId = m01;
shapes = (
{
closed = 1;
nodes = (
(196,215,l),
(195,222,o),
(195,229,o),
(195,242,cs),
(195,369,o),
(370,411,o),
(370,552,cs),
(370,623,o),
(327,708,o),
(179,708,cs),
(114,708,o),
(54,690,o),
(20,670,c),
(44,603,l),
(85,624,o),
(125,634,o),
(170,634,cs),
(231,634,o),
(280,614,o),
(280,548,cs),
(280,435,o),
(122,395,o),
(122,260,cs),
(122,245,o),
(123,228,o),
(126,215,c)
);
},
{
closed = 1;
nodes = (
(203,-12,o),
(229,15,o),
(229,51,cs),
(229,88,o),
(203,115,o),
(166,115,cs),
(128,115,o),
(102,88,o),
(102,51,cs),
(102,15,o),
(128,-12,o),
(166,-12,cs)
);
}
);
width = 397;
}
);
note = question;
unicode = 63;
},
{
glyphname = at;
kernLeft = at;
kernRight = at;
layers = (
{
layerId = m01;
shapes = (
{
closed = 1;
nodes = (
(563,-153,o),
(627,-142,o),
(651,-134,c),
(642,-70,l),
(622,-76,o),
(573,-86,o),
(499,-86,cs),
(294,-86,o),
(144,37,o),
(144,279,cs),
(144,508,o),
(283,642,o),
(483,642,cs),
(684,642,o),
(804,499,o),
(804,327,cs),
(804,227,o),
(778,117,o),
(699,117,cs),
(671,117,o),
(653,135,o),
(653,182,cs),
(653,480,l),
(621,493,o),
(565,507,o),
(498,507,cs),
(355,507,o),
(274,406,o),
(274,278,cs),
(274,125,o),
(364,51,o),
(489,51,cs),
(537,51,o),
(579,68,o),
(604,85,c),
(619,67,o),
(649,51,o),
(690,51,cs),
(799,51,o),
(881,145,o),
(881,324,cs),
(881,562,o),
(703,709,o),
(483,709,cs),
(259,709,o),
(67,567,o),
(67,279,cs),
(67,-20,o),
(260,-153,o),
(499,-153,cs)
);
},
{
closed = 1;
nodes = (
(410,117,o),
(356,171,o),
(356,279,cs),
(356,373,o),
(406,441,o),
(505,441,cs),
(541,441,o),
(561,436,o),
(573,433,c),
(573,191,ls),
(573,176,o),
(575,151,o),
(579,139,c),
(553,124,o),
(531,117,o),
(490,117,cs)
);
}
);
width = 948;
}
);
note = at;
unicode = 64;
},
{
glyphname = A;
kernLeft = A;
kernRight = A;
layers = (
{
layerId = m01;
shapes = (
{
closed = 1;
nodes = (
(102,0,l),
(124,63,o),
(146,123,o),
(167,181,c),
(488,181,l),
(508,123,o),
(531,63,o),
(553,0,c),
(649,0,l),
(542,291,o),
(466,492,o),
(370,693,c),
(289,693,l),
(192,492,o),
(116,291,o),
(10,0,c)
);
},
{
closed = 1;
nodes = (
(191,254,l),
(240,386,o),
(285,500,o),
(327,597,c),
(370,500,o),
(415,386,o),
(464,254,c)
);
}
);
width = 659;
}
);
note = A;
unicode = 65;
},
{
glyphname = B;
kernLeft = B;
kernRight = B;
layers = (
{
layerId = m01;
shapes = (
{
closed = 1;
nodes = (
(484,-7,o),
(587,64,o),
(587,198,cs),
(587,299,o),
(535,348,o),
(454,370,c),
(514,393,o),
(553,446,o),
(553,516,cs),
(553,655,o),
(425,699,o),
(269,699,cs),
(216,699,o),
(139,693,o),
(88,681,c),
(88,13,l),
(136,0,o),
(216,-7,o),
(269,-7,cs)
);
},
{
closed = 1;
nodes = (
(175,397,l),
(175,620,l),
(197,624,o),
(231,626,o),
(275,626,cs),
(388,626,o),
(464,596,o),
(464,513,cs),
(464,422,o),
(393,397,o),
(294,397,cs)
);
},
{
closed = 1;
nodes = (
(236,67,o),
(196,71,o),
(175,74,c),
(175,325,l),
(308,325,ls),
(424,325,o),
(495,297,o),
(495,200,cs),
(495,93,o),
(392,67,o),
(275,67,cs)
);
}
);
width = 640;
}
);
note = B;
unicode = 66;
},
{
glyphname = C;
kernLeft = C;
kernRight = C;
layers = (
{
layerId = m01;
shapes = (
{
closed = 1;
nodes = (
(492,-15,o),
(567,13,o),
(592,29,c),
(567,102,l),
(536,85,o),
(479,64,o),
(390,64,cs),
(233,64,o),
(152,177,o),
(152,347,cs),
(152,521,o),
(242,630,o),
(397,630,cs),
(471,630,o),
(523,607,o),
(558,586,c),
(586,661,l),
(562,675,o),
(494,708,o),
(387,708,cs),
(211,708,o),
(59,579,o),
(59,347,cs),
(59,114,o),
(193,-15,o),
(382,-15,cs)
);
}
);
width = 618;
}
);
note = C;
unicode = 67;
},
{
glyphname = D;
kernLeft = D;
kernRight = D;
layers = (
{
layerId = m01;
shapes = (
{
closed = 1;
nodes = (
(495,-7,o),
(651,110,o),
(651,347,cs),
(651,586,o),
(494,699,o),
(267,699,cs),
(211,699,o),
(140,694,o),
(88,681,c),
(88,11,l),
(140,-1,o),
(210,-7,o),
(266,-7,cs)
);
},
{
closed = 1;
nodes = (
(212,70,o),
(186,74,o),
(176,75,c),
(176,617,l),
(187,619,o),
(215,623,o),
(275,623,cs),
(464,623,o),
(558,520,o),
(558,347,cs),
(558,175,o),
(463,70,o),
(274,70,cs)
);
}
);
width = 710;
}
);
note = D;
unicode = 68;
},
{
glyphname = E;
kernLeft = E;
kernRight = E;
layers = (
{
layerId = m01;
shapes = (
{
closed = 1;
nodes = (
(88,0,l),
(529,0,l),
(529,76,l),
(176,76,l),
(176,326,l),
(468,326,l),
(468,401,l),
(176,401,l),
(176,617,l),
(503,617,l),
(503,693,l),
(88,693,l)
);
}
);
width = 567;
}
);
note = E;
unicode = 69;
},
{
glyphname = F;
kernLeft = F;
kernRight = F;
layers = (
{
layerId = m01;
shapes = (
{
closed = 1;
nodes = (
(88,0,l),
(176,0,l),
(176,321,l),
(462,321,l),
(462,396,l),
(176,396,l),
(176,617,l),
(499,617,l),
(499,693,l),
(88,693,l)
);
}
);
width = 532;
}
);
note = F;
unicode = 70;
},
{
glyphname = G;
kernLeft = G;
kernRight = G;
layers = (
{
layerId = m01;
shapes = (
{
closed = 1;
nodes = (
(493,-14,o),
(573,8,o),
(601,20,c),
(601,337,l),
(513,337,l),
(513,76,l),
(496,71,o),
(454,63,o),
(393,63,cs),
(234,63,o),
(152,174,o),
(152,347,cs),
(152,531,o),
(252,630,o),
(393,630,cs),
(465,630,o),
(531,611,o),
(569,586,c),
(597,659,l),
(569,677,o),
(499,708,o),
(390,708,cs),
(209,708,o),
(59,579,o),
(59,347,cs),
(59,116,o),
(194,-14,o),
(382,-14,cs)
);
}
);
width = 668;
}
);
note = G;
unicode = 71;
},
{
glyphname = H;
kernLeft = D;
layers = (
{
layerId = m01;
shapes = (
{
closed = 1;
nodes = (
(88,0,l),
(176,0,l),
(176,324,l),
(526,324,l),
(526,0,l),
(614,0,l),
(614,693,l),
(526,693,l),
(526,400,l),
(176,400,l),
(176,693,l),
(88,693,l)
);
}
);
width = 702;
}
);
note = H;
unicode = 72;
},
{
glyphname = I;
kernLeft = D;
layers = (
{
layerId = m01;
shapes = (
{
closed = 1;
nodes = (
(88,0,l),
(176,0,l),
(176,693,l),
(88,693,l)
);
}
);
width = 264;
}
);
note = I;
unicode = 73;
},
{
glyphname = J;
kernLeft = J;
kernRight = J;
layers = (
{
layerId = m01;
shapes = (
{
closed = 1;
nodes = (
(363,-15,o),
(414,88,o),
(414,221,cs),
(414,693,l),
(325,693,l),
(325,229,ls),
(325,108,o),
(281,63,o),
(185,63,cs),
(119,63,o),
(73,91,o),
(45,113,c),
(8,43,l),
(35,20,o),
(99,-15,o),
(193,-15,cs)
);
}
);
width = 497;
}
);
note = J;
unicode = 74;
},
{
glyphname = K;
kernLeft = K;
kernRight = K;
layers = (
{
layerId = m01;
shapes = (
{
closed = 1;
nodes = (
(88,0,l),
(176,0,l),
(176,332,l),
(290,264,o),
(425,128,o),
(507,0,c),
(609,0,l),
(542,121,o),
(381,293,o),
(266,369,c),
(365,461,o),
(507,604,o),
(587,693,c),
(481,693,l),
(415,618,o),
(272,474,o),
(176,384,c),
(176,693,l),
(88,693,l)
);
}
);
width = 619;
}
);
note = K;
unicode = 75;
},
{
glyphname = L;
kernLeft = L;
kernRight = L;
layers = (
{
layerId = m01;
shapes = (
{
closed = 1;
nodes = (
(88,0,l),
(498,0,l),
(498,76,l),
(176,76,l),
(176,693,l),
(88,693,l)
);
}
);
width = 516;
}
);
note = L;
unicode = 76;
},
{
glyphname = M;
layers = (
{
layerId = m01;
shapes = (
{
closed = 1;
nodes = (
(157,0,l),
(164,195,o),
(172,387,o),
(188,552,c),
(224,483,o),
(359,194,o),
(399,97,c),
(471,97,l),
(512,194,o),
(647,483,o),
(683,552,c),
(699,387,o),
(707,195,o),
(714,0,c),
(802,0,l),
(791,243,o),
(776,490,o),
(752,693,c),
(675,693,l),
(603,571,o),
(502,347,o),
(438,202,c),
(375,347,o),
(273,571,o),
(201,693,c),
(120,693,l),
(97,490,o),
(82,243,o),
(70,0,c)
);
}
);
width = 872;
}
);
note = M;
unicode = 77;
},
{
glyphname = N;
kernLeft = D;
layers = (
{
layerId = m01;
shapes = (
{
closed = 1;
nodes = (
(88,0,l),
(175,0,l),
(175,554,l),
(292,417,o),
(478,144,o),
(558,0,c),
(632,0,l),
(632,693,l),
(545,693,l),
(545,165,l),
(459,312,o),
(284,555,o),
(158,693,c),
(88,693,l)
);
}
);
width = 720;
}
);
note = N;
unicode = 78;
},
{
glyphname = O;
kernLeft = O;
kernRight = O;
layers = (
{
layerId = m01;
shapes = (
{
closed = 1;
nodes = (
(569,-15,o),
(718,109,o),
(718,347,cs),
(718,585,o),
(567,708,o),
(389,708,cs),
(212,708,o),
(59,585,o),
(59,347,cs),
(59,109,o),
(210,-15,o),
(389,-15,cs)
);
},
{
closed = 1;
nodes = (
(244,64,o),
(152,173,o),
(152,347,cs),
(152,521,o),
(244,630,o),
(389,630,cs),
(534,630,o),
(626,522,o),
(626,347,cs),
(626,173,o),
(534,64,o),
(389,64,cs)
);
}
);
width = 778;
}
);
note = O;
unicode = 79;
},
{
glyphname = P;
kernLeft = P;
kernRight = P;
layers = (
{
layerId = m01;
shapes = (
{
closed = 1;
nodes = (
(88,0,l),
(176,0,l),
(176,260,l),
(260,260,ls),
(453,260,o),
(568,320,o),
(568,480,cs),
(568,623,o),
(468,699,o),
(270,699,cs),
(214,699,o),
(140,694,o),
(88,681,c)
);
},
{
closed = 1;
nodes = (
(176,336,l),
(176,617,l),
(199,620,o),
(231,623,o),
(275,623,cs),
(381,623,o),
(476,593,o),
(476,481,cs),
(476,364,o),
(391,336,o),
(253,336,cs)
);
}
);
width = 604;
}
);
note = P;
unicode = 80;
},
{
glyphname = Q;
kernLeft = Q;
kernRight = Q;
layers = (
{
layerId = m01;
shapes = (
{
closed = 1;
nodes = (
(669,-116,l),
(572,-104,o),
(468,-77,o),
(456,-8,c),
(604,18,o),
(718,139,o),
(718,347,cs),
(718,585,o),
(567,708,o),
(389,708,cs),
(212,708,o),
(59,585,o),
(59,347,cs),
(59,118,o),
(198,-4,o),
(367,-14,c),
(392,-132,o),
(525,-170,o),
(651,-186,c)
);
},
{
closed = 1;
nodes = (
(244,64,o),
(152,173,o),
(152,347,cs),
(152,521,o),
(244,630,o),
(389,630,cs),
(534,630,o),
(626,522,o),
(626,347,cs),
(626,173,o),
(534,64,o),
(389,64,cs)
);
}
);
width = 778;
}
);
note = Q;
unicode = 81;
},
{
glyphname = R;
kernLeft = R;
kernRight = R;
layers = (
{
layerId = m01;
shapes = (
{
closed = 1;
nodes = (
(88,0,l),
(176,0,l),
(176,274,l),
(280,274,ls),
(297,274,o),
(313,275,o),
(329,276,c),
(379,213,o),
(456,103,o),
(510,0,c),
(606,0,l),
(557,105,o),
(467,237,o),
(420,294,c),
(507,322,o),
(564,381,o),
(564,482,cs),
(564,626,o),
(462,699,o),
(268,699,cs),
(213,699,o),
(140,694,o),
(88,681,c)
);
},
{
closed = 1;
nodes = (
(176,347,l),
(176,617,l),
(199,620,o),
(233,623,o),
(277,623,cs),
(381,623,o),
(472,594,o),
(472,483,cs),
(472,365,o),
(382,347,o),
(258,347,cs)
);
}
);
width = 629;
}
);
note = R;
unicode = 82;
},
{
glyphname = S;
kernLeft = S;
kernRight = S;
layers = (
{
layerId = m01;
shapes = (
{
closed = 1;
nodes = (
(402,-15,o),
(495,51,o),
(495,177,cs),
(495,306,o),
(409,346,o),
(292,393,cs),
(206,427,o),
(142,451,o),
(142,528,cs),
(142,601,o),
(198,632,o),
(282,632,cs),
(346,632,o),
(402,615,o),
(440,590,c),
(469,662,l),
(432,685,o),
(362,708,o),
(282,708,cs),
(140,708,o),
(52,641,o),
(52,521,cs),
(52,411,o),
(128,367,o),
(237,324,cs),
(331,288,o),
(403,263,o),
(403,174,cs),
(403,97,o),
(349,61,o),
(246,61,cs),
(154,61,o),
(92,91,o),
(62,108,c),
(35,34,l),
(63,17,o),
(135,-15,o),
(245,-15,cs)
);
}
);
width = 532;
}
);
note = S;
unicode = 83;
},
{
glyphname = T;
kernLeft = T;
kernRight = T;
layers = (
{
layerId = m01;
shapes = (
{
closed = 1;
nodes = (
(237,0,l),
(326,0,l),
(326,617,l),
(545,617,l),
(545,693,l),
(18,693,l),
(18,617,l),
(237,617,l)
);
}
);
width = 563;
}
);
note = T;
unicode = 84;
},
{
glyphname = U;
kernLeft = U;
kernRight = U;
layers = (
{
layerId = m01;
shapes = (
{
closed = 1;
nodes = (
(530,-15,o),
(603,103,o),
(603,258,cs),
(603,693,l),
(515,693,l),
(515,268,ls),
(515,125,o),
(446,63,o),
(343,63,cs),
(240,63,o),
(171,125,o),
(171,268,cs),
(171,693,l),
(83,693,l),
(83,258,ls),
(83,104,o),
(155,-15,o),
(343,-15,cs)
);
}
);
width = 686;
}
);
note = U;
unicode = 85;
},
{
glyphname = V;
kernLeft = V;
kernRight = V;
layers = (
{
layerId = m01;
shapes = (
{
closed = 1;
nodes = (
(365,0,l),
(453,195,o),
(529,383,o),
(637,693,c),
(543,693,l),
(469,474,o),
(401,280,o),
(326,104,c),
(249,282,o),
(183,474,o),
(108,693,c),
(10,693,l),
(118,383,o),
(194,195,o),
(282,0,c)
);
}
);
width = 647;
}
);
note = V;
unicode = 86;
},
{
glyphname = W;
kernLeft = W;
kernRight = W;
layers = (
{
layerId = m01;
shapes = (
{
closed = 1;
nodes = (
(288,0,l),
(347,146,o),
(405,294,o),
(463,478,c),
(521,294,o),
(577,146,o),
(638,0,c),
(727,0,l),
(796,203,o),
(846,420,o),
(895,693,c),
(806,693,l),
(768,475,o),
(722,259,o),
(679,107,c),
(622,248,o),
(559,421,o),
(503,611,c),
(427,611,l),
(371,421,o),
(309,250,o),
(254,107,c),
(208,261,o),
(161,477,o),
(125,693,c),
(32,693,l),
(79,420,o),
(128,203,o),
(200,0,c)
);
}
);
width = 927;
}
);
note = W;
unicode = 87;
},
{
glyphname = X;
kernLeft = X;
kernRight = X;
layers = (
{
layerId = m01;
shapes = (
{
closed = 1;
nodes = (
(119,0,l),
(154,73,o),
(246,212,o),
(309,300,c),
(377,204,o),
(459,79,o),
(498,0,c),
(598,0,l),
(541,112,o),
(456,238,o),
(364,365,c),
(586,693,l),
(487,693,l),
(312,428,l),
(137,693,l),
(34,693,l),
(257,364,l),
(169,241,o),
(84,118,o),
(23,0,c)
);
}
);
width = 623;
}
);
note = X;
unicode = 88;
},
{
glyphname = Y;
kernLeft = Y;
kernRight = Y;
layers = (
{
layerId = m01;
shapes = (
{
closed = 1;
nodes = (
(251,0,l),
(340,0,l),
(340,282,l),
(431,423,o),
(510,562,o),
(581,693,c),
(485,693,l),
(431,582,o),
(365,463,o),
(298,357,c),
(229,463,o),
(164,582,o),
(111,693,c),
(9,693,l),
(79,561,o),
(158,423,o),
(251,280,c)
);
}
);
width = 590;
}
);
note = Y;
unicode = 89;
},
{
glyphname = Z;
kernLeft = Z;
kernRight = Z;
layers = (
{
layerId = m01;
shapes = (
{
closed = 1;
nodes = (
(37,0,l),
(534,0,l),
(534,76,l),
(138,76,l),
(240,258,o),
(430,515,o),
(524,620,c),
(524,693,l),
(56,693,l),
(56,617,l),
(419,617,l),
(310,493,o),
(123,226,o),
(37,61,c)
);
}
);
width = 572;
}
);
note = Z;
unicode = 90;
},
{
glyphname = bracketleft;
kernLeft = bracketleft;
kernRight = bracketleft;
layers = (
{
layerId = m01;
shapes = (
{
closed = 1;
nodes = (
(98,-185,l),
(316,-185,l),
(316,-119,l),
(178,-119,l),
(178,717,l),
(316,717,l),
(316,783,l),
(98,783,l)
);
}
);
width = 324;
}
);
note = bracketleft;
unicode = 91;
},
{
glyphname = backslash;
layers = (
{
layerId = m01;
shapes = (
{
closed = 1;
nodes = (
(314,-185,l),
(400,-185,l),
(61,783,l),
(-23,783,l)
);
}
);
width = 377;
}
);
note = backslash;
unicode = 92;
},
{
glyphname = bracketright;
kernLeft = bracketright;
kernRight = bracketright;
layers = (
{
layerId = m01;
shapes = (
{
closed = 1;
nodes = (
(8,-185,l),
(226,-185,l),
(226,783,l),
(8,783,l),
(8,717,l),
(146,717,l),
(146,-119,l),
(8,-119,l)
);
}
);
width = 324;
}
);
note = bracketright;
unicode = 93;
},
{
glyphname = asciicircum;
layers = (
{
layerId = m01;
shapes = (
{
closed = 1;
nodes = (
(118,321,l),
(282,614,l),
(447,321,l),
(513,355,l),
(321,694,l),
(244,694,l),
(52,355,l)
);
}
);
width = 565;
}
);
note = asciicircum;
unicode = 94;
},
{
glyphname = underscore;
layers = (
{
layerId = m01;
shapes = (
{
closed = 1;
nodes = (
(-4,-185,l),
(496,-185,l),
(496,-113,l),
(-4,-113,l)
);
}
);
width = 492;
}
);
note = underscore;
unicode = 95;
},
{
glyphname = grave;
layers = (
{
layerId = m01;
shapes = (
{
closed = 1;
nodes = (
(220,581,l),
(261,625,l),
(107,779,l),
(51,720,l)
);
}
);
width = 355;
}
);
note = grave;
unicode = 96;
},
{
glyphname = a;
kernLeft = a;
kernRight = a;
lastChange = "2022-08-19 20:06:38 +0000";
layers = (
{
background = {
shapes = (
{
closed = 1;
nodes = (
(333,-12,o),
(411,4,o),
(443,12,c),
(443,333,l),
(443,450,o),
(392,532,o),
(242,532,c),
(175,532,o),
(119,520,o),
(92,509,c),
(104,431,l),
(128,440,o),
(167,452,o),
(235,452,c),
(332,452,o),
(352,392,o),
(352,328,c),
(352,302,l),
(339,307,o),
(294,315,o),
(256,315,c),
(134,315,o),
(38,270,o),
(38,154,c),
(38,33,o),
(122,-12,o),
(240,-12,c)
);
},
{
closed = 1;
nodes = (
(177,65,o),
(132,87,o),
(132,155,c),
(132,230,o),
(203,244,o),
(264,244,c),
(308,244,o),
(338,236,o),
(352,231,c),
(352,72,l),
(328,68,o),
(293,65,o),
(250,65,c)
);
}
);
};
layerId = m01;
shapes = (
{
closed = 1;
nodes = (
(334,-11,o),
(413,5,o),
(443,13,c),
(443,335,ls),
(443,450,o),
(393,532,o),
(247,532,cs),
(180,532,o),
(126,520,o),
(100,509,c),
(111,437,l),
(133,446,o),
(170,458,o),
(240,458,cs),
(341,458,o),
(360,395,o),
(360,328,cs),
(360,300,l),
(348,305,o),
(301,314,o),
(263,314,cs),
(140,314,o),
(45,268,o),
(45,154,cs),
(45,34,o),
(129,-11,o),
(243,-11,cs)
);
},
{
closed = 1;
nodes = (
(178,60,o),
(131,84,o),
(131,154,cs),
(131,233,o),
(206,248,o),
(268,248,cs),
(315,248,o),
(346,239,o),
(360,234,c),
(360,68,l),
(335,63,o),
(299,60,o),
(254,60,cs)
);
},
);
width = 519;
}
);
note = a;
unicode = 97;
changeCount = 14;
},
{
glyphname = b;
kernLeft = b;
kernRight = b;
layers = (
{
layerId = m01;
shapes = (
{
closed = 1;
nodes = (
(433,-12,o),
(535,91,o),
(535,259,cs),
(535,419,o),
(451,530,o),
(302,530,cs),
(241,530,o),
(192,509,o),
(167,492,c),
(167,776,l),
(82,761,l),
(82,16,l),
(124,3,o),
(190,-12,o),
(277,-12,cs)
);
},
{
closed = 1;
nodes = (
(221,62,o),
(185,69,o),
(167,74,c),
(167,415,l),
(189,433,o),
(236,456,o),
(291,456,cs),
(405,456,o),
(447,371,o),
(447,260,cs),
(447,135,o),
(380,62,o),
(276,62,cs)
);
}
);
width = 588;
}
);
note = b;
unicode = 98;
},
{
glyphname = c;
kernLeft = c;
kernRight = c;
layers = (
{
layerId = m01;
shapes = (
{
closed = 1;
nodes = (
(361,-12,o),
(418,3,o),
(445,17,c),
(429,88,l),
(408,78,o),
(367,63,o),
(316,63,cs),
(188,63,o),
(141,142,o),
(141,258,cs),
(141,383,o),
(198,457,o),
(306,457,cs),
(357,457,o),
(388,448,o),
(415,435,c),
(436,506,l),
(405,522,o),
(354,532,o),
(298,532,cs),
(146,532,o),
(53,418,o),
(53,258,cs),
(53,99,o),
(137,-12,o),
(304,-12,cs)
);
}
);
width = 469;
}
);
note = c;
unicode = 99;
},
{
glyphname = d;
kernLeft = d;
layers = (
{
layerId = m01;
shapes = (
{
closed = 1;
nodes = (
(398,-12,o),
(464,3,o),
(506,16,c),
(506,776,l),
(421,761,l),
(421,492,l),
(396,509,o),
(348,530,o),
(287,530,cs),
(138,530,o),
(53,420,o),
(53,258,cs),
(53,90,o),
(155,-12,o),
(311,-12,cs)
);
},
{
closed = 1;
nodes = (
(208,62,o),
(141,135,o),
(141,260,cs),
(141,371,o),
(183,456,o),
(297,456,cs),
(352,456,o),
(399,433,o),
(421,415,c),
(421,74,l),
(402,69,o),
(367,62,o),
(312,62,cs)
);
}
);
width = 588;
}
);
note = d;
unicode = 100;
},
{
glyphname = e;
kernLeft = e;
kernRight = e;
layers = (
{
layerId = m01;
shapes = (
{
closed = 1;
nodes = (
(383,-12,o),
(444,8,o),
(465,19,c),
(451,90,l),
(430,80,o),
(385,63,o),
(318,63,cs),
(201,63,o),
(146,127,o),
(141,238,c),
(498,238,l),
(499,248,o),
(501,263,o),
(501,275,cs),
(501,448,o),
(417,532,o),
(285,532,cs),
(167,532,o),
(53,441,o),
(53,259,cs),
(53,102,o),
(129,-12,o),
(312,-12,cs)
);
},
{
closed = 1;
nodes = (
(143,304,l),
(148,385,o),
(199,459,o),
(286,459,cs),
(369,459,o),
(414,398,o),
(416,304,c)
);
}
);
width = 556;
}
);
note = e;
unicode = 101;
},
{
glyphname = f;
kernLeft = f;
kernRight = f;
layers = (
{
layerId = m01;
shapes = (
{
closed = 1;
nodes = (
(82,0,l),
(167,0,l),
(167,448,l),
(369,448,l),
(369,519,l),
(167,519,l),
(167,567,ls),
(167,658,o),
(199,702,o),
(287,702,cs),
(327,702,o),
(357,694,o),
(374,686,c),
(391,756,l),
(376,764,o),
(336,776,o),
(281,776,cs),
(147,776,o),
(82,703,o),
(82,569,cs)
);
}
);
width = 387;
}
);
note = f;
unicode = 102;
},
{
glyphname = g;
kernLeft = g;
kernRight = g;
layers = (
{
layerId = m01;
shapes = (
{
closed = 1;
nodes = (
(414,-188,o),
(496,-123,o),
(496,36,cs),
(496,501,l),
(455,514,o),
(392,530,o),
(303,530,cs),
(146,530,o),
(53,420,o),
(53,272,cs),
(53,97,o),
(155,23,o),
(282,23,cs),
(348,23,o),
(392,47,o),
(412,59,c),
(412,29,ls),
(412,-73,o),
(365,-115,o),
(250,-115,cs),
(192,-115,o),
(134,-103,o),
(99,-87,c),
(83,-162,l),
(124,-176,o),
(183,-188,o),
(248,-188,cs)
);
},
{
closed = 1;
nodes = (
(211,96,o),
(141,147,o),
(141,272,cs),
(141,381,o),
(200,457,o),
(304,457,cs),
(361,457,o),
(391,451,o),
(411,445,c),
(411,133,l),
(386,113,o),
(340,96,o),
(288,96,cs)
);
}
);
width = 578;
}
);
note = g;
unicode = 103;
},
{
glyphname = h;
kernLeft = h;
kernRight = h;
layers = (
{
layerId = m01;
shapes = (
{
closed = 1;
nodes = (
(82,0,l),
(167,0,l),
(167,435,l),
(180,440,o),
(235,455,o),
(276,455,cs),
(381,455,o),
(413,405,o),
(413,271,cs),
(413,0,l),
(497,0,l),
(497,291,ls),
(497,433,o),
(450,530,o),
(287,530,cs),
(246,530,o),
(204,521,o),
(167,507,c),
(167,776,l),
(82,761,l)
);
}
);
width = 574;
}
);
note = h;
unicode = 104;
},
{
glyphname = i;
kernLeft = i;
kernRight = i;
layers = (
{
layerId = m01;
shapes = (
{
closed = 1;
nodes = (
(156,615,o),
(181,638,o),
(181,674,cs),
(181,710,o),
(156,733,o),
(124,733,cs),
(92,733,o),
(67,710,o),
(67,674,cs),
(67,638,o),
(92,615,o),
(124,615,cs)
);
},
{
closed = 1;
nodes = (
(82,0,l),
(167,0,l),
(167,519,l),
(82,519,l)
);
}
);
width = 249;
}
);
note = i;
unicode = 105;
},
{
glyphname = j;
kernLeft = j;
kernRight = j;
layers = (
{
layerId = m01;
shapes = (
{
closed = 1;
nodes = (
(156,615,o),
(181,638,o),
(181,674,cs),
(181,710,o),
(156,733,o),
(124,733,cs),
(92,733,o),
(67,710,o),
(67,674,cs),
(67,638,o),
(92,615,o),
(124,615,cs)
);
},
{
closed = 1;
nodes = (
(116,-187,o),
(167,-124,o),
(167,8,cs),
(167,519,l),
(82,519,l),
(82,7,ls),
(82,-73,o),
(64,-114,o),
(-8,-114,cs),
(-25,-114,o),
(-42,-111,o),
(-54,-107,c),
(-65,-176,l),
(-49,-182,o),
(-19,-187,o),
(-4,-187,cs)
);
}
);
width = 249;
}
);
note = j;
unicode = 106;
},
{
glyphname = k;
kernLeft = k;
kernRight = k;
layers = (
{
layerId = m01;
shapes = (
{
closed = 1;
nodes = (
(82,0,l),
(167,0,l),
(167,253,l),
(243,202,o),
(341,97,o),
(400,0,c),
(498,0,l),
(444,95,o),
(336,224,o),
(253,284,c),
(323,354,o),
(417,452,o),
(480,519,c),
(379,519,l),
(330,462,o),
(231,360,o),
(167,296,c),
(167,776,l),
(82,761,l)
);
}
);
width = 514;
}
);
note = k;
unicode = 107;
},
{
glyphname = l;
kernLeft = l;
kernRight = l;
layers = (
{
layerId = m01;
shapes = (
{
closed = 1;
nodes = (
(243,61,l),
(186,69,o),
(166,81,o),
(166,144,cs),
(166,776,l),
(82,761,l),
(82,135,ls),
(82,34,o),
(125,-5,o),
(231,-9,c)
);
}
);
width = 269;
}
);
note = l;
unicode = 108;
},
{
glyphname = m;
kernLeft = m;
kernRight = m;
layers = (
{
layerId = m01;
shapes = (
{
closed = 1;
nodes = (
(82,0,l),
(167,0,l),
(167,443,l),
(180,448,o),
(221,455,o),
(273,455,cs),
(372,455,o),
(392,397,o),
(392,271,cs),
(392,0,l),
(476,0,l),
(476,292,ls),
(476,338,o),
(471,381,o),
(460,414,c),
(475,426,o),
(520,455,o),
(586,455,cs),
(682,455,o),
(702,397,o),
(702,271,cs),
(702,0,l),
(786,0,l),
(786,291,ls),
(786,431,o),
(755,530,o),
(595,530,cs),
(511,530,o),
(448,491,o),
(427,474,c),
(398,510,o),
(350,530,o),
(283,530,cs),
(190,530,o),
(124,513,o),
(82,501,c)
);
}
);
width = 863;
}
);
note = m;
unicode = 109;
},
{
glyphname = n;
kernLeft = n;
kernRight = n;
layers = (
{
layerId = m01;
shapes = (
{
closed = 1;
nodes = (
(82,0,l),
(167,0,l),
(167,443,l),
(181,448,o),
(225,455,o),
(277,455,cs),
(380,455,o),
(413,405,o),
(413,271,cs),
(413,0,l),
(497,0,l),
(497,291,ls),
(497,433,o),
(449,530,o),
(286,530,cs),
(194,530,o),
(124,513,o),
(82,501,c)
);
}
);
width = 574;
}
);
note = n;
unicode = 110;
},
{
glyphname = o;
kernLeft = o;
kernRight = o;
layers = (
{
layerId = m01;
shapes = (
{
closed = 1;
nodes = (
(436,-12,o),
(535,96,o),
(535,259,cs),
(535,423,o),
(435,532,o),
(294,532,cs),
(153,532,o),
(53,423,o),
(53,259,cs),
(53,96,o),
(152,-12,o),
(294,-12,cs)
);
},
{
closed = 1;
nodes = (
(200,62,o),
(141,139,o),
(141,259,cs),
(141,380,o),
(200,457,o),
(294,457,cs),
(388,457,o),
(447,380,o),
(447,259,cs),
(447,139,o),
(388,62,o),
(294,62,cs)
);
}
);
width = 588;
}
);
note = o;
unicode = 111;
},
{
glyphname = p;
kernLeft = p;
kernRight = p;
layers = (
{
layerId = m01;
shapes = (
{
closed = 1;
nodes = (
(82,-185,l),
(167,-185,l),
(167,26,l),
(192,10,o),
(241,-12,o),
(302,-12,cs),
(451,-12,o),
(535,99,o),
(535,258,cs),
(535,426,o),
(433,530,o),
(277,530,cs),
(190,530,o),
(124,515,o),
(82,501,c)
);
},
{
closed = 1;
nodes = (
(236,63,o),
(189,86,o),
(167,103,c),
(167,443,l),
(185,448,o),
(221,455,o),
(276,455,cs),
(380,455,o),
(447,383,o),
(447,257,cs),
(447,147,o),
(405,63,o),
(291,63,cs)
);
}
);
width = 588;
}
);
note = p;
unicode = 112;
},
{
glyphname = q;
kernLeft = q;
kernRight = q;
layers = (
{
layerId = m01;
shapes = (
{
closed = 1;
nodes = (
(421,-185,l),
(506,-185,l),
(506,501,l),
(464,515,o),
(398,530,o),
(311,530,cs),
(155,530,o),
(53,425,o),
(53,258,cs),
(53,98,o),
(137,-12,o),
(286,-12,cs),
(347,-12,o),
(396,10,o),
(421,26,c)
);
},
{
closed = 1;
nodes = (
(183,63,o),
(141,147,o),
(141,257,cs),
(141,383,o),
(208,455,o),
(312,455,cs),
(367,455,o),
(402,448,o),
(421,443,c),
(421,103,l),
(399,86,o),
(352,63,o),
(297,63,cs)
);
}
);
width = 588;
}
);
note = q;
unicode = 113;
},
{
glyphname = r;
kernLeft = r;
kernRight = r;
layers = (
{
layerId = m01;
shapes = (
{
closed = 1;
nodes = (
(82,0,l),
(167,0,l),
(167,441,l),
(177,446,o),
(211,455,o),
(259,455,cs),
(309,455,o),
(344,447,o),
(358,442,c),
(374,513,l),
(355,521,o),
(307,529,o),
(268,529,cs),
(182,529,o),
(120,509,o),
(82,494,c)
);
}
);
width = 385;
}
);
note = r;
unicode = 114;
},
{
glyphname = s;
kernLeft = s;
kernRight = s;
layers = (
{
layerId = m01;
shapes = (
{
closed = 1;
nodes = (
(325,-12,o),
(401,38,o),
(401,133,cs),
(401,229,o),
(336,260,o),
(245,296,cs),
(170,325,o),
(134,342,o),
(134,391,cs),
(134,439,o),
(178,460,o),
(234,460,cs),
(302,460,o),
(338,444,o),
(358,435,c),
(376,506,l),
(354,516,o),
(302,532,o),
(234,532,cs),
(119,532,o),
(49,474,o),
(49,386,cs),
(49,296,o),
(116,264,o),
(196,232,cs),
(284,197,o),
(315,181,o),
(315,131,cs),
(315,79,o),
(269,60,o),
(199,60,cs),
(124,60,o),
(77,83,o),
(59,90,c),
(40,17,l),
(58,9,o),
(108,-12,o),
(198,-12,cs)
);
}
);
width = 441;
}
);
note = s;
unicode = 115;
},
{
glyphname = t;
kernLeft = t;
kernRight = t;
layers = (
{
layerId = m01;
shapes = (
{
closed = 1;
nodes = (
(312,-11,o),
(361,7,o),
(384,20,c),
(367,88,l),
(346,78,o),
(313,63,o),
(264,63,cs),
(198,63,o),
(162,89,o),
(162,194,cs),
(162,448,l),
(362,448,l),
(362,519,l),
(162,519,l),
(162,681,l),
(78,666,l),
(78,198,ls),
(78,61,o),
(118,-11,o),
(255,-11,cs)
);
}
);
width = 400;
}
);
note = t;
unicode = 116;
},
{
glyphname = u;
kernLeft = u;
kernRight = u;
layers = (
{
layerId = m01;
shapes = (
{
closed = 1;
nodes = (
(380,-10,o),
(450,6,o),
(491,18,c),
(491,519,l),
(407,519,l),
(407,76,l),
(393,72,o),
(349,64,o),
(297,64,cs),
(197,64,o),
(161,114,o),
(161,249,cs),
(161,519,l),
(77,519,l),
(77,228,ls),
(77,86,o),
(128,-10,o),
(287,-10,cs)
);
}
);
width = 574;
}
);
note = u;
unicode = 117;
},
{
glyphname = v;
kernLeft = v;
kernRight = v;
layers = (
{
layerId = m01;
shapes = (
{
closed = 1;
nodes = (
(286,0,l),
(354,141,o),
(428,326,o),
(478,519,c),
(393,519,l),
(362,386,o),
(300,206,o),
(250,95,c),
(199,205,o),
(138,386,o),
(107,519,c),
(18,519,l),
(68,326,o),
(142,141,o),
(210,0,c)
);
}
);
width = 496;
}
);
note = v;
unicode = 118;
},
{
glyphname = w;
kernLeft = w;
kernRight = w;
layers = (
{
layerId = m01;
shapes = (
{
closed = 1;
nodes = (
(267,0,l),
(305,95,o),
(352,228,o),
(388,367,c),
(425,228,o),
(473,95,o),
(511,0,c),
(584,0,l),
(648,141,o),
(707,315,o),
(757,519,c),
(672,519,l),
(644,389,o),
(589,202,o),
(547,98,c),
(499,228,o),
(450,396,o),
(426,519,c),
(358,519,l),
(331,395,o),
(283,228,o),
(235,99,c),
(192,202,o),
(137,389,o),
(109,519,c),
(20,519,l),
(71,315,o),
(130,141,o),
(192,0,c)
);
}
);
width = 777;
}
);
note = w;
unicode = 119;
},
{
glyphname = x;
kernLeft = x;
kernRight = x;
layers = (
{
layerId = m01;
shapes = (
{
closed = 1;
nodes = (
(110,0,l),
(140,58,o),
(200,150,o),
(254,221,c),
(308,149,o),
(368,55,o),
(397,0,c),
(488,0,l),
(440,94,o),
(368,196,o),
(305,277,c),
(474,519,l),
(384,519,l),
(255,330,l),
(128,519,l),
(32,519,l),
(203,273,l),
(140,189,o),
(73,94,o),
(24,0,c)
);
}
);
width = 512;
}
);
note = x;
unicode = 120;
},
{
glyphname = y;
kernLeft = y;
kernRight = y;
layers = (
{
layerId = m01;
shapes = (
{
closed = 1;
nodes = (
(199,-187,o),
(248,-136,o),
(300,-16,cs),
(367,138,o),
(424,325,o),
(471,519,c),
(385,519,l),
(349,360,o),
(317,233,o),
(264,84,c),
(194,230,o),
(136,397,o),
(107,519,c),
(18,519,l),
(64,339,o),
(139,152,o),
(223,-3,c),
(190,-86,o),
(154,-116,o),
(83,-116,cs),
(57,-116,o),
(29,-108,o),
(18,-102,c),
(2,-171,l),
(12,-177,o),
(46,-187,o),
(83,-187,cs)
);
}
);
width = 491;
}
);
note = y;
unicode = 121;
},
{
glyphname = z;
kernLeft = z;
kernRight = z;
layers = (
{
layerId = m01;
shapes = (
{
closed = 1;
nodes = (
(37,0,l),
(428,0,l),
(428,71,l),
(137,71,l),
(218,211,o),
(362,390,o),
(420,455,c),
(420,519,l),
(52,519,l),
(52,448,l),
(315,448,l),
(244,363,o),
(103,179,o),
(37,56,c)
);
}
);
width = 465;
}
);
note = z;
unicode = 122;
},
{
glyphname = braceleft;
kernLeft = braceleft;
kernRight = braceleft;
layers = (
{
layerId = m01;
shapes = (
{
closed = 1;
nodes = (
(323,-193,l),
(323,-128,l),
(313,-128,ls),
(219,-127,o),
(215,-89,o),
(215,18,cs),
(215,131,ls),
(215,223,o),
(191,265,o),
(145,291,c),
(191,318,o),
(215,358,o),
(215,451,cs),
(215,564,ls),
(215,671,o),
(219,709,o),
(312,709,cs),
(323,709,l),
(323,775,l),
(312,775,ls),
(174,775,o),
(135,715,o),
(135,605,cs),
(135,421,ls),
(135,372,o),
(106,323,o),
(41,323,c),
(41,258,l),
(106,258,o),
(135,210,o),
(135,161,cs),
(135,-23,ls),
(135,-133,o),
(174,-193,o),
(312,-193,cs)
);
}
);
width = 331;
}
);
note = braceleft;
unicode = 123;
},
{
glyphname = bar;
layers = (
{
layerId = m01;
shapes = (
{
closed = 1;
nodes = (
(98,-185,l),
(178,-185,l),
(178,783,l),
(98,783,l)
);
}
);
width = 276;
}
);
note = bar;
unicode = 124;
},
{
glyphname = braceright;
kernLeft = braceright;
kernRight = braceright;
layers = (
{
layerId = m01;
shapes = (
{
closed = 1;
nodes = (
(8,-193,l),
(19,-193,ls),
(157,-193,o),
(196,-133,o),
(196,-23,cs),
(196,161,ls),
(196,210,o),
(225,258,o),
(290,258,c),
(290,323,l),
(225,323,o),
(196,372,o),
(196,421,cs),
(196,605,ls),
(196,715,o),
(157,775,o),
(19,775,cs),
(8,775,l),
(8,709,l),
(20,709,ls),
(112,708,o),
(116,670,o),
(116,564,cs),
(116,451,ls),
(116,358,o),
(140,318,o),
(186,291,c),
(140,265,o),
(116,223,o),
(116,131,cs),
(116,18,ls),
(116,-88,o),
(112,-126,o),
(20,-128,cs),
(8,-128,l)
);
}
);
width = 331;
}
);
note = braceright;
unicode = 125;
},
{
glyphname = asciitilde;
layers = (
{
layerId = m01;
shapes = (
{
closed = 1;
nodes = (
(478,216,o),
(509,297,o),
(521,351,c),
(458,367,l),
(451,335,o),
(432,288,o),
(388,288,cs),
(321,288,o),
(268,375,o),
(180,375,cs),
(86,375,o),
(56,294,o),
(44,239,c),
(107,224,l),
(114,255,o),
(133,303,o),
(177,303,cs),
(244,303,o),
(297,216,o),
(384,216,cs)
);
}
);
width = 565;
}
);
note = asciitilde;
unicode = 126;
},
{
glyphname = Euro;
kernRight = Euro;
layers = (
{
layerId = m01;
shapes = (
{
closed = 1;
nodes = (
(467,-13,o),
(526,6,o),
(549,18,c),
(531,88,l),
(502,73,o),
(459,61,o),
(403,61,cs),
(286,61,o),
(242,137,o),
(225,233,c),
(416,233,l),
(429,296,l),
(218,296,l),
(217,314,o),
(217,330,o),
(217,346,cs),
(217,364,o),
(218,383,o),
(219,403,c),
(450,403,l),
(462,466,l),
(227,466,l),
(245,558,o),
(292,633,o),
(402,633,cs),
(441,633,o),
(481,625,o),
(513,612,c),
(532,683,l),
(493,697,o),
(461,705,o),
(402,705,cs),
(242,705,o),
(165,602,o),
(139,466,c),
(45,466,l),
(45,403,l),
(131,403,l),
(130,384,o),
(129,365,o),
(129,346,cs),
(129,329,o),
(129,314,o),
(130,296,c),
(45,296,l),
(45,233,l),
(136,233,l),
(158,93,o),
(229,-13,o),
(400,-13,cs)
);
}
);
width = 565;
}
);
note = Euro;
unicode = 8364;
},
{
glyphname = quotesinglbase;
kernLeft = quotesinglbase;
kernRight = quotesinglbase;
layers = (
{
layerId = m01;
shapes = (
{
closed = 1;
nodes = (
(95,-126,l),
(141,-62,o),
(167,10,o),
(167,89,cs),
(167,94,o),
(167,102,o),
(166,109,c),
(76,109,l),
(78,95,o),
(78,80,o),
(78,68,cs),
(78,17,o),
(65,-41,o),
(34,-104,c)
);
}
);
width = 233;
}
);
note = quotesinglbase;
unicode = 8218;
},
{
glyphname = florin;
kernLeft = j;
kernRight = f;
layers = (
{
layerId = m01;
shapes = (
{
closed = 1;
nodes = (
(116,-187,o),
(167,-124,o),
(167,8,cs),
(167,448,l),
(369,448,l),
(369,519,l),
(167,519,l),
(167,567,ls),
(167,658,o),
(199,702,o),
(287,702,cs),
(327,702,o),
(357,694,o),
(374,686,c),
(391,756,l),
(376,764,o),
(336,776,o),
(281,776,cs),
(147,776,o),
(82,703,o),
(82,569,cs),
(82,7,ls),
(82,-73,o),
(64,-114,o),
(-8,-114,cs),
(-25,-114,o),
(-42,-111,o),
(-54,-107,c),
(-65,-176,l),
(-49,-182,o),
(-19,-187,o),
(-4,-187,cs)
);
}
);
width = 387;
}
);
note = florin;
unicode = 402;
},
{
glyphname = quotedblbase;
kernLeft = quotesinglbase;
kernRight = quotesinglbase;
layers = (
{
layerId = m01;
shapes = (
{
closed = 1;
nodes = (
(95,-126,l),
(141,-62,o),
(167,10,o),
(167,89,cs),
(167,94,o),
(167,102,o),
(166,109,c),
(76,109,l),
(78,95,o),
(78,80,o),
(78,68,cs),
(78,17,o),
(65,-41,o),
(34,-104,c)
);
},
{
closed = 1;
nodes = (
(270,-126,l),
(315,-62,o),
(341,10,o),
(341,89,cs),
(341,94,o),
(341,102,o),
(340,109,c),
(251,109,l),
(252,95,o),
(252,80,o),
(252,68,cs),
(252,17,o),
(240,-41,o),
(208,-104,c)
);
}
);
width = 406;
}
);
note = quotedblbase;
unicode = 8222;
},
{
glyphname = ellipsis;
kernLeft = comma;
kernRight = comma;
layers = (
{
layerId = m01;
shapes = (
{
closed = 1;
nodes = (
(199,-12,o),
(226,15,o),
(226,51,cs),
(226,88,o),
(199,115,o),
(162,115,cs),
(125,115,o),
(99,88,o),
(99,51,cs),
(99,15,o),
(125,-12,o),
(162,-12,cs)
);
},
{
closed = 1;
nodes = (
(536,-12,o),
(562,15,o),
(562,51,cs),
(562,88,o),
(536,115,o),
(498,115,cs),
(461,115,o),
(435,88,o),
(435,51,cs),
(435,15,o),
(461,-12,o),
(498,-12,cs)
);
},
{
closed = 1;
nodes = (
(872,-12,o),
(898,15,o),
(898,51,cs),
(898,88,o),
(872,115,o),
(835,115,cs),
(797,115,o),
(771,88,o),
(771,51,cs),
(771,15,o),
(797,-12,o),
(835,-12,cs)
);
}
);
width = 997;
}
);
note = ellipsis;
unicode = 8230;
},
{
glyphname = dagger;
layers = (
{
layerId = m01;
shapes = (
{
closed = 1;
nodes = (
(257,-145,l),
(269,-56,o),
(274,31,o),
(274,143,cs),
(274,403,l),
(434,403,l),
(434,473,l),
(274,473,l),
(274,693,l),
(200,693,l),
(200,473,l),
(40,473,l),
(40,403,l),
(200,403,l),
(200,143,ls),
(200,30,o),
(205,-55,o),
(217,-145,c)
);
}
);
width = 475;
}
);
note = dagger;
unicode = 8224;
},
{
glyphname = daggerdbl;
layers = (
{
layerId = m01;
shapes = (
{
closed = 1;
nodes = (
(257,-145,l),
(268,-58,o),
(273,26,o),
(274,138,c),
(434,138,l),
(434,209,l),
(274,209,l),
(274,403,l),
(434,403,l),
(434,473,l),
(274,473,l),
(274,693,l),
(200,693,l),
(200,473,l),
(40,473,l),
(40,403,l),
(200,403,l),
(200,209,l),
(40,209,l),
(40,138,l),
(200,138,l),
(201,25,o),
(205,-58,o),
(217,-145,c)
);
}
);
width = 475;
}
);
note = daggerdbl;
unicode = 8225;
},
{
glyphname = circumflex;
layers = (
{
layerId = m01;
shapes = (
{
closed = 1;
nodes = (
(87,583,l),
(191,674,l),
(294,583,l),
(328,622,l),
(191,767,l),
(53,622,l)
);
}
);
width = 381;
}
);
note = circumflex;
unicode = 710;
},
{
glyphname = perthousand;
layers = (
{
layerId = m01;
shapes = (
{
closed = 1;
nodes = (
(296,343,o),
(366,407,o),
(366,526,cs),
(366,645,o),
(296,708,o),
(210,708,cs),
(123,708,o),
(53,645,o),
(53,526,cs),
(53,407,o),
(123,343,o),
(210,343,cs)
);
},
{
closed = 1;
nodes = (
(187,0,l),
(270,0,l),
(664,693,l),
(581,693,l)
);
},
{
closed = 1;
nodes = (
(155,406,o),
(125,452,o),
(125,526,cs),
(125,599,o),
(155,645,o),
(210,645,cs),
(264,645,o),
(294,599,o),
(294,526,cs),
(294,452,o),
(264,406,o),
(210,406,cs)
);
},
{
closed = 1;
nodes = (
(728,-15,o),
(798,48,o),
(798,167,cs),
(798,286,o),
(728,350,o),
(641,350,cs),
(555,350,o),
(485,286,o),
(485,167,cs),
(485,48,o),
(555,-15,o),
(641,-15,cs)
);
},
{
closed = 1;
nodes = (
(1092,-15,o),
(1162,48,o),
(1162,167,cs),
(1162,286,o),
(1092,350,o),
(1006,350,cs),
(919,350,o),
(849,286,o),
(849,167,cs),
(849,48,o),
(919,-15,o),
(1006,-15,cs)
);
},
{
closed = 1;
nodes = (
(586,48,o),
(557,94,o),
(557,167,cs),
(557,241,o),
(586,287,o),
(641,287,cs),
(696,287,o),
(726,241,o),
(726,167,cs),
(726,94,o),
(696,48,o),
(641,48,cs)
);
},
{
closed = 1;
nodes = (
(950,48,o),
(921,94,o),
(921,167,cs),
(921,241,o),
(950,287,o),
(1006,287,cs),
(1060,287,o),
(1090,241,o),
(1090,167,cs),
(1090,94,o),
(1060,48,o),
(1006,48,cs)
);
}
);
width = 1215;
}
);
note = perthousand;
unicode = 8240;
},
{
glyphname = Scaron;
kernLeft = S;
kernRight = S;
layers = (
{
layerId = m01;
shapes = (
{
closed = 1;
nodes = (
(273,744,l),
(411,889,l),
(377,928,l),
(273,836,l),
(170,928,l),
(136,889,l)
);
},
{
closed = 1;
nodes = (
(402,-15,o),
(495,51,o),
(495,177,cs),
(495,306,o),
(409,346,o),
(292,393,cs),
(206,427,o),
(142,451,o),
(142,528,cs),
(142,601,o),
(198,632,o),
(282,632,cs),
(346,632,o),
(402,615,o),
(440,590,c),
(469,662,l),
(432,685,o),
(362,708,o),
(282,708,cs),
(140,708,o),
(52,641,o),
(52,521,cs),
(52,411,o),
(128,367,o),
(237,324,cs),
(331,288,o),
(403,263,o),
(403,174,cs),
(403,97,o),
(349,61,o),
(246,61,cs),
(154,61,o),
(92,91,o),
(62,108,c),
(35,34,l),
(63,17,o),
(135,-15,o),
(245,-15,cs)
);
}
);
width = 532;
}
);
note = Scaron;
unicode = 352;
},
{
glyphname = guilsinglleft;
kernLeft = guilsinglleft;
kernRight = guilsinglleft;
layers = (
{
layerId = m01;
shapes = (
{
closed = 1;
nodes = (
(187,66,l),
(245,98,l),
(132,284,l),
(245,469,l),
(187,502,l),
(32,284,l)
);
}
);
width = 287;
}
);
note = guilsinglleft;
unicode = 8249;
},
{
glyphname = OE;
kernLeft = O;
kernRight = E;
layers = (
{
layerId = m01;
shapes = (
{
closed = 1;
nodes = (
(472,-6,o),
(509,-4,o),
(541,0,c),
(954,0,l),
(954,76,l),
(616,76,l),
(616,326,l),
(892,326,l),
(892,401,l),
(616,401,l),
(616,617,l),
(928,617,l),
(928,693,l),
(541,693,l),
(509,697,o),
(472,699,o),
(441,699,cs),
(217,699,o),
(62,584,o),
(62,347,cs),
(62,109,o),
(217,-6,o),
(441,-6,cs)
);
},
{
closed = 1;
nodes = (
(248,70,o),
(154,174,o),
(154,347,cs),
(154,519,o),
(248,623,o),
(434,623,cs),
(494,623,o),
(516,619,o),
(528,618,c),
(528,75,l),
(517,74,o),
(493,70,o),
(434,70,cs)
);
}
);
width = 992;
}
);
note = OE;
unicode = 338;
},
{
glyphname = quoteleft;
kernLeft = quoteleft;
kernRight = quoteleft;
layers = (
{
layerId = m01;
shapes = (
{
closed = 1;
nodes = (
(157,523,l),
(155,537,o),
(155,552,o),
(155,564,cs),
(155,615,o),
(168,673,o),
(199,736,c),
(138,758,l),
(92,694,o),
(66,622,o),
(66,543,cs),
(66,539,o),
(66,530,o),
(67,523,c)
);
}
);
width = 233;
}
);
note = quoteleft;
unicode = 8216;
},
{
glyphname = quoteright;
kernLeft = quoteright;
kernRight = quoteright;
layers = (
{
layerId = m01;
shapes = (
{
closed = 1;
nodes = (
(95,512,l),
(141,577,o),
(167,649,o),
(167,728,cs),
(167,732,o),
(167,740,o),
(166,747,c),
(76,747,l),
(78,733,o),
(78,719,o),
(78,706,cs),
(78,656,o),
(65,597,o),
(34,535,c)
);
}
);
width = 233;
}
);
note = quoteright;
unicode = 8217;
},
{
glyphname = quotedblleft;
kernLeft = quoteleft;
kernRight = quoteleft;
layers = (
{
layerId = m01;
shapes = (
{
closed = 1;
nodes = (
(156,523,l),
(154,537,o),
(154,552,o),
(154,564,cs),
(154,615,o),
(167,674,o),
(198,736,c),
(138,758,l),
(92,694,o),
(66,622,o),
(66,543,cs),
(66,539,o),
(66,530,o),
(67,523,c)
);
},
{
closed = 1;
nodes = (
(330,523,l),
(328,537,o),
(328,552,o),
(328,564,cs),
(328,615,o),
(341,674,o),
(372,736,c),
(312,758,l),
(266,694,o),
(240,622,o),
(240,543,cs),
(240,539,o),
(241,530,o),
(241,523,c)
);
}
);
width = 406;
}
);
note = quotedblleft;
unicode = 8220;
},
{
glyphname = quotedblright;
kernLeft = quoteright;
kernRight = quoteright;
layers = (
{
layerId = m01;
shapes = (
{
closed = 1;
nodes = (
(94,512,l),
(140,577,o),
(166,649,o),
(166,728,cs),
(166,732,o),
(166,740,o),
(165,747,c),
(76,747,l),
(78,733,o),
(78,719,o),
(78,706,cs),
(78,656,o),
(65,597,o),
(34,534,c)
);
},
{
closed = 1;
nodes = (
(269,512,l),
(314,577,o),
(340,649,o),
(340,728,cs),
(340,732,o),
(340,740,o),
(339,747,c),
(251,747,l),
(252,733,o),
(252,719,o),
(252,706,cs),
(252,656,o),
(240,597,o),
(208,534,c)
);
}
);
width = 406;
}
);
note = quotedblright;
unicode = 8221;
},
{
glyphname = bullet;
layers = (
{
layerId = m01;
shapes = (
{
closed = 1;
nodes = (
(258,228,o),
(306,286,o),
(306,353,cs),
(306,420,o),
(258,478,o),
(180,478,cs),
(102,478,o),
(55,420,o),
(55,353,cs),
(55,286,o),
(102,228,o),
(180,228,cs)
);
}
);
width = 361;
}
);
note = bullet;
unicode = 8226;
},
{
glyphname = endash;
kernLeft = hyphen;
kernRight = hyphen;
layers = (
{
layerId = m01;
shapes = (
{
closed = 1;
nodes = (
(-2,255,l),
(498,255,l),
(498,328,l),
(-2,328,l)
);
}
);
width = 497;
}
);
note = endash;
unicode = 8211;
},
{
glyphname = emdash;
kernLeft = hyphen;
kernRight = hyphen;
layers = (
{
layerId = m01;
shapes = (
{
closed = 1;
nodes = (
(-2,255,l),
(998,255,l),
(998,328,l),
(-2,328,l)
);
}
);
width = 997;
}
);
note = emdash;
unicode = 8212;
},
{
glyphname = tilde;
layers = (
{
layerId = m01;
shapes = (
{
closed = 1;
nodes = (
(70,617,l),
(83,640,o),
(97,662,o),
(125,662,cs),
(167,662,o),
(199,624,o),
(252,624,cs),
(307,624,o),
(339,675,o),
(353,709,c),
(307,734,l),
(295,711,o),
(280,689,o),
(252,689,cs),
(211,689,o),
(178,727,o),
(125,727,cs),
(70,727,o),
(38,676,o),
(24,642,c)
);
}
);
width = 375;
}
);
note = tilde;
unicode = 732;
},
{
glyphname = trademark;
layers = (
{
layerId = m01;
shapes = (
{
closed = 1;
nodes = (
(384,363,l),
(387,439,o),
(393,525,o),
(399,591,c),
(429,536,o),
(475,446,o),
(494,406,c),
(537,406,l),
(555,446,o),
(602,537,o),
(632,591,c),
(638,531,o),
(643,451,o),
(647,363,c),
(708,363,l),
(702,504,o),
(690,626,o),
(679,693,c),
(627,693,l),
(604,652,o),
(552,555,o),
(517,483,c),
(481,555,o),
(431,650,o),
(406,693,c),
(353,693,l),
(342,626,o),
(330,504,o),
(325,363,c)
);
},
{
closed = 1;
nodes = (
(128,363,l),
(189,363,l),
(189,639,l),
(295,639,l),
(295,693,l),
(22,693,l),
(22,639,l),
(128,639,l)
);
}
);
width = 745;
}
);
note = trademark;
unicode = 8482;
},
{
glyphname = scaron;
kernLeft = s;
kernRight = s;
layers = (
{
layerId = m01;
shapes = (
{
closed = 1;
nodes = (
(221,587,l),
(358,731,l),
(324,771,l),
(221,679,l),
(117,771,l),
(83,731,l)
);
},
{
closed = 1;
nodes = (
(325,-12,o),
(401,38,o),
(401,133,cs),
(401,229,o),
(336,260,o),
(245,296,cs),
(170,325,o),
(134,342,o),
(134,391,cs),
(134,439,o),
(178,460,o),
(234,460,cs),
(302,460,o),
(338,444,o),
(358,435,c),
(376,506,l),
(354,516,o),
(302,532,o),
(234,532,cs),
(119,532,o),
(49,474,o),
(49,386,cs),
(49,296,o),
(116,264,o),
(196,232,cs),
(284,197,o),
(315,181,o),
(315,131,cs),
(315,79,o),
(269,60,o),
(199,60,cs),
(124,60,o),
(77,83,o),
(59,90,c),
(40,17,l),
(58,9,o),
(108,-12,o),
(198,-12,cs)
);
}
);
width = 441;
}
);
note = scaron;
unicode = 353;
},
{
glyphname = guilsinglright;
kernLeft = guilsinglright;
kernRight = guilsinglright;
layers = (
{
layerId = m01;
shapes = (
{
closed = 1;
nodes = (
(100,66,l),
(255,284,l),
(100,502,l),
(42,469,l),
(155,284,l),
(42,98,l)
);
}
);
width = 287;
}
);
note = guilsinglright;
unicode = 8250;
},
{
glyphname = oe;
kernLeft = o;
kernRight = e;
layers = (
{
layerId = m01;
shapes = (
{
closed = 1;
nodes = (
(380,-12,o),
(445,31,o),
(484,103,c),
(521,31,o),
(587,-12,o),
(698,-12,cs),
(769,-12,o),
(830,8,o),
(851,19,c),
(837,90,l),
(816,80,o),
(771,63,o),
(704,63,cs),
(587,63,o),
(532,127,o),
(527,238,c),
(884,238,l),
(885,248,o),
(887,263,o),
(887,275,cs),
(887,448,o),
(803,532,o),
(671,532,cs),
(596,532,o),
(527,492,o),
(486,412,c),
(448,487,o),
(382,532,o),
(293,532,cs),
(152,532,o),
(53,423,o),
(53,259,cs),
(53,96,o),
(151,-12,o),
(293,-12,cs)
);
},
{
closed = 1;
nodes = (
(529,304,l),
(534,385,o),
(586,459,o),
(672,459,cs),
(755,459,o),
(800,398,o),
(802,304,c)
);
},
{
closed = 1;
nodes = (
(200,62,o),
(141,139,o),
(141,259,cs),
(141,380,o),
(200,457,o),
(294,457,cs),
(388,457,o),
(447,380,o),
(447,259,cs),
(447,139,o),
(388,62,o),
(294,62,cs)
);
}
);
width = 942;
}
);
note = oe;
unicode = 339;
},
{
glyphname = Ydieresis;
kernLeft = Y;
kernRight = Y;
layers = (
{
layerId = m01;
shapes = (
{
closed = 1;
nodes = (
(417,777,o),
(440,798,o),
(440,831,cs),
(440,864,o),
(417,886,o),
(387,886,cs),
(358,886,o),
(334,864,o),
(334,831,cs),
(334,798,o),
(358,777,o),
(387,777,cs)
);
},
{
closed = 1;
nodes = (
(233,777,o),
(257,798,o),
(257,831,cs),
(257,864,o),
(233,886,o),
(204,886,cs),
(174,886,o),
(150,864,o),
(150,831,cs),
(150,798,o),
(174,777,o),
(204,777,cs)
);
},
{
closed = 1;
nodes = (
(251,0,l),
(340,0,l),
(340,282,l),
(431,423,o),
(510,562,o),
(581,693,c),
(485,693,l),
(431,582,o),
(365,463,o),
(298,357,c),
(229,463,o),
(164,582,o),
(111,693,c),
(9,693,l),
(79,561,o),
(158,423,o),
(251,280,c)
);
}
);
width = 590;
}
);
note = Ydieresis;
unicode = 376;
},
{
glyphname = exclamdown;
kernRight = exclamdown;
layers = (
{
layerId = m01;
shapes = (
{
closed = 1;
nodes = (
(176,392,o),
(202,419,o),
(202,456,cs),
(202,492,o),
(176,519,o),
(138,519,cs),
(101,519,o),
(75,492,o),
(75,456,cs),
(75,419,o),
(101,392,o),
(138,392,cs)
);
},
{
closed = 1;
nodes = (
(93,-184,l),
(184,-184,l),
(184,5,ls),
(184,117,o),
(175,203,o),
(163,293,c),
(114,293,l),
(102,203,o),
(93,117,o),
(93,5,cs)
);
}
);
width = 277;
}
);
note = exclamdown;
unicode = 161;
},
{
glyphname = cent;
kernLeft = cent;
layers = (
{
layerId = m01;
shapes = (
{
closed = 1;
nodes = (
(286,-109,l),
(364,-109,l),
(364,30,l),
(413,33,o),
(465,45,o),
(484,56,c),
(470,126,l),
(449,116,o),
(407,103,o),
(356,103,cs),
(231,103,o),
(181,180,o),
(181,291,cs),
(181,416,o),
(239,481,o),
(347,481,cs),
(388,481,o),
(426,471,o),
(454,459,c),
(475,529,l),
(439,543,o),
(403,552,o),
(364,553,c),
(364,693,l),
(286,693,l),
(286,549,l),
(165,526,o),
(93,423,o),
(93,291,cs),
(93,158,o),
(159,58,o),
(286,35,c)
);
}
);
width = 565;
}
);
note = cent;
unicode = 162;
},
{
glyphname = sterling;
kernRight = sterling;
layers = (
{
layerId = m01;
shapes = (
{
closed = 1;
nodes = (
(522,0,l),
(522,73,l),
(229,73,l),
(241,145,o),
(245,223,o),
(245,294,cs),
(245,301,l),
(438,301,l),
(438,371,l),
(245,371,l),
(245,467,ls),
(245,595,o),
(291,630,o),
(370,630,cs),
(414,630,o),
(450,622,o),
(482,605,c),
(504,678,l),
(471,693,o),
(427,706,o),
(373,706,cs),
(249,706,o),
(160,655,o),
(160,457,cs),
(160,371,l),
(66,371,l),
(66,301,l),
(160,301,l),
(160,291,ls),
(159,189,o),
(149,95,o),
(133,0,c)
);
}
);
width = 565;
}
);
note = sterling;
unicode = 163;
},
{
glyphname = currency;
layers = (
{
layerId = m01;
shapes = (
{
closed = 1;
nodes = (
(101,111,l),
(177,187,l),
(207,167,o),
(243,156,o),
(282,156,cs),
(322,156,o),
(358,167,o),
(388,187,c),
(464,111,l),
(516,163,l),
(443,238,l),
(463,268,o),
(474,305,o),
(474,347,cs),
(474,389,o),
(463,426,o),
(443,456,c),
(516,531,l),
(464,583,l),
(388,507,l),
(358,527,o),
(322,538,o),
(282,538,cs),
(243,538,o),
(207,527,o),
(177,507,c),
(101,583,l),
(49,531,l),
(122,456,l),
(102,426,o),
(91,389,o),
(91,347,cs),
(91,305,o),
(102,268,o),
(122,238,c),
(49,163,l)
);
},
{
closed = 1;
nodes = (
(217,222,o),
(164,272,o),
(164,347,cs),
(164,422,o),
(217,472,o),
(282,472,cs),
(348,472,o),
(401,422,o),
(401,347,cs),
(401,272,o),
(348,222,o),
(282,222,cs)
);
}
);
width = 565;
}
);
note = currency;
unicode = 164;
},
{
glyphname = yen;
kernRight = yen;
layers = (
{
layerId = m01;
shapes = (
{
closed = 1;
nodes = (
(241,0,l),
(325,0,l),
(325,114,l),
(485,114,l),
(485,178,l),
(325,178,l),
(325,284,l),
(485,284,l),
(485,348,l),
(346,348,l),
(420,467,o),
(487,581,o),
(542,693,c),
(453,693,l),
(403,588,o),
(346,480,o),
(285,382,c),
(222,480,o),
(164,587,o),
(115,693,c),
(23,693,l),
(76,584,o),
(145,466,o),
(219,348,c),
(81,348,l),
(81,284,l),
(241,284,l),
(241,178,l),
(81,178,l),
(81,114,l),
(241,114,l)
);
}
);
width = 565;
}
);
note = yen;
unicode = 165;
},
{
glyphname = brokenbar;
layers = (
{
layerId = m01;
shapes = (
{
closed = 1;
nodes = (
(95,402,l),
(176,402,l),
(176,783,l),
(95,783,l)
);
},
{
closed = 1;
nodes = (
(95,-185,l),
(176,-185,l),
(176,196,l),
(95,196,l)
);
}
);
width = 271;
}
);
note = brokenbar;
unicode = 166;
},
{
glyphname = section;
layers = (
{
layerId = m01;
shapes = (
{
closed = 1;
nodes = (
(347,-109,o),
(423,-58,o),
(423,41,cs),
(423,90,o),
(400,130,o),
(356,157,c),
(405,188,o),
(447,235,o),
(447,300,cs),
(447,411,o),
(363,443,o),
(269,474,cs),
(192,499,o),
(163,521,o),
(163,570,cs),
(163,617,o),
(204,640,o),
(266,640,cs),
(330,640,o),
(372,624,o),
(399,612,c),
(420,681,l),
(393,692,o),
(342,708,o),
(267,708,cs),
(146,708,o),
(81,651,o),
(81,561,cs),
(81,514,o),
(99,482,o),
(137,454,c),
(96,427,o),
(45,382,o),
(45,309,cs),
(45,199,o),
(125,168,o),
(221,135,cs),
(308,106,o),
(341,84,o),
(341,34,cs),
(341,-19,o),
(290,-41,o),
(226,-41,cs),
(148,-41,o),
(112,-26,o),
(70,-9,c),
(50,-76,l),
(83,-92,o),
(138,-109,o),
(222,-109,cs)
);
},
{
closed = 1;
nodes = (
(288,191,o),
(271,197,o),
(258,201,cs),
(181,227,o),
(123,249,o),
(123,317,cs),
(123,366,o),
(154,399,o),
(194,422,c),
(203,419,o),
(217,414,o),
(231,409,cs),
(303,385,o),
(368,361,o),
(368,292,cs),
(368,251,o),
(343,210,o),
(299,186,c)
);
}
);
width = 490;
}
);
note = section;
unicode = 167;
},
{
glyphname = dieresis;
layers = (
{
layerId = m01;
shapes = (
{
closed = 1;
nodes = (
(328,620,o),
(351,641,o),
(351,674,cs),
(351,707,o),
(328,729,o),
(298,729,cs),
(269,729,o),
(245,707,o),
(245,674,cs),
(245,641,o),
(269,620,o),
(298,620,cs)
);
},
{
closed = 1;
nodes = (
(144,620,o),
(168,641,o),
(168,674,cs),
(168,707,o),
(144,729,o),
(114,729,cs),
(85,729,o),
(61,707,o),
(61,674,cs),
(61,641,o),
(85,620,o),
(114,620,cs)
);
}
);
width = 413;
}
);
note = dieresis;
unicode = 168;
},
{
glyphname = copyright;
layers = (
{
layerId = m01;
shapes = (
{
closed = 1;
nodes = (
(590,-15,o),
(751,119,o),
(751,347,cs),
(751,575,o),
(590,708,o),
(410,708,cs),
(229,708,o),
(68,575,o),
(68,347,cs),
(68,119,o),
(229,-15,o),
(410,-15,cs)
);
},
{
closed = 1;
nodes = (
(251,48,o),
(137,168,o),
(137,347,cs),
(137,526,o),
(251,645,o),
(410,645,cs),
(568,645,o),
(682,526,o),
(682,347,cs),
(682,168,o),
(568,48,o),
(410,48,cs)
);
},
{
closed = 1;
nodes = (
(481,146,o),
(526,167,o),
(543,177,c),
(524,235,l),
(507,226,o),
(478,210,o),
(425,210,cs),
(348,210,o),
(306,263,o),
(306,349,cs),
(306,435,o),
(355,484,o),
(422,484,cs),
(471,484,o),
(498,470,o),
(518,459,c),
(540,513,l),
(525,524,o),
(484,548,o),
(419,548,cs),
(319,548,o),
(233,474,o),
(233,348,cs),
(233,220,o),
(310,146,o),
(417,146,cs)
);
}
);
width = 819;
}
);
note = copyright;
unicode = 169;
},
{
glyphname = ordfeminine;
layers = (
{
layerId = m01;
shapes = (
{
closed = 1;
nodes = (
(241,326,o),
(300,334,o),
(333,342,c),
(333,568,ls),
(333,650,o),
(295,705,o),
(189,705,cs),
(145,705,o),
(103,697,o),
(81,690,c),
(90,634,l),
(117,643,o),
(151,647,o),
(187,647,cs),
(258,647,o),
(266,602,o),
(266,557,cs),
(266,548,l),
(243,552,o),
(218,555,o),
(200,555,cs),
(113,555,o),
(41,524,o),
(41,441,cs),
(41,360,o),
(103,326,o),
(195,326,cs)
);
},
{
closed = 1;
nodes = (
(133,382,o),
(109,404,o),
(109,445,cs),
(109,490,o),
(153,503,o),
(206,503,cs),
(228,503,o),
(251,500,o),
(266,497,c),
(266,387,l),
(253,385,o),
(223,382,o),
(196,382,cs)
);
}
);
width = 389;
}
);
note = ordfeminine;
unicode = 170;
},
{
glyphname = guillemotleft;
kernLeft = guilsinglleft;
kernRight = guilsinglleft;
layers = (
{
layerId = m01;
shapes = (
{
closed = 1;
nodes = (
(187,66,l),
(245,98,l),
(132,284,l),
(245,469,l),
(187,502,l),
(32,284,l)
);
},
{
closed = 1;
nodes = (
(385,66,l),
(443,98,l),
(330,284,l),
(443,469,l),
(385,502,l),
(231,284,l)
);
}
);
width = 485;
}
);
note = guillemotleft;
unicode = 171;
},
{
glyphname = logicalnot;
layers = (
{
layerId = m01;
shapes = (
{
closed = 1;
nodes = (
(435,49,l),
(511,49,l),
(511,387,l),
(55,387,l),
(55,315,l),
(435,315,l)
);
}
);
width = 565;
}
);
note = logicalnot;
unicode = 172;
},
{
glyphname = uni00AD;
layers = (
{
layerId = m01;
shapes = (
{
closed = 1;
nodes = (
(27,252,l),
(268,252,l),
(268,331,l),
(27,331,l)
);
}
);
width = 295;
}
);
note = uni00AD;
unicode = 173;
},
{
glyphname = registered;
layers = (
{
layerId = m01;
shapes = (
{
closed = 1;
nodes = (
(590,-15,o),
(751,119,o),
(751,347,cs),
(751,575,o),
(590,708,o),
(410,708,cs),
(229,708,o),
(68,575,o),
(68,347,cs),
(68,119,o),
(229,-15,o),
(410,-15,cs)
);
},
{
closed = 1;
nodes = (
(251,48,o),
(137,168,o),
(137,347,cs),
(137,526,o),
(251,645,o),
(410,645,cs),
(568,645,o),
(682,526,o),
(682,347,cs),
(682,168,o),
(568,48,o),
(410,48,cs)
);
},
{
closed = 1;
nodes = (
(274,155,l),
(338,155,l),
(338,303,l),
(393,303,ls),
(399,303,o),
(406,303,o),
(415,303,c),
(441,271,o),
(475,215,o),
(507,155,c),
(577,155,l),
(548,217,o),
(503,288,o),
(479,317,c),
(527,336,o),
(552,374,o),
(552,420,cs),
(552,502,o),
(493,544,o),
(381,544,cs),
(349,544,o),
(307,540,o),
(274,532,c)
);
},
{
closed = 1;
nodes = (
(338,355,l),
(338,486,l),
(351,487,o),
(368,488,o),
(385,488,cs),
(438,488,o),
(484,471,o),
(484,421,cs),
(484,368,o),
(442,355,o),
(381,355,cs)
);
}
);
width = 819;
}
);
note = registered;
unicode = 174;
},
{
glyphname = macron;
layers = (
{
layerId = m01;
shapes = (
{
closed = 1;
nodes = (
(49,643,l),
(327,643,l),
(327,709,l),
(49,709,l)
);
}
);
width = 376;
}
);
note = macron;
unicode = 175;
},
{
glyphname = degree;
layers = (
{
layerId = m01;
shapes = (
{
closed = 1;
nodes = (
(238,502,o),
(301,552,o),
(301,638,cs),
(301,724,o),
(238,775,o),
(164,775,cs),
(90,775,o),
(27,724,o),
(27,638,cs),
(27,552,o),
(90,502,o),
(164,502,cs)
);
},
{
closed = 1;
nodes = (
(122,559,o),
(88,589,o),
(88,638,cs),
(88,687,o),
(122,718,o),
(164,718,cs),
(206,718,o),
(240,687,o),
(240,638,cs),
(240,589,o),
(206,559,o),
(164,559,cs)
);
}
);
width = 328;
}
);
note = degree;
unicode = 176;
},
{
glyphname = plusminus;
layers = (
{
layerId = m01;
shapes = (
{
closed = 1;
nodes = (
(244,135,l),
(320,135,l),
(320,342,l),
(511,342,l),
(511,413,l),
(320,413,l),
(320,620,l),
(244,620,l),
(244,413,l),
(54,413,l),
(54,342,l),
(244,342,l)
);
},
{
closed = 1;
nodes = (
(54,0,l),
(511,0,l),
(511,72,l),
(54,72,l)
);
}
);
width = 565;
}
);
note = plusminus;
unicode = 177;
},
{
glyphname = uni00B2;
layers = (
{
layerId = m01;
shapes = (
{
closed = 1;
nodes = (
(307,314,l),
(307,371,l),
(124,371,l),
(128,395,o),
(146,420,o),
(205,468,cs),
(249,504,o),
(290,539,o),
(290,597,cs),
(290,669,o),
(247,708,o),
(166,708,cs),
(107,708,o),
(63,682,o),
(37,657,c),
(70,610,l),
(83,623,o),
(119,648,o),
(161,648,cs),
(194,648,o),
(221,635,o),
(221,596,cs),
(221,555,o),
(192,535,o),
(156,503,cs),
(102,456,o),
(49,413,o),
(49,335,cs),
(49,328,o),
(49,321,o),
(50,314,c)
);
}
);
width = 360;
}
);
note = uni00B2;
unicode = 178;
},
{
glyphname = uni00B3;
layers = (
{
layerId = m01;
shapes = (
{
closed = 1;
nodes = (
(261,306,o),
(304,359,o),
(304,423,cs),
(304,476,o),
(274,508,o),
(226,525,c),
(265,543,o),
(283,571,o),
(283,609,cs),
(283,665,o),
(249,708,o),
(157,708,cs),
(103,708,o),
(60,688,o),
(41,674,c),
(65,623,l),
(84,636,o),
(114,651,o),
(154,651,cs),
(192,651,o),
(217,637,o),
(217,602,cs),
(217,557,o),
(176,545,o),
(131,545,cs),
(110,545,l),
(110,491,l),
(130,491,ls),
(187,491,o),
(236,474,o),
(236,425,cs),
(236,390,o),
(216,364,o),
(147,364,cs),
(107,364,o),
(79,373,o),
(54,385,c),
(39,328,l),
(62,317,o),
(100,306,o),
(149,306,cs)
);
}
);
width = 360;
}
);
note = uni00B3;
unicode = 179;
},
{
glyphname = acute;
layers = (
{
layerId = m01;
shapes = (
{
closed = 1;
nodes = (
(133,581,l),
(303,720,l),
(247,779,l),
(92,625,l)
);
}
);
width = 355;
}
);
note = acute;
unicode = 180;
},
{
glyphname = uni03BC;
layers = (
{
layerId = m01;
shapes = (
{
closed = 1;
nodes = (
(82,-181,l),
(165,-181,l),
(165,-81,ls),
(165,-42,o),
(165,-1,o),
(160,37,c),
(187,8,o),
(230,-10,o),
(296,-10,cs),
(388,-10,o),
(455,6,o),
(497,18,c),
(497,519,l),
(413,519,l),
(413,76,l),
(399,72,o),
(355,64,o),
(303,64,cs),
(204,64,o),
(167,111,o),
(167,247,cs),
(167,519,l),
(82,519,l)
);
}
);
width = 579;
}
);
note = uni03BC;
unicode = 181;
},
{
glyphname = paragraph;
layers = (
{
layerId = m01;
shapes = (
{
closed = 1;
nodes = (
(281,-185,l),
(359,-185,l),
(359,627,l),
(386,630,o),
(439,628,o),
(464,623,c),
(464,-185,l),
(541,-185,l),
(541,683,l),
(489,696,o),
(417,699,o),
(366,699,cs),
(173,699,o),
(45,626,o),
(45,479,cs),
(45,342,o),
(134,276,o),
(281,263,c)
);
}
);
width = 638;
}
);
note = paragraph;
unicode = 182;
},
{
glyphname = periodcentered;
kernRight = periodcentered;
layers = (
{
layerId = m01;
shapes = (
{
closed = 1;
nodes = (
(160,231,o),
(187,258,o),
(187,294,cs),
(187,331,o),
(160,358,o),
(123,358,cs),
(86,358,o),
(59,331,o),
(59,294,cs),
(59,258,o),
(86,231,o),
(123,231,cs)
);
}
);
width = 246;
}
);
note = periodcentered;
unicode = 183;
},
{
glyphname = cedilla;
layers = (
{
layerId = m01;
shapes = (
{
closed = 1;
nodes = (
(241,-195,o),
(268,-155,o),
(268,-115,cs),
(268,-77,o),
(246,-54,o),
(208,-37,c),
(214,-21,o),
(228,5,o),
(237,20,c),
(179,20,l),
(171,7,o),
(147,-39,o),
(138,-65,c),
(179,-80,o),
(196,-90,o),
(196,-111,cs),
(195,-130,o),
(181,-139,o),
(156,-139,cs),
(129,-139,o),
(110,-135,o),
(96,-129,c),
(86,-183,l),
(102,-189,o),
(133,-195,o),
(161,-195,cs)
);
}
);
width = 365;
}
);
note = cedilla;
unicode = 184;
},
{
glyphname = uni00B9;
layers = (
{
layerId = m01;
shapes = (
{
closed = 1;
nodes = (
(171,314,l),
(239,314,l),
(239,699,l),
(190,699,l),
(156,663,o),
(105,636,o),
(56,620,c),
(73,567,l),
(97,574,o),
(142,590,o),
(171,610,c)
);
}
);
width = 360;
}
);
note = uni00B9;
unicode = 185;
},
{
glyphname = ordmasculine;
layers = (
{
layerId = m01;
shapes = (
{
closed = 1;
nodes = (
(324,325,o),
(399,400,o),
(399,515,cs),
(399,631,o),
(324,706,o),
(221,706,cs),
(118,706,o),
(43,631,o),
(43,515,cs),
(43,400,o),
(118,325,o),
(221,325,cs)
);
},
{
closed = 1;
nodes = (
(156,386,o),
(115,437,o),
(115,515,cs),
(115,594,o),
(156,645,o),
(221,645,cs),
(286,645,o),
(327,594,o),
(327,515,cs),
(327,437,o),
(286,386,o),
(221,386,cs)
);
}
);
width = 442;
}
);
note = ordmasculine;
unicode = 186;
},
{
glyphname = guillemotright;
kernLeft = guilsinglright;
kernRight = guilsinglright;
layers = (
{
layerId = m01;
shapes = (
{
closed = 1;
nodes = (
(100,66,l),
(255,284,l),
(100,502,l),
(42,469,l),
(155,284,l),
(42,98,l)
);
},
{
closed = 1;
nodes = (
(298,66,l),
(453,284,l),
(298,502,l),
(241,469,l),
(353,284,l),
(241,98,l)
);
}
);
width = 485;
}
);
note = guillemotright;
unicode = 187;
},
{
glyphname = onequarter;
layers = (
{
layerId = m01;
shapes = (
{
closed = 1;
nodes = (
(167,314,l),
(235,314,l),
(235,699,l),
(186,699,l),
(152,663,o),
(101,636,o),
(52,620,c),
(69,567,l),
(93,574,o),
(138,590,o),
(167,610,c)
);
},
{
closed = 1;
nodes = (
(201,0,l),
(284,0,l),
(670,693,l),
(587,693,l)
);
},
{
closed = 1;
nodes = (
(733,1,l),
(795,1,l),
(795,95,l),
(845,95,l),
(845,148,l),
(795,148,l),
(795,387,l),
(736,387,l),
(660,322,o),
(578,199,o),
(545,137,c),
(545,95,l),
(733,95,l)
);
},
{
closed = 1;
nodes = (
(613,148,l),
(640,196,o),
(690,271,o),
(733,313,c),
(733,148,l)
);
}
);
width = 875;
}
);
note = onequarter;
unicode = 188;
},
{
glyphname = onehalf;
layers = (
{
layerId = m01;
shapes = (
{
closed = 1;
nodes = (
(167,314,l),
(235,314,l),
(235,699,l),
(186,699,l),
(152,663,o),
(101,636,o),
(52,620,c),
(69,567,l),
(93,574,o),
(138,590,o),
(167,610,c)
);
},
{
closed = 1;
nodes = (
(179,0,l),
(261,0,l),
(647,693,l),
(565,693,l)
);
},
{
closed = 1;
nodes = (
(822,1,l),
(822,59,l),
(639,59,l),
(643,82,o),
(661,108,o),
(720,155,cs),
(764,191,o),
(805,227,o),
(805,284,cs),
(805,356,o),
(762,396,o),
(681,396,cs),
(622,396,o),
(578,370,o),
(552,345,c),
(585,297,l),
(598,310,o),
(634,336,o),
(676,336,cs),
(709,336,o),
(736,322,o),
(736,284,cs),
(736,243,o),
(707,223,o),
(671,190,cs),
(617,143,o),
(564,100,o),
(564,23,cs),
(564,16,o),
(564,9,o),
(565,1,c)
);
}
);
width = 875;
}
);
note = onehalf;
unicode = 189;
},
{
glyphname = threequarters;
layers = (
{
layerId = m01;
shapes = (
{
closed = 1;
nodes = (
(263,306,o),
(305,359,o),
(305,423,cs),
(305,476,o),
(275,508,o),
(227,525,c),
(266,543,o),
(284,571,o),
(284,609,cs),
(284,665,o),
(250,708,o),
(159,708,cs),
(105,708,o),
(61,688,o),
(42,674,c),
(66,623,l),
(86,636,o),
(115,651,o),
(155,651,cs),
(194,651,o),
(218,637,o),
(218,602,cs),
(218,557,o),
(177,545,o),
(133,545,cs),
(112,545,l),
(112,491,l),
(131,491,ls),
(188,491,o),
(237,474,o),
(237,425,cs),
(237,390,o),
(217,364,o),
(148,364,cs),
(108,364,o),
(80,373,o),
(55,385,c),
(40,328,l),
(63,317,o),
(101,306,o),
(151,306,cs)
);
},
{
closed = 1;
nodes = (
(218,0,l),
(300,0,l),
(686,693,l),
(604,693,l)
);
},
{
closed = 1;
nodes = (
(733,1,l),
(795,1,l),
(795,95,l),
(845,95,l),
(845,148,l),
(795,148,l),
(795,387,l),
(736,387,l),
(660,322,o),
(578,199,o),
(545,137,c),
(545,95,l),
(733,95,l)
);
},
{
closed = 1;
nodes = (
(613,148,l),
(640,196,o),
(690,271,o),
(733,313,c),
(733,148,l)
);
}
);
width = 875;
}
);
note = threequarters;
unicode = 190;
},
{
glyphname = questiondown;
kernRight = questiondown;
layers = (
{
layerId = m01;
shapes = (
{
closed = 1;
nodes = (
(264,392,o),
(291,419,o),
(291,455,cs),
(291,492,o),
(264,519,o),
(227,519,cs),
(190,519,o),
(163,492,o),
(163,455,cs),
(163,419,o),
(190,392,o),
(227,392,cs)
);
},
{
closed = 1;
nodes = (
(285,-189,o),
(346,-170,o),
(380,-150,c),
(355,-83,l),
(315,-104,o),
(275,-115,o),
(229,-115,cs),
(167,-115,o),
(118,-93,o),
(118,-33,cs),
(118,71,o),
(271,124,o),
(271,253,cs),
(271,267,o),
(270,279,o),
(267,292,c),
(198,292,l),
(199,285,o),
(199,281,o),
(199,273,cs),
(199,145,o),
(29,98,o),
(29,-39,cs),
(29,-104,o),
(70,-189,o),
(221,-189,cs)
);
}
);
width = 397;
}
);
note = questiondown;
unicode = 191;
},
{
glyphname = Agrave;
kernLeft = A;
kernRight = A;
layers = (
{
layerId = m01;
shapes = (
{
closed = 1;
nodes = (
(364,738,l),
(405,782,l),
(251,936,l),
(195,877,l)
);
},
{
closed = 1;
nodes = (
(102,0,l),
(124,63,o),
(146,123,o),
(167,181,c),
(488,181,l),
(508,123,o),
(531,63,o),
(553,0,c),
(649,0,l),
(542,291,o),
(466,492,o),
(370,693,c),
(289,693,l),
(192,492,o),
(116,291,o),
(10,0,c)
);
},
{
closed = 1;
nodes = (
(191,254,l),
(240,386,o),
(285,500,o),
(327,597,c),
(370,500,o),
(415,386,o),
(464,254,c)
);
}
);
width = 659;
}
);
note = Agrave;
unicode = 192;
},
{
glyphname = Aacute;
kernLeft = A;
kernRight = A;
layers = (
{
layerId = m01;
shapes = (
{
closed = 1;
nodes = (
(293,738,l),
(462,877,l),
(406,936,l),
(251,782,l)
);
},
{
closed = 1;
nodes = (
(102,0,l),
(124,63,o),
(146,123,o),
(167,181,c),
(488,181,l),
(508,123,o),
(531,63,o),
(553,0,c),
(649,0,l),
(542,291,o),
(466,492,o),
(370,693,c),
(289,693,l),
(192,492,o),
(116,291,o),
(10,0,c)
);
},
{
closed = 1;
nodes = (
(191,254,l),
(240,386,o),
(285,500,o),
(327,597,c),
(370,500,o),
(415,386,o),
(464,254,c)
);
}
);
width = 659;
}
);
note = Aacute;
unicode = 193;
},
{
glyphname = Acircumflex;
kernLeft = A;
kernRight = A;
layers = (
{
layerId = m01;
shapes = (
{
closed = 1;
nodes = (
(226,741,l),
(329,833,l),
(432,741,l),
(466,780,l),
(329,925,l),
(191,780,l)
);
},
{
closed = 1;
nodes = (
(102,0,l),
(124,63,o),
(146,123,o),
(167,181,c),
(488,181,l),
(508,123,o),
(531,63,o),
(553,0,c),
(649,0,l),
(542,291,o),
(466,492,o),
(370,693,c),
(289,693,l),
(192,492,o),
(116,291,o),
(10,0,c)
);
},
{
closed = 1;
nodes = (
(191,254,l),
(240,386,o),
(285,500,o),
(327,597,c),
(370,500,o),
(415,386,o),
(464,254,c)
);
}
);
width = 659;
}
);
note = Acircumflex;
unicode = 194;
},
{
glyphname = Atilde;
kernLeft = A;
kernRight = A;
layers = (
{
layerId = m01;
shapes = (
{
closed = 1;
nodes = (
(212,775,l),
(224,798,o),
(239,820,o),
(267,820,cs),
(309,820,o),
(341,782,o),
(394,782,cs),
(449,782,o),
(480,833,o),
(495,867,c),
(449,892,l),
(436,869,o),
(422,847,o),
(394,847,cs),
(352,847,o),
(320,885,o),
(267,885,cs),
(212,885,o),
(180,834,o),
(166,800,c)
);
},
{
closed = 1;
nodes = (
(102,0,l),
(124,63,o),
(146,123,o),
(167,181,c),
(488,181,l),
(508,123,o),
(531,63,o),
(553,0,c),
(649,0,l),
(542,291,o),
(466,492,o),
(370,693,c),
(289,693,l),
(192,492,o),
(116,291,o),
(10,0,c)
);
},
{
closed = 1;
nodes = (
(191,254,l),
(240,386,o),
(285,500,o),
(327,597,c),
(370,500,o),
(415,386,o),
(464,254,c)
);
}
);
width = 659;
}
);
note = Atilde;
unicode = 195;
},
{
glyphname = Adieresis;
kernLeft = A;
kernRight = A;
layers = (
{
layerId = m01;
shapes = (
{
closed = 1;
nodes = (
(448,777,o),
(472,798,o),
(472,831,cs),
(472,864,o),
(448,886,o),
(419,886,cs),
(389,886,o),
(366,864,o),
(366,831,cs),
(366,798,o),
(389,777,o),
(419,777,cs)
);
},
{
closed = 1;
nodes = (
(265,777,o),
(288,798,o),
(288,831,cs),
(288,864,o),
(265,886,o),
(235,886,cs),
(206,886,o),
(182,864,o),
(182,831,cs),
(182,798,o),
(206,777,o),
(235,777,cs)
);
},
{
closed = 1;
nodes = (
(102,0,l),
(124,63,o),
(146,123,o),
(167,181,c),
(488,181,l),
(508,123,o),
(531,63,o),
(553,0,c),
(649,0,l),
(542,291,o),
(466,492,o),
(370,693,c),
(289,693,l),
(192,492,o),
(116,291,o),
(10,0,c)
);
},
{
closed = 1;
nodes = (
(191,254,l),
(240,386,o),
(285,500,o),
(327,597,c),
(370,500,o),
(415,386,o),
(464,254,c)
);
}
);
width = 659;
}
);
note = Adieresis;
unicode = 196;
},
{
glyphname = Aring;
kernLeft = A;
kernRight = A;
layers = (
{
layerId = m01;
shapes = (
{
closed = 1;
nodes = (
(102,0,l),
(124,63,o),
(146,123,o),
(167,181,c),
(488,181,l),
(508,123,o),
(531,63,o),
(553,0,c),
(649,0,l),
(547,276,o),
(474,471,o),
(384,662,c),
(411,679,o),
(430,709,o),
(430,748,cs),
(430,809,o),
(383,847,o),
(329,847,cs),
(275,847,o),
(228,809,o),
(228,748,cs),
(228,709,o),
(246,679,o),
(274,662,c),
(184,471,o),
(110,276,o),
(10,0,c)
);
},
{
closed = 1;
nodes = (
(299,692,o),
(275,711,o),
(275,748,cs),
(275,783,o),
(299,804,o),
(329,804,cs),
(359,804,o),
(384,783,o),
(384,748,cs),
(384,711,o),
(359,692,o),
(329,692,cs)
);
},
{
closed = 1;
nodes = (
(191,254,l),
(240,386,o),
(285,500,o),
(327,597,c),
(370,500,o),
(415,386,o),
(464,254,c)
);
}
);
width = 659;
}
);
note = Aring;
unicode = 197;
},
{
glyphname = AE;
kernLeft = AE;
kernRight = E;
layers = (
{
layerId = m01;
shapes = (
{
closed = 1;
nodes = (
(100,0,l),
(130,61,o),
(165,124,o),
(198,184,c),
(470,184,l),
(470,0,l),
(895,0,l),
(895,76,l),
(557,76,l),
(557,326,l),
(834,326,l),
(834,401,l),
(557,401,l),
(557,617,l),
(870,617,l),
(870,693,l),
(434,693,l),
(295,501,o),
(156,287,o),
(7,0,c)
);
},
{
closed = 1;
nodes = (
(238,257,l),
(309,379,o),
(389,506,o),
(470,615,c),
(470,257,l)
);
}
);
width = 933;
}
);
note = AE;
unicode = 198;
},
{
glyphname = Ccedilla;
kernLeft = C;
kernRight = C;
layers = (
{
layerId = m01;
shapes = (
{
closed = 1;
nodes = (
(410,-195,o),
(437,-155,o),
(437,-115,cs),
(437,-77,o),
(415,-54,o),
(377,-37,c),
(379,-30,o),
(383,-22,o),
(387,-15,c),
(391,-15,ls),
(497,-13,o),
(568,14,o),
(592,29,c),
(567,102,l),
(536,85,o),
(479,64,o),
(390,64,cs),
(233,64,o),
(152,177,o),
(152,347,cs),
(152,521,o),
(242,630,o),
(397,630,cs),
(471,630,o),
(523,607,o),
(558,586,c),
(586,661,l),
(562,675,o),
(494,708,o),
(387,708,cs),
(211,708,o),
(59,579,o),
(59,347,cs),
(59,136,o),
(169,11,o),
(330,-11,c),
(321,-29,o),
(312,-50,o),
(307,-65,c),
(348,-80,o),
(365,-90,o),
(364,-111,cs),
(364,-130,o),
(350,-139,o),
(325,-139,cs),
(298,-139,o),
(279,-135,o),
(265,-129,c),
(255,-183,l),
(271,-189,o),
(302,-195,o),
(330,-195,cs)
);
}
);
width = 618;
}
);
note = Ccedilla;
unicode = 199;
},
{
glyphname = Egrave;
kernLeft = E;
kernRight = E;
layers = (
{
layerId = m01;
shapes = (
{
closed = 1;
nodes = (
(331,738,l),
(372,782,l),
(217,936,l),
(161,877,l)
);
},
{
closed = 1;
nodes = (
(88,0,l),
(529,0,l),
(529,76,l),
(176,76,l),
(176,326,l),
(468,326,l),
(468,401,l),
(176,401,l),
(176,617,l),
(503,617,l),
(503,693,l),
(88,693,l)
);
}
);
width = 567;
}
);
note = Egrave;
unicode = 200;
},
{
glyphname = Eacute;
kernLeft = E;
kernRight = E;
layers = (
{
layerId = m01;
shapes = (
{
closed = 1;
nodes = (
(261,738,l),
(431,877,l),
(374,936,l),
(220,782,l)
);
},
{
closed = 1;
nodes = (
(88,0,l),
(529,0,l),
(529,76,l),
(176,76,l),
(176,326,l),
(468,326,l),
(468,401,l),
(176,401,l),
(176,617,l),
(503,617,l),
(503,693,l),
(88,693,l)
);
}
);
width = 567;
}
);
note = Eacute;
unicode = 201;
},
{
glyphname = Ecircumflex;
kernLeft = E;
kernRight = E;
layers = (
{
layerId = m01;
shapes = (
{
closed = 1;
nodes = (
(193,741,l),
(296,833,l),
(399,741,l),
(433,780,l),
(296,925,l),
(158,780,l)
);
},
{
closed = 1;
nodes = (
(88,0,l),
(529,0,l),
(529,76,l),
(176,76,l),
(176,326,l),
(468,326,l),
(468,401,l),
(176,401,l),
(176,617,l),
(503,617,l),
(503,693,l),
(88,693,l)
);
}
);
width = 567;
}
);
note = Ecircumflex;
unicode = 202;
},
{
glyphname = Edieresis;
kernLeft = E;
kernRight = E;
layers = (
{
layerId = m01;
shapes = (
{
closed = 1;
nodes = (
(416,777,o),
(440,798,o),
(440,831,cs),
(440,864,o),
(416,886,o),
(387,886,cs),
(357,886,o),
(334,864,o),
(334,831,cs),
(334,798,o),
(357,777,o),
(387,777,cs)
);
},
{
closed = 1;
nodes = (
(233,777,o),
(256,798,o),
(256,831,cs),
(256,864,o),
(233,886,o),
(203,886,cs),
(174,886,o),
(150,864,o),
(150,831,cs),
(150,798,o),
(174,777,o),
(203,777,cs)
);
},
{
closed = 1;
nodes = (
(88,0,l),
(529,0,l),
(529,76,l),
(176,76,l),
(176,326,l),
(468,326,l),
(468,401,l),
(176,401,l),
(176,617,l),
(503,617,l),
(503,693,l),
(88,693,l)
);
}
);
width = 567;
}
);
note = Edieresis;
unicode = 203;
},
{
glyphname = Igrave;
kernLeft = D;
layers = (
{
layerId = m01;
shapes = (
{
closed = 1;
nodes = (
(168,738,l),
(209,782,l),
(54,936,l),
(-2,877,l)
);
},
{
closed = 1;
nodes = (
(88,0,l),
(176,0,l),
(176,693,l),
(88,693,l)
);
}
);
width = 264;
}
);
note = Igrave;
unicode = 204;
},
{
glyphname = Iacute;
kernLeft = D;
layers = (
{
layerId = m01;
shapes = (
{
closed = 1;
nodes = (
(98,738,l),
(268,877,l),
(211,936,l),
(57,782,l)
);
},
{
closed = 1;
nodes = (
(88,0,l),
(176,0,l),
(176,693,l),
(88,693,l)
);
}
);
width = 264;
}
);
note = Iacute;
unicode = 205;
},
{
glyphname = Icircumflex;
kernLeft = D;
layers = (
{
layerId = m01;
shapes = (
{
closed = 1;
nodes = (
(30,741,l),
(133,833,l),
(236,741,l),
(271,780,l),
(133,925,l),
(-4,780,l)
);
},
{
closed = 1;
nodes = (
(88,0,l),
(176,0,l),
(176,693,l),
(88,693,l)
);
}
);
width = 264;
}
);
note = Icircumflex;
unicode = 206;
},
{
glyphname = Idieresis;
kernLeft = D;
layers = (
{
layerId = m01;
shapes = (
{
closed = 1;
nodes = (
(254,777,o),
(278,798,o),
(278,831,cs),
(278,864,o),
(254,886,o),
(225,886,cs),
(196,886,o),
(172,864,o),
(172,831,cs),
(172,798,o),
(196,777,o),
(225,777,cs)
);
},
{
closed = 1;
nodes = (
(71,777,o),
(94,798,o),
(94,831,cs),
(94,864,o),
(71,886,o),
(41,886,cs),
(12,886,o),
(-12,864,o),
(-12,831,cs),
(-12,798,o),
(12,777,o),
(41,777,cs)
);
},
{
closed = 1;
nodes = (
(88,0,l),
(176,0,l),
(176,693,l),
(88,693,l)
);
}
);
width = 264;
}
);
note = Idieresis;
unicode = 207;
},
{
glyphname = Eth;
kernLeft = D;
kernRight = D;
layers = (
{
layerId = m01;
shapes = (
{
closed = 1;
nodes = (
(508,-7,o),
(664,110,o),
(664,347,cs),
(664,586,o),
(507,699,o),
(280,699,cs),
(224,699,o),
(153,694,o),
(101,681,c),
(101,396,l),
(21,396,l),
(21,327,l),
(101,327,l),
(101,11,l),
(153,-1,o),
(223,-7,o),
(279,-7,cs)
);
},
{
closed = 1;
nodes = (
(225,70,o),
(199,74,o),
(189,75,c),
(189,327,l),
(320,327,l),
(320,396,l),
(189,396,l),
(189,617,l),
(200,619,o),
(228,623,o),
(288,623,cs),
(477,623,o),
(572,520,o),
(572,347,cs),
(572,175,o),
(476,70,o),
(287,70,cs)
);
}
);
width = 723;
}
);
note = Eth;
unicode = 208;
},
{
glyphname = Ntilde;
kernLeft = D;
layers = (
{
layerId = m01;
shapes = (
{
closed = 1;
nodes = (
(242,775,l),
(254,798,o),
(269,820,o),
(297,820,cs),
(339,820,o),
(371,782,o),
(424,782,cs),
(479,782,o),
(511,833,o),
(525,867,c),
(479,892,l),
(466,869,o),
(452,847,o),
(424,847,cs),
(382,847,o),
(350,885,o),
(297,885,cs),
(242,885,o),
(210,834,o),
(196,800,c)
);
},
{
closed = 1;
nodes = (
(88,0,l),
(175,0,l),
(175,554,l),
(292,417,o),
(478,144,o),
(558,0,c),
(632,0,l),
(632,693,l),
(545,693,l),
(545,165,l),
(459,312,o),
(284,555,o),
(158,693,c),
(88,693,l)
);
}
);
width = 720;
}
);
note = Ntilde;
unicode = 209;
},
{
glyphname = Ograve;
kernLeft = O;
kernRight = O;
layers = (
{
layerId = m01;
shapes = (
{
closed = 1;
nodes = (
(424,738,l),
(465,782,l),
(311,936,l),
(254,877,l)
);
},
{
closed = 1;
nodes = (
(569,-15,o),
(718,109,o),
(718,347,cs),
(718,585,o),
(567,708,o),
(389,708,cs),
(212,708,o),
(59,585,o),
(59,347,cs),
(59,109,o),
(210,-15,o),
(389,-15,cs)
);
},
{
closed = 1;
nodes = (
(244,64,o),
(152,173,o),
(152,347,cs),
(152,521,o),
(244,630,o),
(389,630,cs),
(534,630,o),
(626,522,o),
(626,347,cs),
(626,173,o),
(534,64,o),
(389,64,cs)
);
}
);
width = 778;
}
);
note = Ograve;
unicode = 210;
},
{
glyphname = Oacute;
kernLeft = O;
kernRight = O;
layers = (
{
layerId = m01;
shapes = (
{
closed = 1;
nodes = (
(353,738,l),
(522,877,l),
(466,936,l),
(312,782,l)
);
},
{
closed = 1;
nodes = (
(569,-15,o),
(718,109,o),
(718,347,cs),
(718,585,o),
(567,708,o),
(389,708,cs),
(212,708,o),
(59,585,o),
(59,347,cs),
(59,109,o),
(210,-15,o),
(389,-15,cs)
);
},
{
closed = 1;
nodes = (
(244,64,o),
(152,173,o),
(152,347,cs),
(152,521,o),
(244,630,o),
(389,630,cs),
(534,630,o),
(626,522,o),
(626,347,cs),
(626,173,o),
(534,64,o),
(389,64,cs)
);
}
);
width = 778;
}
);
note = Oacute;
unicode = 211;
},
{
glyphname = Ocircumflex;
kernLeft = O;
kernRight = O;
layers = (
{
layerId = m01;
shapes = (
{
closed = 1;
nodes = (
(286,741,l),
(389,833,l),
(492,741,l),
(526,780,l),
(389,925,l),
(251,780,l)
);
},
{
closed = 1;
nodes = (
(569,-15,o),
(718,109,o),
(718,347,cs),
(718,585,o),
(567,708,o),
(389,708,cs),
(212,708,o),
(59,585,o),
(59,347,cs),
(59,109,o),
(210,-15,o),
(389,-15,cs)
);
},
{
closed = 1;
nodes = (
(244,64,o),
(152,173,o),
(152,347,cs),
(152,521,o),
(244,630,o),
(389,630,cs),
(534,630,o),
(626,522,o),
(626,347,cs),
(626,173,o),
(534,64,o),
(389,64,cs)
);
}
);
width = 778;
}
);
note = Ocircumflex;
unicode = 212;
},
{
glyphname = Otilde;
kernLeft = O;
kernRight = O;
layers = (
{
layerId = m01;
shapes = (
{
closed = 1;
nodes = (
(271,775,l),
(284,798,o),
(298,820,o),
(326,820,cs),
(368,820,o),
(400,782,o),
(453,782,cs),
(508,782,o),
(540,833,o),
(554,867,c),
(508,892,l),
(496,869,o),
(481,847,o),
(453,847,cs),
(412,847,o),
(380,885,o),
(326,885,cs),
(271,885,o),
(240,834,o),
(225,800,c)
);
},
{
closed = 1;
nodes = (
(569,-15,o),
(718,109,o),
(718,347,cs),
(718,585,o),
(567,708,o),
(389,708,cs),
(212,708,o),
(59,585,o),
(59,347,cs),
(59,109,o),
(210,-15,o),
(389,-15,cs)
);
},
{
closed = 1;
nodes = (
(244,64,o),
(152,173,o),
(152,347,cs),
(152,521,o),
(244,630,o),
(389,630,cs),
(534,630,o),
(626,522,o),
(626,347,cs),
(626,173,o),
(534,64,o),
(389,64,cs)
);
}
);
width = 778;
}
);
note = Otilde;
unicode = 213;
},
{
glyphname = Odieresis;
kernLeft = O;
kernRight = O;
layers = (
{
layerId = m01;
shapes = (
{
closed = 1;
nodes = (
(509,777,o),
(532,798,o),
(532,831,cs),
(532,864,o),
(509,886,o),
(479,886,cs),
(450,886,o),
(426,864,o),
(426,831,cs),
(426,798,o),
(450,777,o),
(479,777,cs)
);
},
{
closed = 1;
nodes = (
(325,777,o),
(349,798,o),
(349,831,cs),
(349,864,o),
(325,886,o),
(295,886,cs),
(266,886,o),
(242,864,o),
(242,831,cs),
(242,798,o),
(266,777,o),
(295,777,cs)
);
},
{
closed = 1;
nodes = (
(569,-15,o),
(718,109,o),
(718,347,cs),
(718,585,o),
(567,708,o),
(389,708,cs),
(212,708,o),
(59,585,o),
(59,347,cs),
(59,109,o),
(210,-15,o),
(389,-15,cs)
);
},
{
closed = 1;
nodes = (
(244,64,o),
(152,173,o),
(152,347,cs),
(152,521,o),
(244,630,o),
(389,630,cs),
(534,630,o),
(626,522,o),
(626,347,cs),
(626,173,o),
(534,64,o),
(389,64,cs)
);
}
);
width = 778;
}
);
note = Odieresis;
unicode = 214;
},
{
glyphname = multiply;
layers = (
{
layerId = m01;
shapes = (
{
closed = 1;
nodes = (
(134,92,l),
(282,242,l),
(432,92,l),
(482,142,l),
(332,291,l),
(482,440,l),
(432,490,l),
(282,341,l),
(134,490,l),
(84,440,l),
(233,291,l),
(84,142,l)
);
}
);
width = 565;
}
);
note = multiply;
unicode = 215;
},
{
glyphname = Oslash;
kernLeft = O;
kernRight = O;
layers = (
{
layerId = m01;
shapes = (
{
closed = 1;
nodes = (
(139,-37,l),
(199,42,l),
(253,4,o),
(319,-15,o),
(389,-15,cs),
(569,-15,o),
(718,109,o),
(718,347,cs),
(718,457,o),
(686,543,o),
(633,603,c),
(699,688,l),
(642,730,l),
(580,650,l),
(525,689,o),
(459,708,o),
(389,708,cs),
(212,708,o),
(59,585,o),
(59,347,cs),
(59,235,o),
(92,148,o),
(146,88,c),
(82,6,l)
);
},
{
closed = 1;
nodes = (
(202,160,l),
(170,207,o),
(152,271,o),
(152,347,cs),
(152,521,o),
(244,630,o),
(389,630,cs),
(444,630,o),
(491,614,o),
(529,584,c)
);
},
{
closed = 1;
nodes = (
(334,64,o),
(287,78,o),
(249,107,c),
(577,532,l),
(609,485,o),
(626,422,o),
(626,347,cs),
(626,173,o),
(534,64,o),
(389,64,cs)
);
}
);
width = 778;
}
);
note = Oslash;
unicode = 216;
},
{
glyphname = Ugrave;
kernLeft = U;
kernRight = U;
layers = (
{
layerId = m01;
shapes = (
{
closed = 1;
nodes = (
(373,738,l),
(415,782,l),
(260,936,l),
(204,877,l)
);
},
{
closed = 1;
nodes = (
(530,-15,o),
(603,103,o),
(603,258,cs),
(603,693,l),
(515,693,l),
(515,268,ls),
(515,125,o),
(446,63,o),
(343,63,cs),
(240,63,o),
(171,125,o),
(171,268,cs),
(171,693,l),
(83,693,l),
(83,258,ls),
(83,104,o),
(155,-15,o),
(343,-15,cs)
);
}
);
width = 686;
}
);
note = Ugrave;
unicode = 217;
},
{
glyphname = Uacute;
kernLeft = U;
kernRight = U;
layers = (
{
layerId = m01;
shapes = (
{
closed = 1;
nodes = (
(311,738,l),
(481,877,l),
(424,936,l),
(270,782,l)
);
},
{
closed = 1;
nodes = (
(530,-15,o),
(603,103,o),
(603,258,cs),
(603,693,l),
(515,693,l),
(515,268,ls),
(515,125,o),
(446,63,o),
(343,63,cs),
(240,63,o),
(171,125,o),
(171,268,cs),
(171,693,l),
(83,693,l),
(83,258,ls),
(83,104,o),
(155,-15,o),
(343,-15,cs)
);
}
);
width = 686;
}
);
note = Uacute;
unicode = 218;
},
{
glyphname = Ucircumflex;
kernLeft = U;
kernRight = U;
layers = (
{
layerId = m01;
shapes = (
{
closed = 1;
nodes = (
(240,741,l),
(343,833,l),
(446,741,l),
(480,780,l),
(343,925,l),
(205,780,l)
);
},
{
closed = 1;
nodes = (
(530,-15,o),
(603,103,o),
(603,258,cs),
(603,693,l),
(515,693,l),
(515,268,ls),
(515,125,o),
(446,63,o),
(343,63,cs),
(240,63,o),
(171,125,o),
(171,268,cs),
(171,693,l),
(83,693,l),
(83,258,ls),
(83,104,o),
(155,-15,o),
(343,-15,cs)
);
}
);
width = 686;
}
);
note = Ucircumflex;
unicode = 219;
},
{
glyphname = Udieresis;
kernLeft = U;
kernRight = U;
layers = (
{
layerId = m01;
shapes = (
{
closed = 1;
nodes = (
(464,777,o),
(488,798,o),
(488,831,cs),
(488,864,o),
(464,886,o),
(435,886,cs),
(406,886,o),
(382,864,o),
(382,831,cs),
(382,798,o),
(406,777,o),
(435,777,cs)
);
},
{
closed = 1;
nodes = (
(281,777,o),
(304,798,o),
(304,831,cs),
(304,864,o),
(281,886,o),
(251,886,cs),
(222,886,o),
(198,864,o),
(198,831,cs),
(198,798,o),
(222,777,o),
(251,777,cs)
);
},
{
closed = 1;
nodes = (
(530,-15,o),
(603,103,o),
(603,258,cs),
(603,693,l),
(515,693,l),
(515,268,ls),
(515,125,o),
(446,63,o),
(343,63,cs),
(240,63,o),
(171,125,o),
(171,268,cs),
(171,693,l),
(83,693,l),
(83,258,ls),
(83,104,o),
(155,-15,o),
(343,-15,cs)
);
}
);
width = 686;
}
);
note = Udieresis;
unicode = 220;
},
{
glyphname = Yacute;
kernLeft = Y;
kernRight = Y;
layers = (
{
layerId = m01;
shapes = (
{
closed = 1;
nodes = (
(264,738,l),
(434,877,l),
(378,936,l),
(223,782,l)
);
},
{
closed = 1;
nodes = (
(251,0,l),
(340,0,l),
(340,282,l),
(431,423,o),
(510,562,o),
(581,693,c),
(485,693,l),
(431,582,o),
(365,463,o),
(298,357,c),
(229,463,o),
(164,582,o),
(111,693,c),
(9,693,l),
(79,561,o),
(158,423,o),
(251,280,c)
);
}
);
width = 590;
}
);
note = Yacute;
unicode = 221;
},
{
glyphname = Thorn;
kernLeft = Thorn;
kernRight = Thorn;
layers = (
{
layerId = m01;
shapes = (
{
closed = 1;
nodes = (
(88,0,l),
(176,0,l),
(176,141,l),
(260,141,ls),
(453,141,o),
(568,202,o),
(568,362,cs),
(568,505,o),
(466,581,o),
(273,581,cs),
(244,581,o),
(197,578,o),
(176,575,c),
(176,693,l),
(88,693,l)
);
},
{
closed = 1;
nodes = (
(176,217,l),
(176,500,l),
(197,502,o),
(231,505,o),
(273,505,cs),
(381,505,o),
(476,474,o),
(476,363,cs),
(476,245,o),
(391,217,o),
(253,217,cs)
);
}
);
width = 605;
}
);
note = Thorn;
unicode = 222;
},
{
glyphname = germandbls;
kernLeft = germandbls;
kernRight = germandbls;
layers = (
{
layerId = m01;
shapes = (
{
closed = 1;
nodes = (
(506,-12,o),
(576,46,o),
(576,150,cs),
(576,250,o),
(517,286,o),
(444,321,cs),
(406,340,o),
(365,358,o),
(365,396,cs),
(365,427,o),
(382,445,o),
(417,482,cs),
(444,511,o),
(487,551,o),
(487,617,cs),
(487,709,o),
(428,776,o),
(292,776,cs),
(160,776,o),
(82,689,o),
(82,557,cs),
(82,0,l),
(166,0,l),
(166,554,ls),
(166,646,o),
(205,703,o),
(299,703,cs),
(364,703,o),
(405,666,o),
(405,609,cs),
(405,564,o),
(383,542,o),
(346,504,cs),
(312,467,o),
(282,435,o),
(282,387,cs),
(282,332,o),
(302,307,o),
(387,264,cs),
(459,228,o),
(490,202,o),
(490,149,cs),
(490,94,o),
(453,60,o),
(387,60,cs),
(319,60,o),
(277,81,o),
(263,88,c),
(247,14,l),
(263,7,o),
(312,-12,o),
(378,-12,cs)
);
}
);
width = 610;
}
);
note = germandbls;
unicode = 223;
},
{
glyphname = agrave;
kernLeft = a;
kernRight = a;
layers = (
{
layerId = m01;
shapes = (
{
closed = 1;
nodes = (
(296,581,l),
(338,625,l),
(183,779,l),
(127,720,l)
);
},
{
closed = 1;
nodes = (
(334,-11,o),
(413,5,o),
(443,13,c),
(443,335,ls),
(443,450,o),
(393,532,o),
(247,532,cs),
(180,532,o),
(126,520,o),
(100,509,c),
(111,437,l),
(133,446,o),
(170,458,o),
(240,458,cs),
(341,458,o),
(360,395,o),
(360,328,cs),
(360,300,l),
(348,305,o),
(301,314,o),
(263,314,cs),
(140,314,o),
(45,268,o),
(45,154,cs),
(45,34,o),
(129,-11,o),
(243,-11,cs)
);
},
{
closed = 1;
nodes = (
(178,60,o),
(131,84,o),
(131,154,cs),
(131,233,o),
(206,248,o),
(268,248,cs),
(315,248,o),
(346,239,o),
(360,234,c),
(360,68,l),
(335,63,o),
(299,60,o),
(254,60,cs)
);
}
);
width = 519;
}
);
note = agrave;
unicode = 224;
},
{
glyphname = aacute;
kernLeft = a;
kernRight = a;
layers = (
{
layerId = m01;
shapes = (
{
closed = 1;
nodes = (
(228,581,l),
(398,720,l),
(341,779,l),
(187,625,l)
);
},
{
closed = 1;
nodes = (
(334,-11,o),
(413,5,o),
(443,13,c),
(443,335,ls),
(443,450,o),
(393,532,o),
(247,532,cs),
(180,532,o),
(126,520,o),
(100,509,c),
(111,437,l),
(133,446,o),
(170,458,o),
(240,458,cs),
(341,458,o),
(360,395,o),
(360,328,cs),
(360,300,l),
(348,305,o),
(301,314,o),
(263,314,cs),
(140,314,o),
(45,268,o),
(45,154,cs),
(45,34,o),
(129,-11,o),
(243,-11,cs)
);
},
{
closed = 1;
nodes = (
(178,60,o),
(131,84,o),
(131,154,cs),
(131,233,o),
(206,248,o),
(268,248,cs),
(315,248,o),
(346,239,o),
(360,234,c),
(360,68,l),
(335,63,o),
(299,60,o),
(254,60,cs)
);
}
);
width = 519;
}
);
note = aacute;
unicode = 225;
},
{
glyphname = acircumflex;
kernLeft = a;
kernRight = a;
layers = (
{
layerId = m01;
shapes = (
{
closed = 1;
nodes = (
(157,583,l),
(260,674,l),
(363,583,l),
(398,622,l),
(260,767,l),
(122,622,l)
);
},
{
closed = 1;
nodes = (
(334,-11,o),
(413,5,o),
(443,13,c),
(443,335,ls),
(443,450,o),
(393,532,o),
(247,532,cs),
(180,532,o),
(126,520,o),
(100,509,c),
(111,437,l),
(133,446,o),
(170,458,o),
(240,458,cs),
(341,458,o),
(360,395,o),
(360,328,cs),
(360,300,l),
(348,305,o),
(301,314,o),
(263,314,cs),
(140,314,o),
(45,268,o),
(45,154,cs),
(45,34,o),
(129,-11,o),
(243,-11,cs)
);
},
{
closed = 1;
nodes = (
(178,60,o),
(131,84,o),
(131,154,cs),
(131,233,o),
(206,248,o),
(268,248,cs),
(315,248,o),
(346,239,o),
(360,234,c),
(360,68,l),
(335,63,o),
(299,60,o),
(254,60,cs)
);
}
);
width = 519;
}
);
note = acircumflex;
unicode = 226;
},
{
glyphname = atilde;
kernLeft = a;
kernRight = a;
layers = (
{
layerId = m01;
shapes = (
{
closed = 1;
nodes = (
(144,617,l),
(157,640,o),
(171,662,o),
(199,662,cs),
(241,662,o),
(273,624,o),
(326,624,cs),
(381,624,o),
(413,675,o),
(427,709,c),
(381,734,l),
(369,711,o),
(354,689,o),
(326,689,cs),
(285,689,o),
(253,727,o),
(199,727,cs),
(144,727,o),
(113,676,o),
(98,642,c)
);
},
{
closed = 1;
nodes = (
(334,-11,o),
(413,5,o),
(443,13,c),
(443,335,ls),
(443,450,o),
(393,532,o),
(247,532,cs),
(180,532,o),
(126,520,o),
(100,509,c),
(111,437,l),
(133,446,o),
(170,458,o),
(240,458,cs),
(341,458,o),
(360,395,o),
(360,328,cs),
(360,300,l),
(348,305,o),
(301,314,o),
(263,314,cs),
(140,314,o),
(45,268,o),
(45,154,cs),
(45,34,o),
(129,-11,o),
(243,-11,cs)
);
},
{
closed = 1;
nodes = (
(178,60,o),
(131,84,o),
(131,154,cs),
(131,233,o),
(206,248,o),
(268,248,cs),
(315,248,o),
(346,239,o),
(360,234,c),
(360,68,l),
(335,63,o),
(299,60,o),
(254,60,cs)
);
}
);
width = 519;
}
);
note = atilde;
unicode = 227;
},
{
glyphname = adieresis;
kernLeft = a;
kernRight = a;
layers = (
{
layerId = m01;
shapes = (
{
closed = 1;
nodes = (
(383,620,o),
(406,641,o),
(406,674,cs),
(406,707,o),
(383,729,o),
(353,729,cs),
(324,729,o),
(300,707,o),
(300,674,cs),
(300,641,o),
(324,620,o),
(353,620,cs)
);
},
{
closed = 1;
nodes = (
(199,620,o),
(223,641,o),
(223,674,cs),
(223,707,o),
(199,729,o),
(169,729,cs),
(140,729,o),
(116,707,o),
(116,674,cs),
(116,641,o),
(140,620,o),
(169,620,cs)
);
},
{
closed = 1;
nodes = (
(334,-11,o),
(413,5,o),
(443,13,c),
(443,335,ls),
(443,450,o),
(393,532,o),
(247,532,cs),
(180,532,o),
(126,520,o),
(100,509,c),
(111,437,l),
(133,446,o),
(170,458,o),
(240,458,cs),
(341,458,o),
(360,395,o),
(360,328,cs),
(360,300,l),
(348,305,o),
(301,314,o),
(263,314,cs),
(140,314,o),
(45,268,o),
(45,154,cs),
(45,34,o),
(129,-11,o),
(243,-11,cs)
);
},
{
closed = 1;
nodes = (
(178,60,o),
(131,84,o),
(131,154,cs),
(131,233,o),
(206,248,o),
(268,248,cs),
(315,248,o),
(346,239,o),
(360,234,c),
(360,68,l),
(335,63,o),
(299,60,o),
(254,60,cs)
);
}
);
width = 519;
}
);
note = adieresis;
unicode = 228;
},
{
glyphname = aring;
kernLeft = a;
kernRight = a;
layers = (
{
layerId = m01;
shapes = (
{
closed = 1;
nodes = (
(318,581,o),
(365,619,o),
(365,681,cs),
(365,742,o),
(318,781,o),
(264,781,cs),
(210,781,o),
(164,742,o),
(164,681,cs),
(164,619,o),
(210,581,o),
(264,581,cs)
);
},
{
closed = 1;
nodes = (
(235,625,o),
(210,645,o),
(210,681,cs),
(210,717,o),
(235,738,o),
(264,738,cs),
(295,738,o),
(319,717,o),
(319,681,cs),
(319,645,o),
(295,625,o),
(264,625,cs)
);
},
{
closed = 1;
nodes = (
(334,-11,o),
(413,5,o),
(443,13,c),
(443,335,ls),
(443,450,o),
(393,532,o),
(247,532,cs),
(180,532,o),
(126,520,o),
(100,509,c),
(111,437,l),
(133,446,o),
(170,458,o),
(240,458,cs),
(341,458,o),
(360,395,o),
(360,328,cs),
(360,300,l),
(348,305,o),
(301,314,o),
(263,314,cs),
(140,314,o),
(45,268,o),
(45,154,cs),
(45,34,o),
(129,-11,o),
(243,-11,cs)
);
},
{
closed = 1;
nodes = (
(178,60,o),
(131,84,o),
(131,154,cs),
(131,233,o),
(206,248,o),
(268,248,cs),
(315,248,o),
(346,239,o),
(360,234,c),
(360,68,l),
(335,63,o),
(299,60,o),
(254,60,cs)
);
}
);
width = 519;
}
);
note = aring;
unicode = 229;
},
{
glyphname = ae;
kernLeft = a;
kernRight = e;
layers = (
{
layerId = m01;
shapes = (
{
closed = 1;
nodes = (
(345,-11,o),
(402,21,o),
(437,45,c),
(480,7,o),
(538,-11,o),
(615,-11,cs),
(685,-11,o),
(746,8,o),
(767,19,c),
(753,90,l),
(732,80,o),
(687,63,o),
(621,63,cs),
(503,63,o),
(448,127,o),
(443,238,c),
(801,238,l),
(802,248,o),
(803,263,o),
(803,275,cs),
(803,448,o),
(719,532,o),
(589,532,cs),
(523,532,o),
(459,502,o),
(415,440,c),
(389,497,o),
(338,532,o),
(247,532,cs),
(181,532,o),
(126,520,o),
(100,509,c),
(111,438,l),
(132,447,o),
(173,458,o),
(240,458,cs),
(341,458,o),
(360,395,o),
(360,329,cs),
(360,300,l),
(348,305,o),
(301,314,o),
(263,314,cs),
(140,314,o),
(45,268,o),
(45,154,cs),
(45,34,o),
(133,-11,o),
(254,-11,cs)
);
},
{
closed = 1;
nodes = (
(445,304,l),
(450,385,o),
(502,459,o),
(588,459,cs),
(671,459,o),
(716,398,o),
(718,304,c)
);
},
{
closed = 1;
nodes = (
(182,60,o),
(131,84,o),
(131,154,cs),
(131,233,o),
(206,248,o),
(268,248,cs),
(313,248,o),
(346,240,o),
(361,235,c),
(362,179,o),
(373,136,o),
(394,99,c),
(373,83,o),
(330,60,o),
(256,60,cs)
);
}
);
width = 859;
}
);
note = ae;
unicode = 230;
},
{
glyphname = ccedilla;
kernLeft = c;
kernRight = c;
layers = (
{
layerId = m01;
shapes = (
{
closed = 1;
nodes = (
(335,-195,o),
(362,-155,o),
(362,-115,cs),
(362,-77,o),
(340,-54,o),
(302,-37,c),
(304,-29,o),
(309,-20,o),
(313,-11,c),
(367,-10,o),
(420,4,o),
(445,17,c),
(429,88,l),
(408,78,o),
(367,63,o),
(316,63,cs),
(188,63,o),
(141,142,o),
(141,258,cs),
(141,383,o),
(198,457,o),
(306,457,cs),
(357,457,o),
(388,448,o),
(415,435,c),
(436,506,l),
(405,522,o),
(354,532,o),
(298,532,cs),
(146,532,o),
(53,418,o),
(53,258,cs),
(53,114,o),
(121,11,o),
(257,-8,c),
(247,-26,o),
(237,-49,o),
(232,-65,c),
(273,-80,o),
(290,-90,o),
(289,-111,cs),
(289,-130,o),
(275,-139,o),
(250,-139,cs),
(223,-139,o),
(203,-135,o),
(190,-129,c),
(180,-183,l),
(195,-189,o),
(227,-195,o),
(254,-195,cs)
);
}
);
width = 469;
}
);
note = ccedilla;
unicode = 231;
},
{
glyphname = egrave;
kernLeft = e;
kernRight = e;
layers = (
{
layerId = m01;
shapes = (
{
closed = 1;
nodes = (
(318,581,l),
(359,625,l),
(205,779,l),
(148,720,l)
);
},
{
closed = 1;
nodes = (
(383,-12,o),
(444,8,o),
(465,19,c),
(451,90,l),
(430,80,o),
(385,63,o),
(318,63,cs),
(201,63,o),
(146,127,o),
(141,238,c),
(498,238,l),
(499,248,o),
(501,263,o),
(501,275,cs),
(501,448,o),
(417,532,o),
(285,532,cs),
(167,532,o),
(53,441,o),
(53,259,cs),
(53,102,o),
(129,-12,o),
(312,-12,cs)
);
},
{
closed = 1;
nodes = (
(143,304,l),
(148,385,o),
(199,459,o),
(286,459,cs),
(369,459,o),
(414,398,o),
(416,304,c)
);
}
);
width = 556;
}
);
note = egrave;
unicode = 232;
},
{
glyphname = eacute;
kernLeft = e;
kernRight = e;
layers = (
{
layerId = m01;
shapes = (
{
closed = 1;
nodes = (
(248,581,l),
(418,720,l),
(362,779,l),
(207,625,l)
);
},
{
closed = 1;
nodes = (
(383,-12,o),
(444,8,o),
(465,19,c),
(451,90,l),
(430,80,o),
(385,63,o),
(318,63,cs),
(201,63,o),
(146,127,o),
(141,238,c),
(498,238,l),
(499,248,o),
(501,263,o),
(501,275,cs),
(501,448,o),
(417,532,o),
(285,532,cs),
(167,532,o),
(53,441,o),
(53,259,cs),
(53,102,o),
(129,-12,o),
(312,-12,cs)
);
},
{
closed = 1;
nodes = (
(143,304,l),
(148,385,o),
(199,459,o),
(286,459,cs),
(369,459,o),
(414,398,o),
(416,304,c)
);
}
);
width = 556;
}
);
note = eacute;
unicode = 233;
},
{
glyphname = ecircumflex;
kernLeft = e;
kernRight = e;
layers = (
{
layerId = m01;
shapes = (
{
closed = 1;
nodes = (
(180,583,l),
(283,674,l),
(386,583,l),
(420,622,l),
(283,767,l),
(145,622,l)
);
},
{
closed = 1;
nodes = (
(383,-12,o),
(444,8,o),
(465,19,c),
(451,90,l),
(430,80,o),
(385,63,o),
(318,63,cs),
(201,63,o),
(146,127,o),
(141,238,c),
(498,238,l),
(499,248,o),
(501,263,o),
(501,275,cs),
(501,448,o),
(417,532,o),
(285,532,cs),
(167,532,o),
(53,441,o),
(53,259,cs),
(53,102,o),
(129,-12,o),
(312,-12,cs)
);
},
{
closed = 1;
nodes = (
(143,304,l),
(148,385,o),
(199,459,o),
(286,459,cs),
(369,459,o),
(414,398,o),
(416,304,c)
);
}
);
width = 556;
}
);
note = ecircumflex;
unicode = 234;
},
{
glyphname = edieresis;
kernLeft = e;
kernRight = e;
layers = (
{
layerId = m01;
shapes = (
{
closed = 1;
nodes = (
(405,620,o),
(429,641,o),
(429,674,cs),
(429,707,o),
(405,729,o),
(376,729,cs),
(346,729,o),
(323,707,o),
(323,674,cs),
(323,641,o),
(346,620,o),
(376,620,cs)
);
},
{
closed = 1;
nodes = (
(222,620,o),
(245,641,o),
(245,674,cs),
(245,707,o),
(222,729,o),
(192,729,cs),
(163,729,o),
(139,707,o),
(139,674,cs),
(139,641,o),
(163,620,o),
(192,620,cs)
);
},
{
closed = 1;
nodes = (
(383,-12,o),
(444,8,o),
(465,19,c),
(451,90,l),
(430,80,o),
(385,63,o),
(318,63,cs),
(201,63,o),
(146,127,o),
(141,238,c),
(498,238,l),
(499,248,o),
(501,263,o),
(501,275,cs),
(501,448,o),
(417,532,o),
(285,532,cs),
(167,532,o),
(53,441,o),
(53,259,cs),
(53,102,o),
(129,-12,o),
(312,-12,cs)
);
},
{
closed = 1;
nodes = (
(143,304,l),
(148,385,o),
(199,459,o),
(286,459,cs),
(369,459,o),
(414,398,o),
(416,304,c)
);
}
);
width = 556;
}
);
note = edieresis;
unicode = 235;
},
{
glyphname = igrave;
kernLeft = i;
kernRight = i;
layers = (
{
layerId = m01;
shapes = (
{
closed = 1;
nodes = (
(160,581,l),
(201,625,l),
(47,779,l),
(-10,720,l)
);
},
{
closed = 1;
nodes = (
(82,0,l),
(167,0,l),
(167,519,l),
(82,519,l)
);
}
);
width = 249;
}
);
note = igrave;
unicode = 236;
},
{
glyphname = iacute;
kernLeft = i;
kernRight = i;
layers = (
{
layerId = m01;
shapes = (
{
closed = 1;
nodes = (
(91,581,l),
(261,720,l),
(205,779,l),
(50,625,l)
);
},
{
closed = 1;
nodes = (
(82,0,l),
(167,0,l),
(167,519,l),
(82,519,l)
);
}
);
width = 249;
}
);
note = iacute;
unicode = 237;
},
{
glyphname = icircumflex;
kernLeft = i;
kernRight = i;
layers = (
{
layerId = m01;
shapes = (
{
closed = 1;
nodes = (
(22,583,l),
(125,674,l),
(229,583,l),
(263,622,l),
(125,767,l),
(-12,622,l)
);
},
{
closed = 1;
nodes = (
(82,0,l),
(167,0,l),
(167,519,l),
(82,519,l)
);
}
);
width = 249;
}
);
note = icircumflex;
unicode = 238;
},
{
glyphname = idieresis;
kernLeft = i;
kernRight = i;
layers = (
{
layerId = m01;
shapes = (
{
closed = 1;
nodes = (
(245,620,o),
(269,641,o),
(269,674,cs),
(269,707,o),
(245,729,o),
(216,729,cs),
(186,729,o),
(163,707,o),
(163,674,cs),
(163,641,o),
(186,620,o),
(216,620,cs)
);
},
{
closed = 1;
nodes = (
(62,620,o),
(85,641,o),
(85,674,cs),
(85,707,o),
(62,729,o),
(32,729,cs),
(3,729,o),
(-21,707,o),
(-21,674,cs),
(-21,641,o),
(3,620,o),
(32,620,cs)
);
},
{
closed = 1;
nodes = (
(82,0,l),
(167,0,l),
(167,519,l),
(82,519,l)
);
}
);
width = 249;
}
);
note = idieresis;
unicode = 239;
},
{
glyphname = eth;
kernLeft = eth;
kernRight = eth;
layers = (
{
layerId = m01;
shapes = (
{
closed = 1;
nodes = (
(476,-12,o),
(527,159,o),
(527,329,cs),
(527,444,o),
(497,545,o),
(445,627,c),
(547,663,l),
(528,717,l),
(409,676,l),
(376,716,o),
(336,750,o),
(291,777,c),
(239,727,l),
(274,705,o),
(306,678,o),
(332,648,c),
(223,611,l),
(242,557,l),
(369,601,l),
(403,548,o),
(424,491,o),
(431,440,c),
(408,457,o),
(357,486,o),
(288,486,cs),
(144,486,o),
(53,396,o),
(53,242,cs),
(53,104,o),
(136,-12,o),
(281,-12,cs)
);
},
{
closed = 1;
nodes = (
(188,63,o),
(140,145,o),
(140,243,cs),
(140,338,o),
(185,414,o),
(297,414,cs),
(347,414,o),
(395,399,o),
(439,357,c),
(440,347,o),
(440,337,o),
(440,327,cs),
(440,195,o),
(412,63,o),
(281,63,cs)
);
}
);
width = 583;
}
);
note = eth;
unicode = 240;
},
{
glyphname = ntilde;
kernLeft = n;
kernRight = n;
layers = (
{
layerId = m01;
shapes = (
{
closed = 1;
nodes = (
(171,617,l),
(184,640,o),
(198,662,o),
(226,662,cs),
(268,662,o),
(300,624,o),
(353,624,cs),
(408,624,o),
(440,675,o),
(454,709,c),
(408,734,l),
(396,711,o),
(381,689,o),
(353,689,cs),
(312,689,o),
(280,727,o),
(226,727,cs),
(171,727,o),
(140,676,o),
(125,642,c)
);
},
{
closed = 1;
nodes = (
(82,0,l),
(167,0,l),
(167,443,l),
(181,448,o),
(225,455,o),
(277,455,cs),
(380,455,o),
(413,405,o),
(413,271,cs),
(413,0,l),
(497,0,l),
(497,291,ls),
(497,433,o),
(449,530,o),
(286,530,cs),
(194,530,o),
(124,513,o),
(82,501,c)
);
}
);
width = 574;
}
);
note = ntilde;
unicode = 241;
},
{
glyphname = ograve;
kernLeft = o;
kernRight = o;
layers = (
{
layerId = m01;
shapes = (
{
closed = 1;
nodes = (
(329,581,l),
(370,625,l),
(216,779,l),
(159,720,l)
);
},
{
closed = 1;
nodes = (
(436,-12,o),
(535,96,o),
(535,259,cs),
(535,423,o),
(435,532,o),
(294,532,cs),
(153,532,o),
(53,423,o),
(53,259,cs),
(53,96,o),
(152,-12,o),
(294,-12,cs)
);
},
{
closed = 1;
nodes = (
(200,62,o),
(141,139,o),
(141,259,cs),
(141,380,o),
(200,457,o),
(294,457,cs),
(388,457,o),
(447,380,o),
(447,259,cs),
(447,139,o),
(388,62,o),
(294,62,cs)
);
}
);
width = 588;
}
);
note = ograve;
unicode = 242;
},
{
glyphname = oacute;
kernLeft = o;
kernRight = o;
layers = (
{
layerId = m01;
shapes = (
{
closed = 1;
nodes = (
(259,581,l),
(429,720,l),
(372,779,l),
(218,625,l)
);
},
{
closed = 1;
nodes = (
(436,-12,o),
(535,96,o),
(535,259,cs),
(535,423,o),
(435,532,o),
(294,532,cs),
(153,532,o),
(53,423,o),
(53,259,cs),
(53,96,o),
(152,-12,o),
(294,-12,cs)
);
},
{
closed = 1;
nodes = (
(200,62,o),
(141,139,o),
(141,259,cs),
(141,380,o),
(200,457,o),
(294,457,cs),
(388,457,o),
(447,380,o),
(447,259,cs),
(447,139,o),
(388,62,o),
(294,62,cs)
);
}
);
width = 588;
}
);
note = oacute;
unicode = 243;
},
{
glyphname = ocircumflex;
kernLeft = o;
kernRight = o;
layers = (
{
layerId = m01;
shapes = (
{
closed = 1;
nodes = (
(191,583,l),
(294,674,l),
(397,583,l),
(431,622,l),
(294,767,l),
(156,622,l)
);
},
{
closed = 1;
nodes = (
(436,-12,o),
(535,96,o),
(535,259,cs),
(535,423,o),
(435,532,o),
(294,532,cs),
(153,532,o),
(53,423,o),
(53,259,cs),
(53,96,o),
(152,-12,o),
(294,-12,cs)
);
},
{
closed = 1;
nodes = (
(200,62,o),
(141,139,o),
(141,259,cs),
(141,380,o),
(200,457,o),
(294,457,cs),
(388,457,o),
(447,380,o),
(447,259,cs),
(447,139,o),
(388,62,o),
(294,62,cs)
);
}
);
width = 588;
}
);
note = ocircumflex;
unicode = 244;
},
{
glyphname = otilde;
kernLeft = o;
kernRight = o;
layers = (
{
layerId = m01;
shapes = (
{
closed = 1;
nodes = (
(176,617,l),
(188,640,o),
(203,662,o),
(230,662,cs),
(273,662,o),
(305,624,o),
(358,624,cs),
(413,624,o),
(444,675,o),
(459,709,c),
(413,734,l),
(400,711,o),
(386,689,o),
(358,689,cs),
(316,689,o),
(284,727,o),
(231,727,cs),
(176,727,o),
(144,676,o),
(130,642,c)
);
},
{
closed = 1;
nodes = (
(436,-12,o),
(535,96,o),
(535,259,cs),
(535,423,o),
(435,532,o),
(294,532,cs),
(153,532,o),
(53,423,o),
(53,259,cs),
(53,96,o),
(152,-12,o),
(294,-12,cs)
);
},
{
closed = 1;
nodes = (
(200,62,o),
(141,139,o),
(141,259,cs),
(141,380,o),
(200,457,o),
(294,457,cs),
(388,457,o),
(447,380,o),
(447,259,cs),
(447,139,o),
(388,62,o),
(294,62,cs)
);
}
);
width = 588;
}
);
note = otilde;
unicode = 245;
},
{
glyphname = odieresis;
kernLeft = o;
kernRight = o;
layers = (
{
layerId = m01;
shapes = (
{
closed = 1;
nodes = (
(415,620,o),
(439,641,o),
(439,674,cs),
(439,707,o),
(415,729,o),
(386,729,cs),
(356,729,o),
(333,707,o),
(333,674,cs),
(333,641,o),
(356,620,o),
(386,620,cs)
);
},
{
closed = 1;
nodes = (
(231,620,o),
(255,641,o),
(255,674,cs),
(255,707,o),
(231,729,o),
(202,729,cs),
(173,729,o),
(149,707,o),
(149,674,cs),
(149,641,o),
(173,620,o),
(202,620,cs)
);
},
{
closed = 1;
nodes = (
(436,-12,o),
(535,96,o),
(535,259,cs),
(535,423,o),
(435,532,o),
(294,532,cs),
(153,532,o),
(53,423,o),
(53,259,cs),
(53,96,o),
(152,-12,o),
(294,-12,cs)
);
},
{
closed = 1;
nodes = (
(200,62,o),
(141,139,o),
(141,259,cs),
(141,380,o),
(200,457,o),
(294,457,cs),
(388,457,o),
(447,380,o),
(447,259,cs),
(447,139,o),
(388,62,o),
(294,62,cs)
);
}
);
width = 588;
}
);
note = odieresis;
unicode = 246;
},
{
glyphname = divide;
layers = (
{
layerId = m01;
shapes = (
{
closed = 1;
nodes = (
(314,425,o),
(338,448,o),
(338,483,cs),
(338,517,o),
(314,540,o),
(282,540,cs),
(251,540,o),
(226,517,o),
(226,483,cs),
(226,448,o),
(251,425,o),
(282,425,cs)
);
},
{
closed = 1;
nodes = (
(54,255,l),
(511,255,l),
(511,327,l),
(54,327,l)
);
},
{
closed = 1;
nodes = (
(314,42,o),
(338,65,o),
(338,99,cs),
(338,134,o),
(314,157,o),
(282,157,cs),
(251,157,o),
(226,134,o),
(226,99,cs),
(226,65,o),
(251,42,o),
(282,42,cs)
);
}
);
width = 565;
}
);
note = divide;
unicode = 247;
},
{
glyphname = oslash;
kernLeft = o;
kernRight = o;
layers = (
{
layerId = m01;
shapes = (
{
closed = 1;
nodes = (
(107,-35,l),
(156,30,l),
(194,2,o),
(241,-12,o),
(294,-12,cs),
(436,-12,o),
(535,96,o),
(535,259,cs),
(535,335,o),
(514,399,o),
(477,445,c),
(531,516,l),
(483,552,l),
(433,487,l),
(394,516,o),
(347,532,o),
(294,532,cs),
(153,532,o),
(53,423,o),
(53,259,cs),
(53,183,o),
(73,119,o),
(112,72,c),
(57,2,l)
);
},
{
closed = 1;
nodes = (
(165,141,l),
(148,172,o),
(139,212,o),
(139,259,cs),
(139,381,o),
(199,459,o),
(294,459,cs),
(330,459,o),
(361,447,o),
(385,426,c)
);
},
{
closed = 1;
nodes = (
(258,61,o),
(228,71,o),
(204,91,c),
(423,376,l),
(440,344,o),
(449,305,o),
(449,259,cs),
(449,138,o),
(389,61,o),
(294,61,cs)
);
}
);
width = 588;
}
);
note = oslash;
unicode = 248;
},
{
glyphname = ugrave;
kernLeft = u;
kernRight = u;
layers = (
{
layerId = m01;
shapes = (
{
closed = 1;
nodes = (
(314,581,l),
(355,625,l),
(201,779,l),
(144,720,l)
);
},
{
closed = 1;
nodes = (
(380,-10,o),
(450,6,o),
(491,18,c),
(491,519,l),
(407,519,l),
(407,76,l),
(393,72,o),
(349,64,o),
(297,64,cs),
(197,64,o),
(161,114,o),
(161,249,cs),
(161,519,l),
(77,519,l),
(77,228,ls),
(77,86,o),
(128,-10,o),
(287,-10,cs)
);
}
);
width = 574;
}
);
note = ugrave;
unicode = 249;
},
{
glyphname = uacute;
kernLeft = u;
kernRight = u;
layers = (
{
layerId = m01;
shapes = (
{
closed = 1;
nodes = (
(250,581,l),
(419,720,l),
(363,779,l),
(209,625,l)
);
},
{
closed = 1;
nodes = (
(380,-10,o),
(450,6,o),
(491,18,c),
(491,519,l),
(407,519,l),
(407,76,l),
(393,72,o),
(349,64,o),
(297,64,cs),
(197,64,o),
(161,114,o),
(161,249,cs),
(161,519,l),
(77,519,l),
(77,228,ls),
(77,86,o),
(128,-10,o),
(287,-10,cs)
);
}
);
width = 574;
}
);
note = uacute;
unicode = 250;
},
{
glyphname = ucircumflex;
kernLeft = u;
kernRight = u;
layers = (
{
layerId = m01;
shapes = (
{
closed = 1;
nodes = (
(181,583,l),
(284,674,l),
(387,583,l),
(421,622,l),
(284,767,l),
(146,622,l)
);
},
{
closed = 1;
nodes = (
(380,-10,o),
(450,6,o),
(491,18,c),
(491,519,l),
(407,519,l),
(407,76,l),
(393,72,o),
(349,64,o),
(297,64,cs),
(197,64,o),
(161,114,o),
(161,249,cs),
(161,519,l),
(77,519,l),
(77,228,ls),
(77,86,o),
(128,-10,o),
(287,-10,cs)
);
}
);
width = 574;
}
);
note = ucircumflex;
unicode = 251;
},
{
glyphname = udieresis;
kernLeft = u;
kernRight = u;
layers = (
{
layerId = m01;
shapes = (
{
closed = 1;
nodes = (
(405,620,o),
(429,641,o),
(429,674,cs),
(429,707,o),
(405,729,o),
(376,729,cs),
(346,729,o),
(322,707,o),
(322,674,cs),
(322,641,o),
(346,620,o),
(376,620,cs)
);
},
{
closed = 1;
nodes = (
(221,620,o),
(245,641,o),
(245,674,cs),
(245,707,o),
(221,729,o),
(192,729,cs),
(162,729,o),
(139,707,o),
(139,674,cs),
(139,641,o),
(162,620,o),
(192,620,cs)
);
},
{
closed = 1;
nodes = (
(380,-10,o),
(450,6,o),
(491,18,c),
(491,519,l),
(407,519,l),
(407,76,l),
(393,72,o),
(349,64,o),
(297,64,cs),
(197,64,o),
(161,114,o),
(161,249,cs),
(161,519,l),
(77,519,l),
(77,228,ls),
(77,86,o),
(128,-10,o),
(287,-10,cs)
);
}
);
width = 574;
}
);
note = udieresis;
unicode = 252;
},
{
glyphname = yacute;
kernLeft = y;
kernRight = y;
layers = (
{
layerId = m01;
shapes = (
{
closed = 1;
nodes = (
(227,581,l),
(396,720,l),
(340,779,l),
(185,625,l)
);
},
{
closed = 1;
nodes = (
(199,-187,o),
(248,-136,o),
(300,-16,cs),
(367,138,o),
(424,325,o),
(471,519,c),
(385,519,l),
(349,360,o),
(317,233,o),
(264,84,c),
(194,230,o),
(136,397,o),
(107,519,c),
(18,519,l),
(64,339,o),
(139,152,o),
(223,-3,c),
(190,-86,o),
(154,-116,o),
(83,-116,cs),
(57,-116,o),
(29,-108,o),
(18,-102,c),
(2,-171,l),
(12,-177,o),
(46,-187,o),
(83,-187,cs)
);
}
);
width = 491;
}
);
note = yacute;
unicode = 253;
},
{
glyphname = thorn;
kernRight = thorn;
layers = (
{
layerId = m01;
shapes = (
{
closed = 1;
nodes = (
(82,-185,l),
(167,-185,l),
(167,26,l),
(192,10,o),
(241,-12,o),
(302,-12,cs),
(451,-12,o),
(535,99,o),
(535,258,cs),
(535,425,o),
(434,530,o),
(282,530,cs),
(244,530,o),
(204,522,o),
(167,508,c),
(167,776,l),
(82,761,l)
);
},
{
closed = 1;
nodes = (
(236,63,o),
(189,86,o),
(167,103,c),
(167,435,l),
(181,442,o),
(227,455,o),
(276,455,cs),
(380,455,o),
(447,383,o),
(447,257,cs),
(447,147,o),
(405,63,o),
(291,63,cs)
);
}
);
width = 588;
}
);
note = thorn;
unicode = 254;
},
{
glyphname = ydieresis;
kernLeft = y;
kernRight = y;
layers = (
{
layerId = m01;
shapes = (
{
closed = 1;
nodes = (
(376,620,o),
(400,641,o),
(400,674,cs),
(400,707,o),
(376,729,o),
(346,729,cs),
(317,729,o),
(293,707,o),
(293,674,cs),
(293,641,o),
(317,620,o),
(346,620,cs)
);
},
{
closed = 1;
nodes = (
(192,620,o),
(216,641,o),
(216,674,cs),
(216,707,o),
(192,729,o),
(163,729,cs),
(133,729,o),
(110,707,o),
(110,674,cs),
(110,641,o),
(133,620,o),
(163,620,cs)
);
},
{
closed = 1;
nodes = (
(199,-187,o),
(248,-136,o),
(300,-16,cs),
(367,138,o),
(424,325,o),
(471,519,c),
(385,519,l),
(349,360,o),
(317,233,o),
(264,84,c),
(194,230,o),
(136,397,o),
(107,519,c),
(18,519,l),
(64,339,o),
(139,152,o),
(223,-3,c),
(190,-86,o),
(154,-116,o),
(83,-116,cs),
(57,-116,o),
(29,-108,o),
(18,-102,c),
(2,-171,l),
(12,-177,o),
(46,-187,o),
(83,-187,cs)
);
}
);
width = 491;
}
);
note = ydieresis;
unicode = 255;
},
{
glyphname = Amacron;
kernLeft = A;
kernRight = A;
layers = (
{
layerId = m01;
shapes = (
{
closed = 1;
nodes = (
(191,798,l),
(469,798,l),
(469,864,l),
(191,864,l)
);
},
{
closed = 1;
nodes = (
(102,0,l),
(124,63,o),
(146,123,o),
(167,181,c),
(488,181,l),
(508,123,o),
(531,63,o),
(553,0,c),
(649,0,l),
(542,291,o),
(466,492,o),
(370,693,c),
(289,693,l),
(192,492,o),
(116,291,o),
(10,0,c)
);
},
{
closed = 1;
nodes = (
(191,254,l),
(240,386,o),
(285,500,o),
(327,597,c),
(370,500,o),
(415,386,o),
(464,254,c)
);
}
);
width = 659;
}
);
note = Amacron;
unicode = 256;
},
{
glyphname = amacron;
kernLeft = a;
kernRight = a;
layers = (
{
layerId = m01;
shapes = (
{
closed = 1;
nodes = (
(124,643,l),
(402,643,l),
(402,709,l),
(124,709,l)
);
},
{
closed = 1;
nodes = (
(334,-11,o),
(413,5,o),
(443,13,c),
(443,335,ls),
(443,450,o),
(393,532,o),
(247,532,cs),
(180,532,o),
(126,520,o),
(100,509,c),
(111,437,l),
(133,446,o),
(170,458,o),
(240,458,cs),
(341,458,o),
(360,395,o),
(360,328,cs),
(360,300,l),
(348,305,o),
(301,314,o),
(263,314,cs),
(140,314,o),
(45,268,o),
(45,154,cs),
(45,34,o),
(129,-11,o),
(243,-11,cs)
);
},
{
closed = 1;
nodes = (
(178,60,o),
(131,84,o),
(131,154,cs),
(131,233,o),
(206,248,o),
(268,248,cs),
(315,248,o),
(346,239,o),
(360,234,c),
(360,68,l),
(335,63,o),
(299,60,o),
(254,60,cs)
);
}
);
width = 519;
}
);
note = amacron;
unicode = 257;
},
{
glyphname = Abreve;
kernLeft = A;
kernRight = A;
layers = (
{
layerId = m01;
shapes = (
{
closed = 1;
nodes = (
(403,765,o),
(465,810,o),
(463,905,c),
(406,905,l),
(405,878,o),
(394,830,o),
(332,830,cs),
(269,830,o),
(258,878,o),
(257,905,c),
(200,905,l),
(198,810,o),
(260,765,o),
(332,765,cs)
);
},
{
closed = 1;
nodes = (
(102,0,l),
(124,63,o),
(146,123,o),
(167,181,c),
(488,181,l),
(508,123,o),
(531,63,o),
(553,0,c),
(649,0,l),
(542,291,o),
(466,492,o),
(370,693,c),
(289,693,l),
(192,492,o),
(116,291,o),
(10,0,c)
);
},
{
closed = 1;
nodes = (
(191,254,l),
(240,386,o),
(285,500,o),
(327,597,c),
(370,500,o),
(415,386,o),
(464,254,c)
);
}
);
width = 659;
}
);
note = Abreve;
unicode = 258;
},
{
glyphname = abreve;
kernLeft = a;
kernRight = a;
layers = (
{
layerId = m01;
shapes = (
{
closed = 1;
nodes = (
(335,610,o),
(397,655,o),
(395,750,c),
(339,750,l),
(337,723,o),
(326,675,o),
(264,675,cs),
(202,675,o),
(191,723,o),
(189,750,c),
(133,750,l),
(130,655,o),
(193,610,o),
(264,610,cs)
);
},
{
closed = 1;
nodes = (
(334,-11,o),
(413,5,o),
(443,13,c),
(443,335,ls),
(443,450,o),
(393,532,o),
(247,532,cs),
(180,532,o),
(126,520,o),
(100,509,c),
(111,437,l),
(133,446,o),
(170,458,o),
(240,458,cs),
(341,458,o),
(360,395,o),
(360,328,cs),
(360,300,l),
(348,305,o),
(301,314,o),
(263,314,cs),
(140,314,o),
(45,268,o),
(45,154,cs),
(45,34,o),
(129,-11,o),
(243,-11,cs)
);
},
{
closed = 1;
nodes = (
(178,60,o),
(131,84,o),
(131,154,cs),
(131,233,o),
(206,248,o),
(268,248,cs),
(315,248,o),
(346,239,o),
(360,234,c),
(360,68,l),
(335,63,o),
(299,60,o),
(254,60,cs)
);
}
);
width = 519;
}
);
note = abreve;
unicode = 259;
},
{
glyphname = Aogonek;
kernLeft = A;
kernRight = A;
layers = (
{
layerId = m01;
shapes = (
{
closed = 1;
nodes = (
(615,-194,o),
(643,-189,o),
(657,-183,c),
(650,-123,l),
(637,-128,o),
(621,-130,o),
(609,-130,cs),
(586,-130,o),
(570,-120,o),
(570,-98,cs),
(570,-62,o),
(623,-18,o),
(649,2,c),
(541,293,o),
(466,492,o),
(370,693,c),
(289,693,l),
(192,492,o),
(116,291,o),
(10,0,c),
(102,0,l),
(124,63,o),
(146,123,o),
(167,181,c),
(488,181,l),
(508,123,o),
(531,63,o),
(553,0,c),
(564,0,l),
(533,-25,o),
(489,-69,o),
(489,-119,cs),
(489,-163,o),
(518,-194,o),
(593,-194,cs)
);
},
{
closed = 1;
nodes = (
(191,254,l),
(240,386,o),
(285,500,o),
(327,597,c),
(370,500,o),
(415,386,o),
(464,254,c)
);
}
);
width = 659;
}
);
note = Aogonek;
unicode = 260;
},
{
glyphname = aogonek;
kernLeft = a;
kernRight = a;
layers = (
{
layerId = m01;
shapes = (
{
closed = 1;
nodes = (
(402,-194,o),
(430,-189,o),
(444,-183,c),
(437,-123,l),
(423,-128,o),
(408,-130,o),
(396,-130,cs),
(372,-130,o),
(357,-120,o),
(357,-98,cs),
(357,-61,o),
(411,-14,o),
(443,11,c),
(443,335,ls),
(443,450,o),
(393,532,o),
(247,532,cs),
(181,532,o),
(126,520,o),
(100,509,c),
(111,438,l),
(132,447,o),
(173,458,o),
(240,458,cs),
(341,458,o),
(360,395,o),
(360,328,cs),
(360,300,l),
(348,305,o),
(301,314,o),
(263,314,cs),
(140,314,o),
(45,268,o),
(45,154,cs),
(45,34,o),
(129,-11,o),
(243,-11,cs),
(281,-11,o),
(319,-9,o),
(349,-5,c),
(314,-32,o),
(275,-70,o),
(275,-119,cs),
(275,-163,o),
(304,-194,o),
(379,-194,cs)
);
},
{
closed = 1;
nodes = (
(178,60,o),
(131,84,o),
(131,154,cs),
(131,233,o),
(206,248,o),
(268,248,cs),
(315,248,o),
(346,239,o),
(360,234,c),
(360,68,l),
(335,63,o),
(299,60,o),
(254,60,cs)
);
}
);
width = 519;
}
);
note = aogonek;
unicode = 261;
},
{
glyphname = Cacute;
kernLeft = C;
kernRight = C;
layers = (
{
layerId = m01;
shapes = (
{
closed = 1;
nodes = (
(335,738,l),
(504,877,l),
(448,936,l),
(294,782,l)
);
},
{
closed = 1;
nodes = (
(492,-15,o),
(567,13,o),
(592,29,c),
(567,102,l),
(536,85,o),
(479,64,o),
(390,64,cs),
(233,64,o),
(152,177,o),
(152,347,cs),
(152,521,o),
(242,630,o),
(397,630,cs),
(471,630,o),
(523,607,o),
(558,586,c),
(586,661,l),
(562,675,o),
(494,708,o),
(387,708,cs),
(211,708,o),
(59,579,o),
(59,347,cs),
(59,114,o),
(193,-15,o),
(382,-15,cs)
);
}
);
width = 618;
}
);
note = Cacute;
unicode = 262;
},
{
glyphname = cacute;
kernLeft = c;
kernRight = c;
layers = (
{
layerId = m01;
shapes = (
{
closed = 1;
nodes = (
(252,581,l),
(421,720,l),
(365,779,l),
(211,625,l)
);
},
{
closed = 1;
nodes = (
(361,-12,o),
(418,3,o),
(445,17,c),
(429,88,l),
(408,78,o),
(367,63,o),
(316,63,cs),
(188,63,o),
(141,142,o),
(141,258,cs),
(141,383,o),
(198,457,o),
(306,457,cs),
(357,457,o),
(388,448,o),
(415,435,c),
(436,506,l),
(405,522,o),
(354,532,o),
(298,532,cs),
(146,532,o),
(53,418,o),
(53,258,cs),
(53,99,o),
(137,-12,o),
(304,-12,cs)
);
}
);
width = 469;
}
);
note = cacute;
unicode = 263;
},
{
glyphname = Ccircumflex;
kernLeft = C;
kernRight = C;
layers = (
{
layerId = m01;
shapes = (
{
closed = 1;
nodes = (
(266,741,l),
(369,833,l),
(472,741,l),
(507,780,l),
(369,925,l),
(232,780,l)
);
},
{
closed = 1;
nodes = (
(492,-15,o),
(567,13,o),
(592,29,c),
(567,102,l),
(536,85,o),
(479,64,o),
(390,64,cs),
(233,64,o),
(152,177,o),
(152,347,cs),
(152,521,o),
(242,630,o),
(397,630,cs),
(471,630,o),
(523,607,o),
(558,586,c),
(586,661,l),
(562,675,o),
(494,708,o),
(387,708,cs),
(211,708,o),
(59,579,o),
(59,347,cs),
(59,114,o),
(193,-15,o),
(382,-15,cs)
);
}
);
width = 618;
}
);
note = Ccircumflex;
unicode = 264;
},
{
glyphname = ccircumflex;
kernLeft = c;
kernRight = c;
layers = (
{
layerId = m01;
shapes = (
{
closed = 1;
nodes = (
(181,583,l),
(284,674,l),
(387,583,l),
(422,622,l),
(284,767,l),
(147,622,l)
);
},
{
closed = 1;
nodes = (
(361,-12,o),
(418,3,o),
(445,17,c),
(429,88,l),
(408,78,o),
(367,63,o),
(316,63,cs),
(188,63,o),
(141,142,o),
(141,258,cs),
(141,383,o),
(198,457,o),
(306,457,cs),
(357,457,o),
(388,448,o),
(415,435,c),
(436,506,l),
(405,522,o),
(354,532,o),
(298,532,cs),
(146,532,o),
(53,418,o),
(53,258,cs),
(53,99,o),
(137,-12,o),
(304,-12,cs)
);
}
);
width = 469;
}
);
note = ccircumflex;
unicode = 265;
},
{
glyphname = Cdotaccent;
kernLeft = C;
kernRight = C;
layers = (
{
layerId = m01;
shapes = (
{
closed = 1;
nodes = (
(400,775,o),
(424,797,o),
(424,831,cs),
(424,865,o),
(400,888,o),
(369,888,cs),
(338,888,o),
(314,865,o),
(314,831,cs),
(314,797,o),
(338,775,o),
(369,775,cs)
);
},
{
closed = 1;
nodes = (
(492,-15,o),
(567,13,o),
(592,29,c),
(567,102,l),
(536,85,o),
(479,64,o),
(390,64,cs),
(233,64,o),
(152,177,o),
(152,347,cs),
(152,521,o),
(242,630,o),
(397,630,cs),
(471,630,o),
(523,607,o),
(558,586,c),
(586,661,l),
(562,675,o),
(494,708,o),
(387,708,cs),
(211,708,o),
(59,579,o),
(59,347,cs),
(59,114,o),
(193,-15,o),
(382,-15,cs)
);
}
);
width = 618;
}
);
note = Cdotaccent;
unicode = 266;
},
{
glyphname = cdotaccent;
kernLeft = c;
kernRight = c;
layers = (
{
layerId = m01;
shapes = (
{
closed = 1;
nodes = (
(315,618,o),
(340,640,o),
(340,674,cs),
(340,708,o),
(315,731,o),
(285,731,cs),
(254,731,o),
(229,708,o),
(229,674,cs),
(229,640,o),
(254,618,o),
(285,618,cs)
);
},
{
closed = 1;
nodes = (
(361,-12,o),
(418,3,o),
(445,17,c),
(429,88,l),
(408,78,o),
(367,63,o),
(316,63,cs),
(188,63,o),
(141,142,o),
(141,258,cs),
(141,383,o),
(198,457,o),
(306,457,cs),
(357,457,o),
(388,448,o),
(415,435,c),
(436,506,l),
(405,522,o),
(354,532,o),
(298,532,cs),
(146,532,o),
(53,418,o),
(53,258,cs),
(53,99,o),
(137,-12,o),
(304,-12,cs)
);
}
);
width = 469;
}
);
note = cdotaccent;
unicode = 267;
},
{
glyphname = Ccaron;
kernLeft = C;
kernRight = C;
layers = (
{
layerId = m01;
shapes = (
{
closed = 1;
nodes = (
(369,744,l),
(506,889,l),
(472,928,l),
(369,836,l),
(266,928,l),
(231,889,l)
);
},
{
closed = 1;
nodes = (
(492,-15,o),
(567,13,o),
(592,29,c),
(567,102,l),
(536,85,o),
(479,64,o),
(390,64,cs),
(233,64,o),
(152,177,o),
(152,347,cs),
(152,521,o),
(242,630,o),
(397,630,cs),
(471,630,o),
(523,607,o),
(558,586,c),
(586,661,l),
(562,675,o),
(494,708,o),
(387,708,cs),
(211,708,o),
(59,579,o),
(59,347,cs),
(59,114,o),
(193,-15,o),
(382,-15,cs)
);
}
);
width = 618;
}
);
note = Ccaron;
unicode = 268;
},
{
glyphname = ccaron;
kernLeft = c;
kernRight = c;
layers = (
{
layerId = m01;
shapes = (
{
closed = 1;
nodes = (
(285,587,l),
(422,731,l),
(388,771,l),
(285,679,l),
(182,771,l),
(147,731,l)
);
},
{
closed = 1;
nodes = (
(361,-12,o),
(418,3,o),
(445,17,c),
(429,88,l),
(408,78,o),
(367,63,o),
(316,63,cs),
(188,63,o),
(141,142,o),
(141,258,cs),
(141,383,o),
(198,457,o),
(306,457,cs),
(357,457,o),
(388,448,o),
(415,435,c),
(436,506,l),
(405,522,o),
(354,532,o),
(298,532,cs),
(146,532,o),
(53,418,o),
(53,258,cs),
(53,99,o),
(137,-12,o),
(304,-12,cs)
);
}
);
width = 469;
}
);
note = ccaron;
unicode = 269;
},
{
glyphname = Dcaron;
kernLeft = D;
kernRight = D;
layers = (
{
layerId = m01;
shapes = (
{
closed = 1;
nodes = (
(350,744,l),
(488,889,l),
(453,928,l),
(350,836,l),
(247,928,l),
(213,889,l)
);
},
{
closed = 1;
nodes = (
(495,-7,o),
(651,110,o),
(651,347,cs),
(651,586,o),
(494,699,o),
(267,699,cs),
(211,699,o),
(140,694,o),
(88,681,c),
(88,11,l),
(140,-1,o),
(210,-7,o),
(266,-7,cs)
);
},
{
closed = 1;
nodes = (
(212,70,o),
(186,74,o),
(176,75,c),
(176,617,l),
(187,619,o),
(215,623,o),
(275,623,cs),
(464,623,o),
(558,520,o),
(558,347,cs),
(558,175,o),
(463,70,o),
(274,70,cs)
);
}
);
width = 710;
}
);
note = Dcaron;
unicode = 270;
},
{
glyphname = dcaron;
kernLeft = d;
kernRight = dcaron;
layers = (
{
layerId = m01;
shapes = (
{
closed = 1;
nodes = (
(398,-12,o),
(464,3,o),
(506,16,c),
(506,776,l),
(421,761,l),
(421,492,l),
(396,509,o),
(348,530,o),
(287,530,cs),
(138,530,o),
(53,420,o),
(53,258,cs),
(53,90,o),
(155,-12,o),
(311,-12,cs)
);
},
{
closed = 1;
nodes = (
(582,553,l),
(639,553,l),
(665,776,l),
(582,776,l)
);
},
{
closed = 1;
nodes = (
(208,62,o),
(141,135,o),
(141,260,cs),
(141,371,o),
(183,456,o),
(297,456,cs),
(352,456,o),
(399,433,o),
(421,415,c),
(421,74,l),
(402,69,o),
(367,62,o),
(312,62,cs)
);
}
);
width = 631;
}
);
note = dcaron;
unicode = 271;
},
{
glyphname = Dcroat;
kernRight = D;
layers = (
{
layerId = m01;
shapes = (
{
closed = 1;
nodes = (
(508,-7,o),
(664,110,o),
(664,347,cs),
(664,586,o),
(507,699,o),
(280,699,cs),
(224,699,o),
(153,694,o),
(101,681,c),
(101,396,l),
(21,396,l),
(21,327,l),
(101,327,l),
(101,11,l),
(153,-1,o),
(223,-7,o),
(279,-7,cs)
);
},
{
closed = 1;
nodes = (
(225,70,o),
(199,74,o),
(189,75,c),
(189,327,l),
(320,327,l),
(320,396,l),
(189,396,l),
(189,617,l),
(200,619,o),
(228,623,o),
(288,623,cs),
(477,623,o),
(572,520,o),
(572,347,cs),
(572,175,o),
(476,70,o),
(287,70,cs)
);
}
);
width = 723;
}
);
note = Dcroat;
unicode = 272;
},
{
glyphname = dcroat;
kernLeft = d;
layers = (
{
layerId = m01;
shapes = (
{
closed = 1;
nodes = (
(398,-12,o),
(464,3,o),
(506,16,c),
(506,621,l),
(581,621,l),
(581,682,l),
(506,682,l),
(506,776,l),
(421,761,l),
(421,682,l),
(248,682,l),
(248,621,l),
(421,621,l),
(421,489,l),
(396,506,o),
(348,527,o),
(287,527,cs),
(138,527,o),
(53,416,o),
(53,257,cs),
(53,91,o),
(155,-12,o),
(311,-12,cs)
);
},
{
closed = 1;
nodes = (
(208,62,o),
(141,135,o),
(141,258,cs),
(141,367,o),
(183,452,o),
(297,452,cs),
(352,452,o),
(399,430,o),
(421,412,c),
(421,74,l),
(402,69,o),
(367,62,o),
(312,62,cs)
);
}
);
width = 588;
}
);
note = dcroat;
unicode = 273;
},
{
glyphname = Emacron;
kernLeft = E;
kernRight = E;
layers = (
{
layerId = m01;
shapes = (
{
closed = 1;
nodes = (
(157,798,l),
(435,798,l),
(435,864,l),
(157,864,l)
);
},
{
closed = 1;
nodes = (
(88,0,l),
(529,0,l),
(529,76,l),
(176,76,l),
(176,326,l),
(468,326,l),
(468,401,l),
(176,401,l),
(176,617,l),
(503,617,l),
(503,693,l),
(88,693,l)
);
}
);
width = 567;
}
);
note = Emacron;
unicode = 274;
},
{
glyphname = emacron;
kernLeft = e;
kernRight = e;
layers = (
{
layerId = m01;
shapes = (
{
closed = 1;
nodes = (
(144,643,l),
(422,643,l),
(422,709,l),
(144,709,l)
);
},
{
closed = 1;
nodes = (
(383,-12,o),
(444,8,o),
(465,19,c),
(451,90,l),
(430,80,o),
(385,63,o),
(318,63,cs),
(201,63,o),
(146,127,o),
(141,238,c),
(498,238,l),
(499,248,o),
(501,263,o),
(501,275,cs),
(501,448,o),
(417,532,o),
(285,532,cs),
(167,532,o),
(53,441,o),
(53,259,cs),
(53,102,o),
(129,-12,o),
(312,-12,cs)
);
},
{
closed = 1;
nodes = (
(143,304,l),
(148,385,o),
(199,459,o),
(286,459,cs),
(369,459,o),
(414,398,o),
(416,304,c)
);
}
);
width = 556;
}
);
note = emacron;
unicode = 275;
},
{
glyphname = Ebreve;
kernLeft = E;
kernRight = E;
layers = (
{
layerId = m01;
shapes = (
{
closed = 1;
nodes = (
(368,765,o),
(430,810,o),
(428,905,c),
(372,905,l),
(370,878,o),
(359,830,o),
(297,830,cs),
(235,830,o),
(224,878,o),
(222,905,c),
(166,905,l),
(163,810,o),
(226,765,o),
(297,765,cs)
);
},
{
closed = 1;
nodes = (
(88,0,l),
(529,0,l),
(529,76,l),
(176,76,l),
(176,326,l),
(468,326,l),
(468,401,l),
(176,401,l),
(176,617,l),
(503,617,l),
(503,693,l),
(88,693,l)
);
}
);
width = 567;
}
);
note = Ebreve;
unicode = 276;
},
{
glyphname = ebreve;
kernLeft = e;
kernRight = e;
layers = (
{
layerId = m01;
shapes = (
{
closed = 1;
nodes = (
(354,610,o),
(416,655,o),
(414,750,c),
(358,750,l),
(356,723,o),
(345,675,o),
(283,675,cs),
(221,675,o),
(210,723,o),
(208,750,c),
(152,750,l),
(149,655,o),
(212,610,o),
(283,610,cs)
);
},
{
closed = 1;
nodes = (
(383,-12,o),
(444,8,o),
(465,19,c),
(451,90,l),
(430,80,o),
(385,63,o),
(318,63,cs),
(201,63,o),
(146,127,o),
(141,238,c),
(498,238,l),
(499,248,o),
(501,263,o),
(501,275,cs),
(501,448,o),
(417,532,o),
(285,532,cs),
(167,532,o),
(53,441,o),
(53,259,cs),
(53,102,o),
(129,-12,o),
(312,-12,cs)
);
},
{
closed = 1;
nodes = (
(143,304,l),
(148,385,o),
(199,459,o),
(286,459,cs),
(369,459,o),
(414,398,o),
(416,304,c)
);
}
);
width = 556;
}
);
note = ebreve;
unicode = 277;
},
{
glyphname = Edotaccent;
kernLeft = E;
kernRight = E;
layers = (
{
layerId = m01;
shapes = (
{
closed = 1;
nodes = (
(328,775,o),
(353,797,o),
(353,831,cs),
(353,865,o),
(328,888,o),
(298,888,cs),
(267,888,o),
(242,865,o),
(242,831,cs),
(242,797,o),
(267,775,o),
(298,775,cs)
);
},
{
closed = 1;
nodes = (
(88,0,l),
(529,0,l),
(529,76,l),
(176,76,l),
(176,326,l),
(468,326,l),
(468,401,l),
(176,401,l),
(176,617,l),
(503,617,l),
(503,693,l),
(88,693,l)
);
}
);
width = 567;
}
);
note = Edotaccent;
unicode = 278;
},
{
glyphname = edotaccent;
kernLeft = e;
kernRight = e;
layers = (
{
layerId = m01;
shapes = (
{
closed = 1;
nodes = (
(313,618,o),
(338,640,o),
(338,674,cs),
(338,708,o),
(313,731,o),
(283,731,cs),
(252,731,o),
(227,708,o),
(227,674,cs),
(227,640,o),
(252,618,o),
(283,618,cs)
);
},
{
closed = 1;
nodes = (
(383,-12,o),
(444,8,o),
(465,19,c),
(451,90,l),
(430,80,o),
(385,63,o),
(318,63,cs),
(201,63,o),
(146,127,o),
(141,238,c),
(498,238,l),
(499,248,o),
(501,263,o),
(501,275,cs),
(501,448,o),
(417,532,o),
(285,532,cs),
(167,532,o),
(53,441,o),
(53,259,cs),
(53,102,o),
(129,-12,o),
(312,-12,cs)
);
},
{
closed = 1;
nodes = (
(143,304,l),
(148,385,o),
(199,459,o),
(286,459,cs),
(369,459,o),
(414,398,o),
(416,304,c)
);
}
);
width = 556;
}
);
note = edotaccent;
unicode = 279;
},
{
glyphname = Eogonek;
kernLeft = E;
kernRight = E;
layers = (
{
layerId = m01;
shapes = (
{
closed = 1;
nodes = (
(495,-194,o),
(523,-189,o),
(537,-183,c),
(530,-123,l),
(517,-128,o),
(502,-130,o),
(490,-130,cs),
(466,-130,o),
(450,-120,o),
(450,-98,cs),
(450,-62,o),
(503,-18,o),
(529,2,c),
(529,76,l),
(176,76,l),
(176,326,l),
(468,326,l),
(468,401,l),
(176,401,l),
(176,617,l),
(503,617,l),
(503,693,l),
(88,693,l),
(88,0,l),
(447,0,l),
(415,-23,o),
(369,-67,o),
(369,-119,cs),
(369,-163,o),
(398,-194,o),
(473,-194,cs)
);
}
);
width = 567;
}
);
note = Eogonek;
unicode = 280;
},
{
glyphname = eogonek;
kernLeft = e;
kernRight = e;
layers = (
{
layerId = m01;
shapes = (
{
closed = 1;
nodes = (
(409,-194,o),
(437,-189,o),
(451,-183,c),
(444,-123,l),
(431,-128,o),
(415,-130,o),
(403,-130,cs),
(380,-130,o),
(364,-120,o),
(364,-98,cs),
(364,-64,o),
(421,-13,o),
(465,19,c),
(451,90,l),
(430,80,o),
(385,63,o),
(318,63,cs),
(201,63,o),
(146,127,o),
(141,238,c),
(498,238,l),
(499,248,o),
(501,263,o),
(501,275,cs),
(501,448,o),
(417,532,o),
(285,532,cs),
(167,532,o),
(53,441,o),
(53,259,cs),
(53,102,o),
(129,-11,o),
(312,-11,cs),
(326,-11,o),
(342,-9,o),
(355,-7,c),
(321,-33,o),
(282,-72,o),
(282,-119,cs),
(282,-163,o),
(311,-194,o),
(387,-194,cs)
);
},
{
closed = 1;
nodes = (
(143,304,l),
(148,385,o),
(199,459,o),
(286,459,cs),
(369,459,o),
(414,398,o),
(416,304,c)
);
}
);
width = 556;
}
);
note = eogonek;
unicode = 281;
},
{
glyphname = Ecaron;
kernLeft = E;
kernRight = E;
layers = (
{
layerId = m01;
shapes = (
{
closed = 1;
nodes = (
(296,744,l),
(434,889,l),
(399,928,l),
(296,836,l),
(193,928,l),
(159,889,l)
);
},
{
closed = 1;
nodes = (
(88,0,l),
(529,0,l),
(529,76,l),
(176,76,l),
(176,326,l),
(468,326,l),
(468,401,l),
(176,401,l),
(176,617,l),
(503,617,l),
(503,693,l),
(88,693,l)
);
}
);
width = 567;
}
);
note = Ecaron;
unicode = 282;
},
{
glyphname = ecaron;
kernLeft = e;
kernRight = e;
layers = (
{
layerId = m01;
shapes = (
{
closed = 1;
nodes = (
(284,587,l),
(422,731,l),
(387,771,l),
(284,679,l),
(181,771,l),
(147,731,l)
);
},
{
closed = 1;
nodes = (
(383,-12,o),
(444,8,o),
(465,19,c),
(451,90,l),
(430,80,o),
(385,63,o),
(318,63,cs),
(201,63,o),
(146,127,o),
(141,238,c),
(498,238,l),
(499,248,o),
(501,263,o),
(501,275,cs),
(501,448,o),
(417,532,o),
(285,532,cs),
(167,532,o),
(53,441,o),
(53,259,cs),
(53,102,o),
(129,-12,o),
(312,-12,cs)
);
},
{
closed = 1;
nodes = (
(143,304,l),
(148,385,o),
(199,459,o),
(286,459,cs),
(369,459,o),
(414,398,o),
(416,304,c)
);
}
);
width = 556;
}
);
note = ecaron;
unicode = 283;
},
{
glyphname = Gcircumflex;
kernLeft = G;
kernRight = G;
layers = (
{
layerId = m01;
shapes = (
{
closed = 1;
nodes = (
(270,741,l),
(373,833,l),
(476,741,l),
(510,780,l),
(373,925,l),
(235,780,l)
);
},
{
closed = 1;
nodes = (
(493,-14,o),
(573,8,o),
(601,20,c),
(601,337,l),
(513,337,l),
(513,76,l),
(496,71,o),
(454,63,o),
(393,63,cs),
(234,63,o),
(152,174,o),
(152,347,cs),
(152,531,o),
(252,630,o),
(393,630,cs),
(465,630,o),
(531,611,o),
(569,586,c),
(597,659,l),
(569,677,o),
(499,708,o),
(390,708,cs),
(209,708,o),
(59,579,o),
(59,347,cs),
(59,116,o),
(194,-14,o),
(382,-14,cs)
);
}
);
width = 668;
}
);
note = Gcircumflex;
unicode = 284;
},
{
glyphname = gcircumflex;
kernLeft = g;
kernRight = g;
layers = (
{
layerId = m01;
shapes = (
{
closed = 1;
nodes = (
(205,583,l),
(308,674,l),
(411,583,l),
(445,622,l),
(308,767,l),
(170,622,l)
);
},
{
closed = 1;
nodes = (
(414,-188,o),
(496,-123,o),
(496,36,cs),
(496,501,l),
(455,514,o),
(392,530,o),
(303,530,cs),
(146,530,o),
(53,420,o),
(53,272,cs),
(53,97,o),
(155,23,o),
(282,23,cs),
(348,23,o),
(392,47,o),
(412,59,c),
(412,29,ls),
(412,-73,o),
(365,-115,o),
(250,-115,cs),
(192,-115,o),
(134,-103,o),
(99,-87,c),
(83,-162,l),
(124,-176,o),
(183,-188,o),
(248,-188,cs)
);
},
{
closed = 1;
nodes = (
(211,96,o),
(141,147,o),
(141,272,cs),
(141,381,o),
(200,457,o),
(304,457,cs),
(361,457,o),
(391,451,o),
(411,445,c),
(411,133,l),
(386,113,o),
(340,96,o),
(288,96,cs)
);
}
);
width = 578;
}
);
note = gcircumflex;
unicode = 285;
},
{
glyphname = Gbreve;
kernLeft = G;
kernRight = G;
layers = (
{
layerId = m01;
shapes = (
{
closed = 1;
nodes = (
(443,765,o),
(506,810,o),
(503,905,c),
(447,905,l),
(445,878,o),
(434,830,o),
(372,830,cs),
(310,830,o),
(299,878,o),
(297,905,c),
(241,905,l),
(239,810,o),
(301,765,o),
(372,765,cs)
);
},
{
closed = 1;
nodes = (
(493,-14,o),
(573,8,o),
(601,20,c),
(601,337,l),
(513,337,l),
(513,76,l),
(496,71,o),
(454,63,o),
(393,63,cs),
(234,63,o),
(152,174,o),
(152,347,cs),
(152,531,o),
(252,630,o),
(393,630,cs),
(465,630,o),
(531,611,o),
(569,586,c),
(597,659,l),
(569,677,o),
(499,708,o),
(390,708,cs),
(209,708,o),
(59,579,o),
(59,347,cs),
(59,116,o),
(194,-14,o),
(382,-14,cs)
);
}
);
width = 668;
}
);
note = Gbreve;
unicode = 286;
},
{
glyphname = gbreve;
kernLeft = g;
kernRight = g;
layers = (
{
layerId = m01;
shapes = (
{
closed = 1;
nodes = (
(379,610,o),
(441,655,o),
(439,750,c),
(383,750,l),
(381,723,o),
(370,675,o),
(308,675,cs),
(246,675,o),
(235,723,o),
(233,750,c),
(177,750,l),
(174,655,o),
(237,610,o),
(308,610,cs)
);
},
{
closed = 1;
nodes = (
(414,-188,o),
(496,-123,o),
(496,36,cs),
(496,501,l),
(455,514,o),
(392,530,o),
(303,530,cs),
(146,530,o),
(53,420,o),
(53,272,cs),
(53,97,o),
(155,23,o),
(282,23,cs),
(348,23,o),
(392,47,o),
(412,59,c),
(412,29,ls),
(412,-73,o),
(365,-115,o),
(250,-115,cs),
(192,-115,o),
(134,-103,o),
(99,-87,c),
(83,-162,l),
(124,-176,o),
(183,-188,o),
(248,-188,cs)
);
},
{
closed = 1;
nodes = (
(211,96,o),
(141,147,o),
(141,272,cs),
(141,381,o),
(200,457,o),
(304,457,cs),
(361,457,o),
(391,451,o),
(411,445,c),
(411,133,l),
(386,113,o),
(340,96,o),
(288,96,cs)
);
}
);
width = 578;
}
);
note = gbreve;
unicode = 287;
},
{
glyphname = Gdotaccent;
kernLeft = G;
kernRight = G;
layers = (
{
layerId = m01;
shapes = (
{
closed = 1;
nodes = (
(403,775,o),
(428,797,o),
(428,831,cs),
(428,865,o),
(403,888,o),
(373,888,cs),
(342,888,o),
(318,865,o),
(318,831,cs),
(318,797,o),
(342,775,o),
(373,775,cs)
);
},
{
closed = 1;
nodes = (
(493,-14,o),
(573,8,o),
(601,20,c),
(601,337,l),
(513,337,l),
(513,76,l),
(496,71,o),
(454,63,o),
(393,63,cs),
(234,63,o),
(152,174,o),
(152,347,cs),
(152,531,o),
(252,630,o),
(393,630,cs),
(465,630,o),
(531,611,o),
(569,586,c),
(597,659,l),
(569,677,o),
(499,708,o),
(390,708,cs),
(209,708,o),
(59,579,o),
(59,347,cs),
(59,116,o),
(194,-14,o),
(382,-14,cs)
);
}
);
width = 668;
}
);
note = Gdotaccent;
unicode = 288;
},
{
glyphname = gdotaccent;
kernLeft = g;
kernRight = g;
layers = (
{
layerId = m01;
shapes = (
{
closed = 1;
nodes = (
(336,618,o),
(360,640,o),
(360,674,cs),
(360,708,o),
(336,731,o),
(305,731,cs),
(275,731,o),
(250,708,o),
(250,674,cs),
(250,640,o),
(275,618,o),
(305,618,cs)
);
},
{
closed = 1;
nodes = (
(414,-188,o),
(496,-123,o),
(496,36,cs),
(496,501,l),
(455,514,o),
(392,530,o),
(303,530,cs),
(146,530,o),
(53,420,o),
(53,272,cs),
(53,97,o),
(155,23,o),
(282,23,cs),
(348,23,o),
(392,47,o),
(412,59,c),
(412,29,ls),
(412,-73,o),
(365,-115,o),
(250,-115,cs),
(192,-115,o),
(134,-103,o),
(99,-87,c),
(83,-162,l),
(124,-176,o),
(183,-188,o),
(248,-188,cs)
);
},
{
closed = 1;
nodes = (
(211,96,o),
(141,147,o),
(141,272,cs),
(141,381,o),
(200,457,o),
(304,457,cs),
(361,457,o),
(391,451,o),
(411,445,c),
(411,133,l),
(386,113,o),
(340,96,o),
(288,96,cs)
);
}
);
width = 578;
}
);
note = gdotaccent;
unicode = 289;
},
{
glyphname = uni0122;
kernLeft = G;
kernRight = G;
layers = (
{
layerId = m01;
shapes = (
{
closed = 1;
nodes = (
(493,-14,o),
(573,8,o),
(601,20,c),
(601,337,l),
(513,337,l),
(513,76,l),
(496,71,o),
(454,63,o),
(393,63,cs),
(234,63,o),
(152,174,o),
(152,347,cs),
(152,531,o),
(252,630,o),
(393,630,cs),
(465,630,o),
(531,611,o),
(569,586,c),
(597,659,l),
(569,677,o),
(499,708,o),
(390,708,cs),
(209,708,o),
(59,579,o),
(59,347,cs),
(59,116,o),
(194,-14,o),
(382,-14,cs)
);
},
{
closed = 1;
nodes = (
(366,-194,o),
(416,-154,o),
(416,-76,cs),
(416,-72,o),
(416,-62,o),
(415,-54,c),
(339,-54,l),
(339,-68,ls),
(339,-119,o),
(318,-137,o),
(265,-137,c),
(265,-189,l),
(271,-192,o),
(288,-194,o),
(301,-194,cs)
);
}
);
width = 668;
}
);
note = uni0122;
unicode = 290;
},
{
glyphname = uni0123;
kernLeft = g;
kernRight = g;
layers = (
{
layerId = m01;
shapes = (
{
closed = 1;
nodes = (
(339,611,l),
(339,623,ls),
(339,697,o),
(364,717,o),
(395,737,c),
(368,782,l),
(317,769,o),
(259,726,o),
(260,630,cs),
(260,625,o),
(260,616,o),
(261,611,c)
);
},
{
closed = 1;
nodes = (
(414,-188,o),
(496,-123,o),
(496,36,cs),
(496,501,l),
(455,514,o),
(392,530,o),
(303,530,cs),
(146,530,o),
(53,420,o),
(53,272,cs),
(53,97,o),
(155,23,o),
(282,23,cs),
(348,23,o),
(392,47,o),
(412,59,c),
(412,29,ls),
(412,-73,o),
(365,-115,o),
(250,-115,cs),
(192,-115,o),
(134,-103,o),
(99,-87,c),
(83,-162,l),
(124,-176,o),
(183,-188,o),
(248,-188,cs)
);
},
{
closed = 1;
nodes = (
(211,96,o),
(141,147,o),
(141,272,cs),
(141,381,o),
(200,457,o),
(304,457,cs),
(361,457,o),
(391,451,o),
(411,445,c),
(411,133,l),
(386,113,o),
(340,96,o),
(288,96,cs)
);
}
);
width = 578;
}
);
note = uni0123;
unicode = 291;
},
{
glyphname = Hcircumflex;
kernLeft = D;
layers = (
{
layerId = m01;
shapes = (
{
closed = 1;
nodes = (
(248,741,l),
(351,833,l),
(454,741,l),
(488,780,l),
(351,925,l),
(213,780,l)
);
},
{
closed = 1;
nodes = (
(88,0,l),
(176,0,l),
(176,324,l),
(526,324,l),
(526,0,l),
(614,0,l),
(614,693,l),
(526,693,l),
(526,400,l),
(176,400,l),
(176,693,l),
(88,693,l)
);
}
);
width = 702;
}
);
note = Hcircumflex;
unicode = 292;
},
{
glyphname = hcircumflex;
kernLeft = h;
kernRight = h;
layers = (
{
layerId = m01;
shapes = (
{
closed = 1;
nodes = (
(87,817,l),
(186,884,l),
(284,817,l),
(311,859,l),
(186,959,l),
(60,859,l)
);
},
{
closed = 1;
nodes = (
(82,0,l),
(167,0,l),
(167,435,l),
(180,440,o),
(235,455,o),
(276,455,cs),
(381,455,o),
(413,405,o),
(413,271,cs),
(413,0,l),
(497,0,l),
(497,291,ls),
(497,433,o),
(450,530,o),
(287,530,cs),
(246,530,o),
(204,521,o),
(167,507,c),
(167,776,l),
(82,761,l)
);
}
);
width = 574;
}
);
note = hcircumflex;
unicode = 293;
},
{
glyphname = Hbar;
kernLeft = D;
layers = (
{
layerId = m01;
shapes = (
{
closed = 1;
nodes = (
(101,0,l),
(189,0,l),
(189,322,l),
(539,322,l),
(539,0,l),
(627,0,l),
(627,525,l),
(708,525,l),
(708,592,l),
(627,592,l),
(627,693,l),
(539,693,l),
(539,592,l),
(189,592,l),
(189,693,l),
(101,693,l),
(101,592,l),
(21,592,l),
(21,525,l),
(101,525,l)
);
},
{
closed = 1;
nodes = (
(189,398,l),
(189,525,l),
(539,525,l),
(539,398,l)
);
}
);
width = 728;
}
);
note = Hbar;
unicode = 294;
},
{
glyphname = hbar;
kernLeft = h;
kernRight = h;
layers = (
{
layerId = m01;
shapes = (
{
closed = 1;
nodes = (
(85,0,l),
(169,0,l),
(169,431,l),
(183,437,o),
(237,451,o),
(278,451,cs),
(383,451,o),
(415,402,o),
(415,267,cs),
(415,0,l),
(499,0,l),
(499,287,ls),
(499,430,o),
(452,526,o),
(289,526,cs),
(249,526,o),
(206,518,o),
(169,504,c),
(169,621,l),
(346,621,l),
(346,682,l),
(169,682,l),
(169,776,l),
(85,761,l),
(85,682,l),
(9,682,l),
(9,621,l),
(85,621,l)
);
}
);
width = 576;
}
);
note = hbar;
unicode = 295;
},
{
glyphname = Itilde;
kernLeft = D;
layers = (
{
layerId = m01;
shapes = (
{
closed = 1;
nodes = (
(15,775,l),
(27,798,o),
(42,820,o),
(70,820,cs),
(112,820,o),
(144,782,o),
(197,782,cs),
(252,782,o),
(284,833,o),
(298,867,c),
(252,892,l),
(239,869,o),
(225,847,o),
(197,847,cs),
(156,847,o),
(123,885,o),
(70,885,cs),
(15,885,o),
(-17,834,o),
(-31,800,c)
);
},
{
closed = 1;
nodes = (
(88,0,l),
(176,0,l),
(176,693,l),
(88,693,l)
);
}
);
width = 264;
}
);
note = Itilde;
unicode = 296;
},
{
glyphname = itilde;
kernLeft = i;
kernRight = i;
layers = (
{
layerId = m01;
shapes = (
{
closed = 1;
nodes = (
(7,617,l),
(20,640,o),
(34,662,o),
(62,662,cs),
(104,662,o),
(136,624,o),
(189,624,cs),
(244,624,o),
(276,675,o),
(290,709,c),
(244,734,l),
(232,711,o),
(217,689,o),
(189,689,cs),
(148,689,o),
(115,727,o),
(62,727,cs),
(7,727,o),
(-25,676,o),
(-39,642,c)
);
},
{
closed = 1;
nodes = (
(82,0,l),
(167,0,l),
(167,519,l),
(82,519,l)
);
}
);
width = 249;
}
);
note = itilde;
unicode = 297;
},
{
glyphname = Imacron;
kernLeft = D;
layers = (
{
layerId = m01;
shapes = (
{
closed = 1;
nodes = (
(-6,798,l),
(272,798,l),
(272,864,l),
(-6,864,l)
);
},
{
closed = 1;
nodes = (
(88,0,l),
(176,0,l),
(176,693,l),
(88,693,l)
);
}
);
width = 264;
}
);
note = Imacron;
unicode = 298;
},
{
glyphname = imacron;
kernLeft = i;
kernRight = i;
layers = (
{
layerId = m01;
shapes = (
{
closed = 1;
nodes = (
(-13,643,l),
(265,643,l),
(265,709,l),
(-13,709,l)
);
},
{
closed = 1;
nodes = (
(82,0,l),
(167,0,l),
(167,519,l),
(82,519,l)
);
}
);
width = 249;
}
);
note = imacron;
unicode = 299;
},
{
glyphname = Ibreve;
kernLeft = D;
layers = (
{
layerId = m01;
shapes = (
{
closed = 1;
nodes = (
(207,765,o),
(269,810,o),
(267,905,c),
(210,905,l),
(209,878,o),
(197,830,o),
(135,830,cs),
(73,830,o),
(62,878,o),
(60,905,c),
(4,905,l),
(2,810,o),
(64,765,o),
(135,765,cs)
);
},
{
closed = 1;
nodes = (
(88,0,l),
(176,0,l),
(176,693,l),
(88,693,l)
);
}
);
width = 264;
}
);
note = Ibreve;
unicode = 300;
},
{
glyphname = ibreve;
kernLeft = i;
kernRight = i;
layers = (
{
layerId = m01;
shapes = (
{
closed = 1;
nodes = (
(196,610,o),
(259,655,o),
(256,750,c),
(200,750,l),
(198,723,o),
(187,675,o),
(125,675,cs),
(63,675,o),
(52,723,o),
(50,750,c),
(-6,750,l),
(-8,655,o),
(54,610,o),
(125,610,cs)
);
},
{
closed = 1;
nodes = (
(82,0,l),
(167,0,l),
(167,519,l),
(82,519,l)
);
}
);
width = 249;
}
);
note = ibreve;
unicode = 301;
},
{
glyphname = Iogonek;
kernLeft = D;
layers = (
{
layerId = m01;
shapes = (
{
closed = 1;
nodes = (
(146,-194,o),
(174,-189,o),
(187,-183,c),
(181,-123,l),
(167,-128,o),
(152,-130,o),
(140,-130,cs),
(116,-130,o),
(101,-120,o),
(101,-98,cs),
(101,-62,o),
(151,-20,o),
(176,0,c),
(176,693,l),
(88,693,l),
(88,0,l),
(96,0,l),
(64,-23,o),
(19,-67,o),
(19,-119,cs),
(19,-163,o),
(48,-194,o),
(123,-194,cs)
);
}
);
width = 264;
}
);
note = Iogonek;
unicode = 302;
},
{
glyphname = iogonek;
kernLeft = i;
kernRight = i;
layers = (
{
layerId = m01;
shapes = (
{
closed = 1;
nodes = (
(156,615,o),
(181,638,o),
(181,674,cs),
(181,710,o),
(156,733,o),
(124,733,cs),
(92,733,o),
(67,710,o),
(67,674,cs),
(67,638,o),
(92,615,o),
(124,615,cs)
);
},
{
closed = 1;
nodes = (
(139,-194,o),
(167,-189,o),
(180,-183,c),
(174,-123,l),
(160,-128,o),
(145,-130,o),
(133,-130,cs),
(109,-130,o),
(94,-120,o),
(94,-98,cs),
(94,-62,o),
(136,-25,o),
(167,0,c),
(167,519,l),
(82,519,l),
(82,0,l),
(89,0,l),
(57,-23,o),
(12,-67,o),
(12,-119,cs),
(12,-163,o),
(41,-194,o),
(116,-194,cs)
);
}
);
width = 249;
}
);
note = iogonek;
unicode = 303;
},
{
glyphname = Idotaccent;
kernLeft = D;
layers = (
{
layerId = m01;
shapes = (
{
closed = 1;
nodes = (
(163,775,o),
(187,797,o),
(187,831,cs),
(187,865,o),
(163,888,o),
(132,888,cs),
(102,888,o),
(77,865,o),
(77,831,cs),
(77,797,o),
(102,775,o),
(132,775,cs)
);
},
{
closed = 1;
nodes = (
(88,0,l),
(176,0,l),
(176,693,l),
(88,693,l)
);
}
);
width = 264;
}
);
note = Idotaccent;
unicode = 304;
},
{
glyphname = dotlessi;
kernLeft = i;
kernRight = i;
layers = (
{
layerId = m01;
shapes = (
{
closed = 1;
nodes = (
(82,0,l),
(167,0,l),
(167,519,l),
(82,519,l)
);
}
);
width = 249;
}
);
note = dotlessi;
unicode = 305;
},
{
glyphname = i.locl;
kernLeft = i;
kernRight = i;
layers = (
{
layerId = m01;
shapes = (
{
closed = 1;
nodes = (
(156,615,o),
(181,638,o),
(181,674,cs),
(181,710,o),
(156,733,o),
(124,733,cs),
(92,733,o),
(67,710,o),
(67,674,cs),
(67,638,o),
(92,615,o),
(124,615,cs)
);
},
{
closed = 1;
nodes = (
(82,0,l),
(167,0,l),
(167,519,l),
(82,519,l)
);
}
);
width = 249;
}
);
note = i.locl;
},
{
glyphname = IJ;
kernRight = J;
layers = (
{
layerId = m01;
shapes = (
{
closed = 1;
nodes = (
(88,0,l),
(176,0,l),
(176,693,l),
(88,693,l)
);
},
{
closed = 1;
nodes = (
(627,-15,o),
(677,88,o),
(677,221,cs),
(677,693,l),
(589,693,l),
(589,229,ls),
(589,108,o),
(545,63,o),
(449,63,cs),
(383,63,o),
(337,91,o),
(309,113,c),
(272,43,l),
(298,20,o),
(362,-15,o),
(457,-15,cs)
);
}
);
width = 760;
}
);
note = IJ;
unicode = 306;
},
{
glyphname = ij;
kernLeft = i;
kernRight = j;
layers = (
{
layerId = m01;
shapes = (
{
closed = 1;
nodes = (
(156,615,o),
(181,638,o),
(181,674,cs),
(181,710,o),
(156,733,o),
(124,733,cs),
(92,733,o),
(67,710,o),
(67,674,cs),
(67,638,o),
(92,615,o),
(124,615,cs)
);
},
{
closed = 1;
nodes = (
(405,615,o),
(430,638,o),
(430,674,cs),
(430,710,o),
(405,733,o),
(373,733,cs),
(341,733,o),
(316,710,o),
(316,674,cs),
(316,638,o),
(341,615,o),
(373,615,cs)
);
},
{
closed = 1;
nodes = (
(82,0,l),
(167,0,l),
(167,519,l),
(82,519,l)
);
},
{
closed = 1;
nodes = (
(365,-187,o),
(416,-124,o),
(416,8,cs),
(416,519,l),
(331,519,l),
(331,7,ls),
(331,-73,o),
(313,-114,o),
(241,-114,cs),
(224,-114,o),
(207,-111,o),
(195,-107,c),
(184,-176,l),
(200,-182,o),
(230,-187,o),
(245,-187,cs)
);
}
);
width = 498;
}
);
note = ij;
unicode = 307;
},
{
glyphname = Jcircumflex;
kernLeft = J;
kernRight = J;
layers = (
{
layerId = m01;
shapes = (
{
closed = 1;
nodes = (
(266,741,l),
(369,833,l),
(472,741,l),
(506,780,l),
(369,925,l),
(231,780,l)
);
},
{
closed = 1;
nodes = (
(363,-15,o),
(414,88,o),
(414,221,cs),
(414,693,l),
(325,693,l),
(325,229,ls),
(325,108,o),
(281,63,o),
(185,63,cs),
(119,63,o),
(73,91,o),
(45,113,c),
(8,43,l),
(35,20,o),
(99,-15,o),
(193,-15,cs)
);
}
);
width = 497;
}
);
note = Jcircumflex;
unicode = 308;
},
{
glyphname = jcircumflex;
kernLeft = j;
kernRight = j;
layers = (
{
layerId = m01;
shapes = (
{
closed = 1;
nodes = (
(22,583,l),
(125,674,l),
(228,583,l),
(262,622,l),
(125,767,l),
(-13,622,l)
);
},
{
closed = 1;
nodes = (
(116,-187,o),
(167,-124,o),
(167,8,cs),
(167,519,l),
(82,519,l),
(82,7,ls),
(82,-73,o),
(64,-114,o),
(-8,-114,cs),
(-25,-114,o),
(-42,-111,o),
(-54,-107,c),
(-65,-176,l),
(-49,-182,o),
(-19,-187,o),
(-4,-187,cs)
);
}
);
width = 249;
}
);
note = jcircumflex;
unicode = 309;
},
{
glyphname = uni0136;
kernLeft = K;
kernRight = K;
layers = (
{
layerId = m01;
shapes = (
{
closed = 1;
nodes = (
(88,0,l),
(176,0,l),
(176,332,l),
(290,264,o),
(425,128,o),
(507,0,c),
(609,0,l),
(542,121,o),
(381,293,o),
(266,369,c),
(365,461,o),
(507,604,o),
(587,693,c),
(481,693,l),
(415,618,o),
(272,474,o),
(176,384,c),
(176,693,l),
(88,693,l)
);
},
{
closed = 1;
nodes = (
(327,-194,o),
(377,-154,o),
(377,-76,cs),
(377,-72,o),
(377,-62,o),
(375,-54,c),
(299,-54,l),
(299,-68,ls),
(299,-119,o),
(279,-137,o),
(225,-137,c),
(225,-189,l),
(232,-192,o),
(249,-194,o),
(261,-194,cs)
);
}
);
width = 619;
}
);
note = uni0136;
unicode = 310;
},
{
glyphname = uni0137;
kernLeft = k;
kernRight = k;
layers = (
{
layerId = m01;
shapes = (
{
closed = 1;
nodes = (
(82,0,l),
(167,0,l),
(167,253,l),
(243,202,o),
(341,97,o),
(400,0,c),
(498,0,l),
(444,95,o),
(336,224,o),
(253,284,c),
(323,354,o),
(417,452,o),
(480,519,c),
(379,519,l),
(330,462,o),
(231,360,o),
(167,296,c),
(167,776,l),
(82,761,l)
);
},
{
closed = 1;
nodes = (
(269,-194,o),
(319,-154,o),
(319,-76,cs),
(319,-72,o),
(319,-62,o),
(318,-54,c),
(241,-54,l),
(241,-68,ls),
(241,-119,o),
(221,-137,o),
(168,-137,c),
(168,-189,l),
(174,-192,o),
(191,-194,o),
(203,-194,cs)
);
}
);
width = 514;
}
);
note = uni0137;
unicode = 311;
},
{
glyphname = kgreenlandic.case;
kernLeft = K;
kernRight = K;
layers = (
{
layerId = m01;
shapes = (
{
closed = 1;
nodes = (
(701,523,l),
(699,537,o),
(699,552,o),
(699,564,cs),
(699,615,o),
(712,673,o),
(743,736,c),
(682,758,l),
(636,694,o),
(610,622,o),
(610,543,cs),
(610,539,o),
(611,530,o),
(611,523,c)
);
},
{
closed = 1;
nodes = (
(88,0,l),
(176,0,l),
(176,332,l),
(290,264,o),
(425,128,o),
(507,0,c),
(609,0,l),
(542,121,o),
(381,293,o),
(266,369,c),
(365,461,o),
(507,604,o),
(587,693,c),
(481,693,l),
(415,618,o),
(272,474,o),
(176,384,c),
(176,693,l),
(88,693,l)
);
}
);
width = 713;
}
);
note = kgreenlandic.case;
},
{
glyphname = kgreenlandic;
kernRight = k;
layers = (
{
layerId = m01;
shapes = (
{
closed = 1;
nodes = (
(82,0,l),
(167,0,l),
(167,248,l),
(242,200,o),
(350,92,o),
(409,0,c),
(507,0,l),
(454,93,o),
(343,215,o),
(253,279,c),
(315,338,o),
(427,450,o),
(489,519,c),
(388,519,l),
(344,469,o),
(238,359,o),
(167,290,c),
(167,519,l),
(82,519,l)
);
}
);
width = 523;
}
);
note = kgreenlandic;
unicode = 312;
},
{
glyphname = Lacute;
kernLeft = L;
kernRight = L;
layers = (
{
layerId = m01;
shapes = (
{
closed = 1;
nodes = (
(119,738,l),
(289,877,l),
(232,936,l),
(78,782,l)
);
},
{
closed = 1;
nodes = (
(88,0,l),
(498,0,l),
(498,76,l),
(176,76,l),
(176,693,l),
(88,693,l)
);
}
);
width = 516;
}
);
note = Lacute;
unicode = 313;
},
{
glyphname = lacute;
kernLeft = l;
kernRight = l;
layers = (
{
layerId = m01;
shapes = (
{
closed = 1;
nodes = (
(82,816,l),
(260,877,l),
(234,945,l),
(64,863,l)
);
},
{
closed = 1;
nodes = (
(243,61,l),
(186,69,o),
(166,81,o),
(166,144,cs),
(166,776,l),
(82,761,l),
(82,135,ls),
(82,34,o),
(125,-5,o),
(231,-9,c)
);
}
);
width = 269;
}
);
note = lacute;
unicode = 314;
},
{
glyphname = uni013B;
kernLeft = L;
kernRight = L;
layers = (
{
layerId = m01;
shapes = (
{
closed = 1;
nodes = (
(88,0,l),
(498,0,l),
(498,76,l),
(176,76,l),
(176,693,l),
(88,693,l)
);
},
{
closed = 1;
nodes = (
(293,-194,o),
(343,-154,o),
(343,-76,cs),
(343,-72,o),
(343,-62,o),
(342,-54,c),
(265,-54,l),
(265,-68,ls),
(265,-119,o),
(245,-137,o),
(192,-137,c),
(192,-189,l),
(198,-192,o),
(215,-194,o),
(227,-194,cs)
);
}
);
width = 516;
}
);
note = uni013B;
unicode = 315;
},
{
glyphname = uni013C;
kernLeft = l;
kernRight = l;
layers = (
{
layerId = m01;
shapes = (
{
closed = 1;
nodes = (
(243,61,l),
(186,69,o),
(166,81,o),
(166,144,cs),
(166,776,l),
(82,761,l),
(82,135,ls),
(82,34,o),
(125,-5,o),
(231,-9,c)
);
},
{
closed = 1;
nodes = (
(142,-194,o),
(192,-154,o),
(192,-76,cs),
(192,-72,o),
(192,-62,o),
(190,-54,c),
(114,-54,l),
(114,-68,ls),
(114,-119,o),
(94,-137,o),
(40,-137,c),
(40,-189,l),
(47,-192,o),
(64,-194,o),
(76,-194,cs)
);
}
);
width = 269;
}
);
note = uni013C;
unicode = 316;
},
{
glyphname = Lcaron;
kernLeft = L;
kernRight = L;
layers = (
{
layerId = m01;
shapes = (
{
closed = 1;
nodes = (
(275,471,l),
(332,471,l),
(358,694,l),
(275,694,l)
);
},
{
closed = 1;
nodes = (
(88,0,l),
(498,0,l),
(498,76,l),
(176,76,l),
(176,693,l),
(88,693,l)
);
}
);
width = 516;
}
);
note = Lcaron;
unicode = 317;
},
{
glyphname = lcaron;
kernLeft = l;
kernRight = lcaron;
layers = (
{
layerId = m01;
shapes = (
{
closed = 1;
nodes = (
(243,61,l),
(186,69,o),
(166,81,o),
(166,144,cs),
(166,776,l),
(82,761,l),
(82,135,ls),
(82,34,o),
(125,-5,o),
(231,-9,c)
);
},
{
closed = 1;
nodes = (
(243,553,l),
(299,553,l),
(325,776,l),
(243,776,l)
);
}
);
width = 291;
}
);
note = lcaron;
unicode = 318;
},
{
glyphname = Ldot;
kernLeft = L;
kernRight = L;
layers = (
{
layerId = m01;
shapes = (
{
closed = 1;
nodes = (
(88,0,l),
(498,0,l),
(498,76,l),
(176,76,l),
(176,693,l),
(88,693,l)
);
},
{
closed = 1;
nodes = (
(420,316,o),
(445,339,o),
(445,373,cs),
(445,407,o),
(420,429,o),
(389,429,cs),
(359,429,o),
(334,407,o),
(334,373,cs),
(334,339,o),
(359,316,o),
(389,316,cs)
);
}
);
width = 516;
}
);
note = Ldot;
unicode = 319;
},
{
glyphname = ldot;
kernLeft = l;
kernRight = l;
layers = (
{
layerId = m01;
shapes = (
{
closed = 1;
nodes = (
(243,61,l),
(186,69,o),
(166,81,o),
(166,144,cs),
(166,776,l),
(82,761,l),
(82,135,ls),
(82,34,o),
(125,-5,o),
(231,-9,c)
);
},
{
closed = 1;
nodes = (
(333,319,o),
(358,341,o),
(358,375,cs),
(358,409,o),
(333,431,o),
(302,431,cs),
(272,431,o),
(247,409,o),
(247,375,cs),
(247,341,o),
(272,319,o),
(302,319,cs)
);
}
);
width = 357;
}
);
note = ldot;
unicode = 320;
},
{
glyphname = Lslash;
kernLeft = L;
kernRight = L;
layers = (
{
layerId = m01;
shapes = (
{
closed = 1;
nodes = (
(106,0,l),
(515,0,l),
(515,76,l),
(194,76,l),
(194,330,l),
(338,405,l),
(309,465,l),
(194,406,l),
(194,693,l),
(106,693,l),
(106,362,l),
(1,308,l),
(31,248,l),
(106,286,l)
);
}
);
width = 534;
}
);
note = Lslash;
unicode = 321;
},
{
glyphname = lslash;
kernLeft = l;
kernRight = l;
layers = (
{
layerId = m01;
shapes = (
{
closed = 1;
nodes = (
(253,60,l),
(196,68,o),
(176,81,o),
(176,143,cs),
(176,385,l),
(277,437,l),
(249,495,l),
(176,458,l),
(176,776,l),
(92,761,l),
(92,414,l),
(8,371,l),
(36,313,l),
(92,342,l),
(92,135,ls),
(92,33,o),
(135,-5,o),
(242,-10,c)
);
}
);
width = 280;
}
);
note = lslash;
unicode = 322;
},
{
glyphname = Nacute;
kernLeft = D;
layers = (
{
layerId = m01;
shapes = (
{
closed = 1;
nodes = (
(325,738,l),
(495,877,l),
(438,936,l),
(284,782,l)
);
},
{
closed = 1;
nodes = (
(88,0,l),
(175,0,l),
(175,554,l),
(292,417,o),
(478,144,o),
(558,0,c),
(632,0,l),
(632,693,l),
(545,693,l),
(545,165,l),
(459,312,o),
(284,555,o),
(158,693,c),
(88,693,l)
);
}
);
width = 720;
}
);
note = Nacute;
unicode = 323;
},
{
glyphname = nacute;
kernLeft = n;
kernRight = n;
layers = (
{
layerId = m01;
shapes = (
{
closed = 1;
nodes = (
(252,581,l),
(422,720,l),
(365,779,l),
(211,625,l)
);
},
{
closed = 1;
nodes = (
(82,0,l),
(167,0,l),
(167,443,l),
(181,448,o),
(225,455,o),
(277,455,cs),
(380,455,o),
(413,405,o),
(413,271,cs),
(413,0,l),
(497,0,l),
(497,291,ls),
(497,433,o),
(449,530,o),
(286,530,cs),
(194,530,o),
(124,513,o),
(82,501,c)
);
}
);
width = 574;
}
);
note = nacute;
unicode = 324;
},
{
glyphname = uni0145;
kernLeft = D;
layers = (
{
layerId = m01;
shapes = (
{
closed = 1;
nodes = (
(88,0,l),
(175,0,l),
(175,554,l),
(292,417,o),
(478,144,o),
(558,0,c),
(632,0,l),
(632,693,l),
(545,693,l),
(545,165,l),
(459,312,o),
(284,555,o),
(158,693,c),
(88,693,l)
);
},
{
closed = 1;
nodes = (
(357,-194,o),
(406,-154,o),
(406,-76,cs),
(406,-72,o),
(406,-62,o),
(405,-54,c),
(329,-54,l),
(329,-68,ls),
(329,-119,o),
(308,-137,o),
(255,-137,c),
(255,-189,l),
(262,-192,o),
(278,-194,o),
(291,-194,cs)
);
}
);
width = 720;
}
);
note = uni0145;
unicode = 325;
},
{
glyphname = uni0146;
kernLeft = n;
kernRight = n;
layers = (
{
layerId = m01;
shapes = (
{
closed = 1;
nodes = (
(82,0,l),
(167,0,l),
(167,443,l),
(181,448,o),
(225,455,o),
(277,455,cs),
(380,455,o),
(413,405,o),
(413,271,cs),
(413,0,l),
(497,0,l),
(497,291,ls),
(497,433,o),
(449,530,o),
(286,530,cs),
(194,530,o),
(124,513,o),
(82,501,c)
);
},
{
closed = 1;
nodes = (
(282,-194,o),
(332,-154,o),
(332,-76,cs),
(332,-72,o),
(332,-62,o),
(330,-54,c),
(254,-54,l),
(254,-68,ls),
(254,-119,o),
(233,-137,o),
(180,-137,c),
(180,-189,l),
(187,-192,o),
(203,-194,o),
(216,-194,cs)
);
}
);
width = 574;
}
);
note = uni0146;
unicode = 326;
},
{
glyphname = Ncaron;
kernLeft = D;
layers = (
{
layerId = m01;
shapes = (
{
closed = 1;
nodes = (
(357,744,l),
(494,889,l),
(460,928,l),
(357,836,l),
(253,928,l),
(219,889,l)
);
},
{
closed = 1;
nodes = (
(88,0,l),
(175,0,l),
(175,554,l),
(292,417,o),
(478,144,o),
(558,0,c),
(632,0,l),
(632,693,l),
(545,693,l),
(545,165,l),
(459,312,o),
(284,555,o),
(158,693,c),
(88,693,l)
);
}
);
width = 720;
}
);
note = Ncaron;
unicode = 327;
},
{
glyphname = ncaron;
kernLeft = n;
kernRight = n;
layers = (
{
layerId = m01;
shapes = (
{
closed = 1;
nodes = (
(288,587,l),
(426,731,l),
(391,771,l),
(288,679,l),
(185,771,l),
(151,731,l)
);
},
{
closed = 1;
nodes = (
(82,0,l),
(167,0,l),
(167,443,l),
(181,448,o),
(225,455,o),
(277,455,cs),
(380,455,o),
(413,405,o),
(413,271,cs),
(413,0,l),
(497,0,l),
(497,291,ls),
(497,433,o),
(449,530,o),
(286,530,cs),
(194,530,o),
(124,513,o),
(82,501,c)
);
}
);
width = 574;
}
);
note = ncaron;
unicode = 328;
},
{
glyphname = napostrophe.case;
layers = (
{
layerId = m01;
shapes = (
{
closed = 1;
nodes = (
(57,562,l),
(93,623,o),
(118,674,o),
(122,748,cs),
(123,757,o),
(123,766,o),
(123,776,c),
(37,776,l),
(38,768,o),
(39,752,o),
(39,739,cs),
(39,686,o),
(24,635,o),
(0,585,c)
);
},
{
closed = 1;
nodes = (
(179,0,l),
(266,0,l),
(266,554,l),
(383,417,o),
(569,144,o),
(649,0,c),
(723,0,l),
(723,693,l),
(636,693,l),
(636,165,l),
(550,312,o),
(375,555,o),
(249,693,c),
(179,693,l)
);
}
);
width = 811;
}
);
note = napostrophe.case;
},
{
glyphname = napostrophe;
kernLeft = n;
kernRight = n;
layers = (
{
layerId = m01;
shapes = (
{
closed = 1;
nodes = (
(75,562,l),
(112,623,o),
(136,674,o),
(140,748,cs),
(141,757,o),
(141,766,o),
(141,776,c),
(55,776,l),
(57,768,o),
(58,752,o),
(58,739,cs),
(58,686,o),
(42,635,o),
(18,585,c)
);
},
{
closed = 1;
nodes = (
(89,0,l),
(174,0,l),
(174,443,l),
(188,448,o),
(232,455,o),
(283,455,cs),
(387,455,o),
(420,405,o),
(420,271,cs),
(420,0,l),
(504,0,l),
(504,291,ls),
(504,433,o),
(456,530,o),
(293,530,cs),
(201,530,o),
(131,513,o),
(89,501,c)
);
}
);
width = 581;
}
);
note = napostrophe;
unicode = 329;
},
{
glyphname = Eng;
kernLeft = Eng;
kernRight = Eng;
layers = (
{
layerId = m01;
shapes = (
{
closed = 1;
nodes = (
(607,-187,o),
(632,-118,o),
(632,-16,cs),
(632,693,l),
(545,693,l),
(545,165,l),
(459,312,o),
(284,555,o),
(158,693,c),
(88,693,l),
(88,0,l),
(175,0,l),
(175,554,l),
(286,424,o),
(461,169,o),
(545,23,c),
(545,-24,ls),
(545,-85,o),
(528,-114,o),
(479,-114,cs),
(461,-114,o),
(448,-112,o),
(438,-108,c),
(427,-177,l),
(442,-183,o),
(468,-187,o),
(490,-187,cs)
);
}
);
width = 720;
}
);
note = Eng;
unicode = 330;
},
{
glyphname = eng;
kernLeft = eng;
kernRight = eng;
layers = (
{
layerId = m01;
shapes = (
{
closed = 1;
nodes = (
(475,-186,o),
(497,-119,o),
(497,-19,cs),
(497,291,ls),
(497,433,o),
(449,530,o),
(286,530,cs),
(194,530,o),
(124,513,o),
(82,501,c),
(82,0,l),
(167,0,l),
(167,443,l),
(181,448,o),
(225,455,o),
(277,455,cs),
(380,455,o),
(413,405,o),
(413,271,cs),
(413,-29,ls),
(413,-89,o),
(396,-117,o),
(348,-117,cs),
(331,-117,o),
(318,-115,o),
(310,-111,c),
(299,-177,l),
(313,-182,o),
(337,-186,o),
(358,-186,cs)
);
}
);
width = 574;
}
);
note = eng;
unicode = 331;
},
{
glyphname = Omacron;
kernLeft = O;
kernRight = O;
layers = (
{
layerId = m01;
shapes = (
{
closed = 1;
nodes = (
(250,798,l),
(528,798,l),
(528,864,l),
(250,864,l)
);
},
{
closed = 1;
nodes = (
(569,-15,o),
(718,109,o),
(718,347,cs),
(718,585,o),
(567,708,o),
(389,708,cs),
(212,708,o),
(59,585,o),
(59,347,cs),
(59,109,o),
(210,-15,o),
(389,-15,cs)
);
},
{
closed = 1;
nodes = (
(244,64,o),
(152,173,o),
(152,347,cs),
(152,521,o),
(244,630,o),
(389,630,cs),
(534,630,o),
(626,522,o),
(626,347,cs),
(626,173,o),
(534,64,o),
(389,64,cs)
);
}
);
width = 778;
}
);
note = Omacron;
unicode = 332;
},
{
glyphname = omacron;
kernLeft = o;
kernRight = o;
layers = (
{
layerId = m01;
shapes = (
{
closed = 1;
nodes = (
(155,643,l),
(433,643,l),
(433,709,l),
(155,709,l)
);
},
{
closed = 1;
nodes = (
(436,-12,o),
(535,96,o),
(535,259,cs),
(535,423,o),
(435,532,o),
(294,532,cs),
(153,532,o),
(53,423,o),
(53,259,cs),
(53,96,o),
(152,-12,o),
(294,-12,cs)
);
},
{
closed = 1;
nodes = (
(200,62,o),
(141,139,o),
(141,259,cs),
(141,380,o),
(200,457,o),
(294,457,cs),
(388,457,o),
(447,380,o),
(447,259,cs),
(447,139,o),
(388,62,o),
(294,62,cs)
);
}
);
width = 588;
}
);
note = omacron;
unicode = 333;
},
{
glyphname = Obreve;
kernLeft = O;
kernRight = O;
layers = (
{
layerId = m01;
shapes = (
{
closed = 1;
nodes = (
(460,765,o),
(522,810,o),
(520,905,c),
(464,905,l),
(462,878,o),
(451,830,o),
(389,830,cs),
(327,830,o),
(316,878,o),
(314,905,c),
(258,905,l),
(255,810,o),
(318,765,o),
(389,765,cs)
);
},
{
closed = 1;
nodes = (
(569,-15,o),
(718,109,o),
(718,347,cs),
(718,585,o),
(567,708,o),
(389,708,cs),
(212,708,o),
(59,585,o),
(59,347,cs),
(59,109,o),
(210,-15,o),
(389,-15,cs)
);
},
{
closed = 1;
nodes = (
(244,64,o),
(152,173,o),
(152,347,cs),
(152,521,o),
(244,630,o),
(389,630,cs),
(534,630,o),
(626,522,o),
(626,347,cs),
(626,173,o),
(534,64,o),
(389,64,cs)
);
}
);
width = 778;
}
);
note = Obreve;
unicode = 334;
},
{
glyphname = obreve;
kernLeft = o;
kernRight = o;
layers = (
{
layerId = m01;
shapes = (
{
closed = 1;
nodes = (
(365,610,o),
(427,655,o),
(425,750,c),
(369,750,l),
(367,723,o),
(356,675,o),
(294,675,cs),
(232,675,o),
(221,723,o),
(219,750,c),
(163,750,l),
(160,655,o),
(223,610,o),
(294,610,cs)
);
},
{
closed = 1;
nodes = (
(436,-12,o),
(535,96,o),
(535,259,cs),
(535,423,o),
(435,532,o),
(294,532,cs),
(153,532,o),
(53,423,o),
(53,259,cs),
(53,96,o),
(152,-12,o),
(294,-12,cs)
);
},
{
closed = 1;
nodes = (
(200,62,o),
(141,139,o),
(141,259,cs),
(141,380,o),
(200,457,o),
(294,457,cs),
(388,457,o),
(447,380,o),
(447,259,cs),
(447,139,o),
(388,62,o),
(294,62,cs)
);
}
);
width = 588;
}
);
note = obreve;
unicode = 335;
},
{
glyphname = Ohungarumlaut;
kernLeft = O;
kernRight = O;
layers = (
{
layerId = m01;
shapes = (
{
closed = 1;
nodes = (
(478,738,l),
(607,888,l),
(552,936,l),
(432,772,l)
);
},
{
closed = 1;
nodes = (
(311,738,l),
(440,888,l),
(384,936,l),
(265,772,l)
);
},
{
closed = 1;
nodes = (
(569,-15,o),
(718,109,o),
(718,347,cs),
(718,585,o),
(567,708,o),
(389,708,cs),
(212,708,o),
(59,585,o),
(59,347,cs),
(59,109,o),
(210,-15,o),
(389,-15,cs)
);
},
{
closed = 1;
nodes = (
(244,64,o),
(152,173,o),
(152,347,cs),
(152,521,o),
(244,630,o),
(389,630,cs),
(534,630,o),
(626,522,o),
(626,347,cs),
(626,173,o),
(534,64,o),
(389,64,cs)
);
}
);
width = 778;
}
);
note = Ohungarumlaut;
unicode = 336;
},
{
glyphname = ohungarumlaut;
kernLeft = o;
kernRight = o;
layers = (
{
layerId = m01;
shapes = (
{
closed = 1;
nodes = (
(381,581,l),
(510,731,l),
(455,779,l),
(336,615,l)
);
},
{
closed = 1;
nodes = (
(214,581,l),
(343,731,l),
(288,779,l),
(168,615,l)
);
},
{
closed = 1;
nodes = (
(436,-12,o),
(535,96,o),
(535,259,cs),
(535,423,o),
(435,532,o),
(294,532,cs),
(153,532,o),
(53,423,o),
(53,259,cs),
(53,96,o),
(152,-12,o),
(294,-12,cs)
);
},
{
closed = 1;
nodes = (
(200,62,o),
(141,139,o),
(141,259,cs),
(141,380,o),
(200,457,o),
(294,457,cs),
(388,457,o),
(447,380,o),
(447,259,cs),
(447,139,o),
(388,62,o),
(294,62,cs)
);
}
);
width = 588;
}
);
note = ohungarumlaut;
unicode = 337;
},
{
glyphname = Racute;
kernLeft = R;
kernRight = R;
layers = (
{
layerId = m01;
shapes = (
{
closed = 1;
nodes = (
(262,738,l),
(432,877,l),
(376,936,l),
(221,782,l)
);
},
{
closed = 1;
nodes = (
(88,0,l),
(176,0,l),
(176,274,l),
(280,274,ls),
(297,274,o),
(313,275,o),
(329,276,c),
(379,213,o),
(456,103,o),
(510,0,c),
(606,0,l),
(557,105,o),
(467,237,o),
(420,294,c),
(507,322,o),
(564,381,o),
(564,482,cs),
(564,626,o),
(462,699,o),
(268,699,cs),
(213,699,o),
(140,694,o),
(88,681,c)
);
},
{
closed = 1;
nodes = (
(176,347,l),
(176,617,l),
(199,620,o),
(233,623,o),
(277,623,cs),
(381,623,o),
(472,594,o),
(472,483,cs),
(472,365,o),
(382,347,o),
(258,347,cs)
);
}
);
width = 629;
}
);
note = Racute;
unicode = 340;
},
{
glyphname = racute;
kernLeft = r;
kernRight = r;
layers = (
{
layerId = m01;
shapes = (
{
closed = 1;
nodes = (
(196,581,l),
(365,720,l),
(309,779,l),
(155,625,l)
);
},
{
closed = 1;
nodes = (
(82,0,l),
(167,0,l),
(167,441,l),
(177,446,o),
(211,455,o),
(259,455,cs),
(309,455,o),
(344,447,o),
(358,442,c),
(374,513,l),
(355,521,o),
(307,529,o),
(268,529,cs),
(182,529,o),
(120,509,o),
(82,494,c)
);
}
);
width = 385;
}
);
note = racute;
unicode = 341;
},
{
glyphname = uni0156;
kernLeft = R;
kernRight = R;
layers = (
{
layerId = m01;
shapes = (
{
closed = 1;
nodes = (
(88,0,l),
(176,0,l),
(176,274,l),
(280,274,ls),
(297,274,o),
(313,275,o),
(329,276,c),
(379,213,o),
(456,103,o),
(510,0,c),
(606,0,l),
(557,105,o),
(467,237,o),
(420,294,c),
(507,322,o),
(564,381,o),
(564,482,cs),
(564,626,o),
(462,699,o),
(268,699,cs),
(213,699,o),
(140,694,o),
(88,681,c)
);
},
{
closed = 1;
nodes = (
(176,347,l),
(176,617,l),
(199,620,o),
(233,623,o),
(277,623,cs),
(381,623,o),
(472,594,o),
(472,483,cs),
(472,365,o),
(382,347,o),
(258,347,cs)
);
},
{
closed = 1;
nodes = (
(324,-194,o),
(374,-154,o),
(374,-76,cs),
(374,-72,o),
(374,-62,o),
(372,-54,c),
(296,-54,l),
(296,-68,ls),
(296,-119,o),
(275,-137,o),
(222,-137,c),
(222,-189,l),
(229,-192,o),
(245,-194,o),
(258,-194,cs)
);
}
);
width = 629;
}
);
note = uni0156;
unicode = 342;
},
{
glyphname = uni0157;
kernLeft = r;
kernRight = r;
layers = (
{
layerId = m01;
shapes = (
{
closed = 1;
nodes = (
(82,0,l),
(167,0,l),
(167,441,l),
(177,446,o),
(211,455,o),
(259,455,cs),
(309,455,o),
(344,447,o),
(358,442,c),
(374,513,l),
(355,521,o),
(307,529,o),
(268,529,cs),
(182,529,o),
(120,509,o),
(82,494,c)
);
},
{
closed = 1;
nodes = (
(115,-194,o),
(165,-154,o),
(165,-76,cs),
(165,-72,o),
(165,-62,o),
(163,-54,c),
(87,-54,l),
(87,-68,ls),
(87,-119,o),
(67,-137,o),
(13,-137,c),
(13,-189,l),
(20,-192,o),
(37,-194,o),
(49,-194,cs)
);
}
);
width = 385;
}
);
note = uni0157;
unicode = 343;
},
{
glyphname = Rcaron;
kernLeft = R;
kernRight = R;
layers = (
{
layerId = m01;
shapes = (
{
closed = 1;
nodes = (
(296,744,l),
(434,889,l),
(399,928,l),
(296,836,l),
(193,928,l),
(159,889,l)
);
},
{
closed = 1;
nodes = (
(88,0,l),
(176,0,l),
(176,274,l),
(280,274,ls),
(297,274,o),
(313,275,o),
(329,276,c),
(379,213,o),
(456,103,o),
(510,0,c),
(606,0,l),
(557,105,o),
(467,237,o),
(420,294,c),
(507,322,o),
(564,381,o),
(564,482,cs),
(564,626,o),
(462,699,o),
(268,699,cs),
(213,699,o),
(140,694,o),
(88,681,c)
);
},
{
closed = 1;
nodes = (
(176,347,l),
(176,617,l),
(199,620,o),
(233,623,o),
(277,623,cs),
(381,623,o),
(472,594,o),
(472,483,cs),
(472,365,o),
(382,347,o),
(258,347,cs)
);
}
);
width = 629;
}
);
note = Rcaron;
unicode = 344;
},
{
glyphname = rcaron;
kernLeft = r;
kernRight = r;
layers = (
{
layerId = m01;
shapes = (
{
closed = 1;
nodes = (
(231,587,l),
(369,731,l),
(334,771,l),
(231,679,l),
(128,771,l),
(94,731,l)
);
},
{
closed = 1;
nodes = (
(82,0,l),
(167,0,l),
(167,441,l),
(177,446,o),
(211,455,o),
(259,455,cs),
(309,455,o),
(344,447,o),
(358,442,c),
(374,513,l),
(355,521,o),
(307,529,o),
(268,529,cs),
(182,529,o),
(120,509,o),
(82,494,c)
);
}
);
width = 385;
}
);
note = rcaron;
unicode = 345;
},
{
glyphname = Sacute;
kernLeft = S;
kernRight = S;
layers = (
{
layerId = m01;
shapes = (
{
closed = 1;
nodes = (
(240,738,l),
(409,877,l),
(353,936,l),
(199,782,l)
);
},
{
closed = 1;
nodes = (
(402,-15,o),
(495,51,o),
(495,177,cs),
(495,306,o),
(409,346,o),
(292,393,cs),
(206,427,o),
(142,451,o),
(142,528,cs),
(142,601,o),
(198,632,o),
(282,632,cs),
(346,632,o),
(402,615,o),
(440,590,c),
(469,662,l),
(432,685,o),
(362,708,o),
(282,708,cs),
(140,708,o),
(52,641,o),
(52,521,cs),
(52,411,o),
(128,367,o),
(237,324,cs),
(331,288,o),
(403,263,o),
(403,174,cs),
(403,97,o),
(349,61,o),
(246,61,cs),
(154,61,o),
(92,91,o),
(62,108,c),
(35,34,l),
(63,17,o),
(135,-15,o),
(245,-15,cs)
);
}
);
width = 532;
}
);
note = Sacute;
unicode = 346;
},
{
glyphname = sacute;
kernLeft = s;
kernRight = s;
layers = (
{
layerId = m01;
shapes = (
{
closed = 1;
nodes = (
(186,581,l),
(356,720,l),
(299,779,l),
(145,625,l)
);
},
{
closed = 1;
nodes = (
(325,-12,o),
(401,38,o),
(401,133,cs),
(401,229,o),
(336,260,o),
(245,296,cs),
(170,325,o),
(134,342,o),
(134,391,cs),
(134,439,o),
(178,460,o),
(234,460,cs),
(302,460,o),
(338,444,o),
(358,435,c),
(376,506,l),
(354,516,o),
(302,532,o),
(234,532,cs),
(119,532,o),
(49,474,o),
(49,386,cs),
(49,296,o),
(116,264,o),
(196,232,cs),
(284,197,o),
(315,181,o),
(315,131,cs),
(315,79,o),
(269,60,o),
(199,60,cs),
(124,60,o),
(77,83,o),
(59,90,c),
(40,17,l),
(58,9,o),
(108,-12,o),
(198,-12,cs)
);
}
);
width = 441;
}
);
note = sacute;
unicode = 347;
},
{
glyphname = Scircumflex;
kernLeft = S;
kernRight = S;
layers = (
{
layerId = m01;
shapes = (
{
closed = 1;
nodes = (
(170,741,l),
(273,833,l),
(376,741,l),
(410,780,l),
(273,925,l),
(135,780,l)
);
},
{
closed = 1;
nodes = (
(402,-15,o),
(495,51,o),
(495,177,cs),
(495,306,o),
(409,346,o),
(292,393,cs),
(206,427,o),
(142,451,o),
(142,528,cs),
(142,601,o),
(198,632,o),
(282,632,cs),
(346,632,o),
(402,615,o),
(440,590,c),
(469,662,l),
(432,685,o),
(362,708,o),
(282,708,cs),
(140,708,o),
(52,641,o),
(52,521,cs),
(52,411,o),
(128,367,o),
(237,324,cs),
(331,288,o),
(403,263,o),
(403,174,cs),
(403,97,o),
(349,61,o),
(246,61,cs),
(154,61,o),
(92,91,o),
(62,108,c),
(35,34,l),
(63,17,o),
(135,-15,o),
(245,-15,cs)
);
}
);
width = 532;
}
);
note = Scircumflex;
unicode = 348;
},
{
glyphname = scircumflex;
kernLeft = s;
kernRight = s;
layers = (
{
layerId = m01;
shapes = (
{
closed = 1;
nodes = (
(117,583,l),
(220,674,l),
(323,583,l),
(358,622,l),
(220,767,l),
(83,622,l)
);
},
{
closed = 1;
nodes = (
(325,-12,o),
(401,38,o),
(401,133,cs),
(401,229,o),
(336,260,o),
(245,296,cs),
(170,325,o),
(134,342,o),
(134,391,cs),
(134,439,o),
(178,460,o),
(234,460,cs),
(302,460,o),
(338,444,o),
(358,435,c),
(376,506,l),
(354,516,o),
(302,532,o),
(234,532,cs),
(119,532,o),
(49,474,o),
(49,386,cs),
(49,296,o),
(116,264,o),
(196,232,cs),
(284,197,o),
(315,181,o),
(315,131,cs),
(315,79,o),
(269,60,o),
(199,60,cs),
(124,60,o),
(77,83,o),
(59,90,c),
(40,17,l),
(58,9,o),
(108,-12,o),
(198,-12,cs)
);
}
);
width = 441;
}
);
note = scircumflex;
unicode = 349;
},
{
glyphname = Scedilla;
kernLeft = S;
kernRight = S;
layers = (
{
layerId = m01;
shapes = (
{
closed = 1;
nodes = (
(311,-195,o),
(338,-155,o),
(338,-115,cs),
(338,-77,o),
(316,-54,o),
(278,-37,c),
(280,-29,o),
(284,-21,o),
(289,-12,c),
(419,-1,o),
(495,63,o),
(495,177,cs),
(495,306,o),
(409,346,o),
(292,393,cs),
(206,427,o),
(142,451,o),
(142,528,cs),
(142,601,o),
(198,632,o),
(282,632,cs),
(346,632,o),
(402,615,o),
(440,590,c),
(469,662,l),
(432,685,o),
(362,708,o),
(282,708,cs),
(140,708,o),
(52,641,o),
(52,521,cs),
(52,411,o),
(128,367,o),
(237,324,cs),
(331,288,o),
(403,263,o),
(403,174,cs),
(403,97,o),
(349,61,o),
(246,61,cs),
(154,61,o),
(92,91,o),
(62,108,c),
(35,34,l),
(62,18,o),
(128,-12,o),
(230,-15,c),
(221,-32,o),
(212,-51,o),
(208,-65,c),
(249,-80,o),
(266,-90,o),
(265,-111,cs),
(265,-130,o),
(251,-139,o),
(226,-139,cs),
(199,-139,o),
(179,-135,o),
(166,-129,c),
(156,-183,l),
(171,-189,o),
(203,-195,o),
(230,-195,cs)
);
}
);
width = 532;
}
);
note = Scedilla;
unicode = 350;
},
{
glyphname = scedilla;
kernLeft = s;
kernRight = s;
layers = (
{
layerId = m01;
shapes = (
{
closed = 1;
nodes = (
(266,-195,o),
(293,-155,o),
(293,-115,cs),
(293,-77,o),
(271,-54,o),
(233,-37,c),
(236,-29,o),
(240,-19,o),
(245,-9,c),
(342,1,o),
(401,50,o),
(401,133,cs),
(401,229,o),
(336,260,o),
(245,296,cs),
(170,325,o),
(134,342,o),
(134,391,cs),
(134,439,o),
(178,460,o),
(234,460,cs),
(302,460,o),
(338,444,o),
(358,435,c),
(376,506,l),
(354,516,o),
(302,532,o),
(234,532,cs),
(119,532,o),
(49,474,o),
(49,386,cs),
(49,296,o),
(116,264,o),
(196,232,cs),
(284,197,o),
(315,181,o),
(315,131,cs),
(315,79,o),
(269,60,o),
(199,60,cs),
(124,60,o),
(77,83,o),
(59,90,c),
(40,17,l),
(56,9,o),
(102,-10,o),
(186,-12,c),
(177,-30,o),
(168,-50,o),
(163,-65,c),
(204,-80,o),
(221,-90,o),
(220,-111,cs),
(220,-130,o),
(206,-139,o),
(180,-139,cs),
(154,-139,o),
(134,-135,o),
(121,-129,c),
(110,-183,l),
(126,-189,o),
(158,-195,o),
(185,-195,cs)
);
}
);
width = 441;
}
);
note = scedilla;
unicode = 351;
},
{
glyphname = uni0162;
layers = (
{
layerId = m01;
shapes = (
{
closed = 1;
nodes = (
(327,-195,o),
(353,-155,o),
(353,-115,cs),
(353,-77,o),
(332,-54,o),
(293,-37,c),
(297,-27,o),
(304,-13,o),
(311,0,c),
(326,0,l),
(326,617,l),
(545,617,l),
(545,693,l),
(18,693,l),
(18,617,l),
(237,617,l),
(237,0,l),
(252,0,l),
(243,-19,o),
(230,-46,o),
(224,-65,c),
(264,-80,o),
(281,-90,o),
(281,-111,cs),
(281,-130,o),
(266,-139,o),
(241,-139,cs),
(215,-139,o),
(195,-135,o),
(181,-129,c),
(171,-183,l),
(187,-189,o),
(219,-195,o),
(246,-195,cs)
);
}
);
width = 563;
}
);
note = uni0162;
unicode = 354;
},
{
glyphname = uni0163;
layers = (
{
layerId = m01;
shapes = (
{
closed = 1;
nodes = (
(288,-195,o),
(317,-157,o),
(317,-115,cs),
(317,-78,o),
(296,-54,o),
(257,-37,c),
(260,-29,o),
(264,-20,o),
(269,-11,c),
(318,-9,o),
(363,8,o),
(384,20,c),
(367,88,l),
(346,77,o),
(313,63,o),
(264,63,cs),
(197,63,o),
(162,90,o),
(162,194,cs),
(162,448,l),
(362,448,l),
(362,519,l),
(162,519,l),
(162,681,l),
(78,666,l),
(78,198,ls),
(78,40,o),
(139,2,o),
(212,-8,c),
(207,-18,o),
(196,-37,o),
(188,-65,c),
(228,-80,o),
(245,-90,o),
(245,-111,cs),
(245,-130,o),
(230,-139,o),
(205,-139,cs),
(179,-139,o),
(159,-135,o),
(145,-129,c),
(135,-183,l),
(151,-190,o),
(183,-195,o),
(210,-195,cs)
);
}
);
width = 400;
}
);
note = uni0163;
unicode = 355;
},
{
glyphname = Tcaron;
kernLeft = T;
kernRight = T;
layers = (
{
layerId = m01;
shapes = (
{
closed = 1;
nodes = (
(279,744,l),
(417,889,l),
(382,928,l),
(279,836,l),
(176,928,l),
(142,889,l)
);
},
{
closed = 1;
nodes = (
(237,0,l),
(326,0,l),
(326,617,l),
(545,617,l),
(545,693,l),
(18,693,l),
(18,617,l),
(237,617,l)
);
}
);
width = 563;
}
);
note = Tcaron;
unicode = 356;
},
{
glyphname = tcaron;
kernLeft = t;
kernRight = t;
layers = (
{
layerId = m01;
shapes = (
{
closed = 1;
nodes = (
(229,583,l),
(284,583,l),
(311,776,l),
(229,776,l)
);
},
{
closed = 1;
nodes = (
(312,-11,o),
(361,7,o),
(384,20,c),
(367,88,l),
(346,78,o),
(313,63,o),
(264,63,cs),
(198,63,o),
(162,89,o),
(162,194,cs),
(162,448,l),
(362,448,l),
(362,519,l),
(162,519,l),
(162,681,l),
(78,666,l),
(78,198,ls),
(78,61,o),
(118,-11,o),
(255,-11,cs)
);
}
);
width = 400;
}
);
note = tcaron;
unicode = 357;
},
{
glyphname = Tbar;
kernLeft = T;
kernRight = T;
layers = (
{
layerId = m01;
shapes = (
{
closed = 1;
nodes = (
(237,0,l),
(326,0,l),
(326,315,l),
(454,315,l),
(454,382,l),
(326,382,l),
(326,617,l),
(545,617,l),
(545,693,l),
(18,693,l),
(18,617,l),
(237,617,l),
(237,382,l),
(110,382,l),
(110,315,l),
(237,315,l)
);
}
);
width = 563;
}
);
note = Tbar;
unicode = 358;
},
{
glyphname = tbar;
kernLeft = t;
kernRight = t;
layers = (
{
layerId = m01;
shapes = (
{
closed = 1;
nodes = (
(312,-11,o),
(361,7,o),
(384,20,c),
(367,88,l),
(346,78,o),
(313,63,o),
(264,63,cs),
(198,63,o),
(162,89,o),
(162,194,cs),
(162,241,l),
(359,241,l),
(359,303,l),
(162,303,l),
(162,448,l),
(362,448,l),
(362,519,l),
(162,519,l),
(162,681,l),
(78,666,l),
(78,198,ls),
(78,61,o),
(118,-11,o),
(255,-11,cs)
);
}
);
width = 400;
}
);
note = tbar;
unicode = 359;
},
{
glyphname = Utilde;
kernLeft = U;
kernRight = U;
layers = (
{
layerId = m01;
shapes = (
{
closed = 1;
nodes = (
(226,775,l),
(238,798,o),
(253,820,o),
(280,820,cs),
(323,820,o),
(354,782,o),
(408,782,cs),
(463,782,o),
(494,833,o),
(509,867,c),
(463,892,l),
(450,869,o),
(436,847,o),
(408,847,cs),
(366,847,o),
(334,885,o),
(281,885,cs),
(225,885,o),
(194,834,o),
(179,800,c)
);
},
{
closed = 1;
nodes = (
(530,-15,o),
(603,103,o),
(603,258,cs),
(603,693,l),
(515,693,l),
(515,268,ls),
(515,125,o),
(446,63,o),
(343,63,cs),
(240,63,o),
(171,125,o),
(171,268,cs),
(171,693,l),
(83,693,l),
(83,258,ls),
(83,104,o),
(155,-15,o),
(343,-15,cs)
);
}
);
width = 686;
}
);
note = Utilde;
unicode = 360;
},
{
glyphname = utilde;
kernLeft = u;
kernRight = u;
layers = (
{
layerId = m01;
shapes = (
{
closed = 1;
nodes = (
(166,617,l),
(178,640,o),
(193,662,o),
(220,662,cs),
(263,662,o),
(295,624,o),
(348,624,cs),
(403,624,o),
(434,675,o),
(449,709,c),
(403,734,l),
(390,711,o),
(376,689,o),
(348,689,cs),
(306,689,o),
(274,727,o),
(221,727,cs),
(166,727,o),
(134,676,o),
(120,642,c)
);
},
{
closed = 1;
nodes = (
(380,-10,o),
(450,6,o),
(491,18,c),
(491,519,l),
(407,519,l),
(407,76,l),
(393,72,o),
(349,64,o),
(297,64,cs),
(197,64,o),
(161,114,o),
(161,249,cs),
(161,519,l),
(77,519,l),
(77,228,ls),
(77,86,o),
(128,-10,o),
(287,-10,cs)
);
}
);
width = 574;
}
);
note = utilde;
unicode = 361;
},
{
glyphname = Umacron;
kernLeft = U;
kernRight = U;
layers = (
{
layerId = m01;
shapes = (
{
closed = 1;
nodes = (
(204,798,l),
(482,798,l),
(482,864,l),
(204,864,l)
);
},
{
closed = 1;
nodes = (
(530,-15,o),
(603,103,o),
(603,258,cs),
(603,693,l),
(515,693,l),
(515,268,ls),
(515,125,o),
(446,63,o),
(343,63,cs),
(240,63,o),
(171,125,o),
(171,268,cs),
(171,693,l),
(83,693,l),
(83,258,ls),
(83,104,o),
(155,-15,o),
(343,-15,cs)
);
}
);
width = 686;
}
);
note = Umacron;
unicode = 362;
},
{
glyphname = umacron;
kernLeft = u;
kernRight = u;
layers = (
{
layerId = m01;
shapes = (
{
closed = 1;
nodes = (
(145,643,l),
(423,643,l),
(423,709,l),
(145,709,l)
);
},
{
closed = 1;
nodes = (
(380,-10,o),
(450,6,o),
(491,18,c),
(491,519,l),
(407,519,l),
(407,76,l),
(393,72,o),
(349,64,o),
(297,64,cs),
(197,64,o),
(161,114,o),
(161,249,cs),
(161,519,l),
(77,519,l),
(77,228,ls),
(77,86,o),
(128,-10,o),
(287,-10,cs)
);
}
);
width = 574;
}
);
note = umacron;
unicode = 363;
},
{
glyphname = Ubreve;
kernLeft = U;
kernRight = U;
layers = (
{
layerId = m01;
shapes = (
{
closed = 1;
nodes = (
(414,765,o),
(477,810,o),
(474,905,c),
(418,905,l),
(416,878,o),
(405,830,o),
(343,830,cs),
(281,830,o),
(270,878,o),
(268,905,c),
(212,905,l),
(209,810,o),
(272,765,o),
(343,765,cs)
);
},
{
closed = 1;
nodes = (
(530,-15,o),
(603,103,o),
(603,258,cs),
(603,693,l),
(515,693,l),
(515,268,ls),
(515,125,o),
(446,63,o),
(343,63,cs),
(240,63,o),
(171,125,o),
(171,268,cs),
(171,693,l),
(83,693,l),
(83,258,ls),
(83,104,o),
(155,-15,o),
(343,-15,cs)
);
}
);
width = 686;
}
);
note = Ubreve;
unicode = 364;
},
{
glyphname = ubreve;
kernLeft = u;
kernRight = u;
layers = (
{
layerId = m01;
shapes = (
{
closed = 1;
nodes = (
(355,610,o),
(418,655,o),
(415,750,c),
(359,750,l),
(357,723,o),
(346,675,o),
(284,675,cs),
(222,675,o),
(211,723,o),
(209,750,c),
(153,750,l),
(151,655,o),
(213,610,o),
(284,610,cs)
);
},
{
closed = 1;
nodes = (
(380,-10,o),
(450,6,o),
(491,18,c),
(491,519,l),
(407,519,l),
(407,76,l),
(393,72,o),
(349,64,o),
(297,64,cs),
(197,64,o),
(161,114,o),
(161,249,cs),
(161,519,l),
(77,519,l),
(77,228,ls),
(77,86,o),
(128,-10,o),
(287,-10,cs)
);
}
);
width = 574;
}
);
note = ubreve;
unicode = 365;
},
{
glyphname = Uring;
kernLeft = U;
kernRight = U;
layers = (
{
layerId = m01;
shapes = (
{
closed = 1;
nodes = (
(398,732,o),
(444,771,o),
(444,832,cs),
(444,894,o),
(398,932,o),
(344,932,cs),
(289,932,o),
(243,894,o),
(243,832,cs),
(243,771,o),
(289,732,o),
(344,732,cs)
);
},
{
closed = 1;
nodes = (
(314,776,o),
(289,796,o),
(289,832,cs),
(289,868,o),
(314,889,o),
(344,889,cs),
(374,889,o),
(398,868,o),
(398,832,cs),
(398,796,o),
(374,776,o),
(344,776,cs)
);
},
{
closed = 1;
nodes = (
(530,-15,o),
(603,103,o),
(603,258,cs),
(603,693,l),
(515,693,l),
(515,268,ls),
(515,125,o),
(446,63,o),
(343,63,cs),
(240,63,o),
(171,125,o),
(171,268,cs),
(171,693,l),
(83,693,l),
(83,258,ls),
(83,104,o),
(155,-15,o),
(343,-15,cs)
);
}
);
width = 686;
}
);
note = Uring;
unicode = 366;
},
{
glyphname = uring;
kernLeft = u;
kernRight = u;
layers = (
{
layerId = m01;
shapes = (
{
closed = 1;
nodes = (
(339,581,o),
(385,619,o),
(385,681,cs),
(385,742,o),
(339,781,o),
(285,781,cs),
(231,781,o),
(184,742,o),
(184,681,cs),
(184,619,o),
(231,581,o),
(285,581,cs)
);
},
{
closed = 1;
nodes = (
(255,625,o),
(231,645,o),
(231,681,cs),
(231,717,o),
(255,738,o),
(285,738,cs),
(315,738,o),
(339,717,o),
(339,681,cs),
(339,645,o),
(315,625,o),
(285,625,cs)
);
},
{
closed = 1;
nodes = (
(380,-10,o),
(450,6,o),
(491,18,c),
(491,519,l),
(407,519,l),
(407,76,l),
(393,72,o),
(349,64,o),
(297,64,cs),
(197,64,o),
(161,114,o),
(161,249,cs),
(161,519,l),
(77,519,l),
(77,228,ls),
(77,86,o),
(128,-10,o),
(287,-10,cs)
);
}
);
width = 574;
}
);
note = uring;
unicode = 367;
},
{
glyphname = Uhungarumlaut;
kernLeft = U;
kernRight = U;
layers = (
{
layerId = m01;
shapes = (
{
closed = 1;
nodes = (
(432,738,l),
(561,888,l),
(506,936,l),
(387,772,l)
);
},
{
closed = 1;
nodes = (
(265,738,l),
(394,888,l),
(338,936,l),
(219,772,l)
);
},
{
closed = 1;
nodes = (
(530,-15,o),
(603,103,o),
(603,258,cs),
(603,693,l),
(515,693,l),
(515,268,ls),
(515,125,o),
(446,63,o),
(343,63,cs),
(240,63,o),
(171,125,o),
(171,268,cs),
(171,693,l),
(83,693,l),
(83,258,ls),
(83,104,o),
(155,-15,o),
(343,-15,cs)
);
}
);
width = 686;
}
);
note = Uhungarumlaut;
unicode = 368;
},
{
glyphname = uhungarumlaut;
kernLeft = u;
kernRight = u;
layers = (
{
layerId = m01;
shapes = (
{
closed = 1;
nodes = (
(371,581,l),
(500,731,l),
(445,779,l),
(326,615,l)
);
},
{
closed = 1;
nodes = (
(204,581,l),
(333,731,l),
(277,779,l),
(158,615,l)
);
},
{
closed = 1;
nodes = (
(380,-10,o),
(450,6,o),
(491,18,c),
(491,519,l),
(407,519,l),
(407,76,l),
(393,72,o),
(349,64,o),
(297,64,cs),
(197,64,o),
(161,114,o),
(161,249,cs),
(161,519,l),
(77,519,l),
(77,228,ls),
(77,86,o),
(128,-10,o),
(287,-10,cs)
);
}
);
width = 574;
}
);
note = uhungarumlaut;
unicode = 369;
},
{
glyphname = Uogonek;
kernLeft = U;
kernRight = U;
layers = (
{
layerId = m01;
shapes = (
{
closed = 1;
nodes = (
(423,-194,o),
(451,-189,o),
(465,-183,c),
(458,-123,l),
(445,-128,o),
(429,-130,o),
(417,-130,cs),
(394,-130,o),
(378,-120,o),
(378,-98,cs),
(378,-77,o),
(392,-60,o),
(412,-39,cs),
(437,-13,o),
(463,4,o),
(492,20,cs),
(571,67,o),
(603,155,o),
(603,258,cs),
(603,693,l),
(515,693,l),
(515,268,ls),
(515,125,o),
(446,63,o),
(343,63,cs),
(240,63,o),
(171,125,o),
(171,268,cs),
(171,693,l),
(83,693,l),
(83,258,ls),
(83,105,o),
(154,-14,o),
(340,-15,cs),
(346,-15,o),
(351,-15,o),
(357,-14,c),
(325,-42,o),
(296,-77,o),
(296,-119,cs),
(296,-163,o),
(326,-194,o),
(401,-194,cs)
);
}
);
width = 686;
}
);
note = Uogonek;
unicode = 370;
},
{
glyphname = uogonek;
kernLeft = u;
kernRight = u;
layers = (
{
layerId = m01;
shapes = (
{
closed = 1;
nodes = (
(450,-193,o),
(478,-188,o),
(492,-183,c),
(485,-123,l),
(471,-127,o),
(456,-129,o),
(444,-129,cs),
(420,-129,o),
(405,-119,o),
(405,-97,cs),
(405,-60,o),
(463,-11,o),
(491,14,c),
(491,519,l),
(407,519,l),
(407,76,l),
(393,72,o),
(349,64,o),
(297,64,cs),
(197,64,o),
(161,114,o),
(161,249,cs),
(161,519,l),
(77,519,l),
(77,228,ls),
(77,86,o),
(128,-10,o),
(287,-10,cs),
(331,-10,o),
(370,-6,o),
(401,-1,c),
(360,-32,o),
(323,-69,o),
(323,-119,cs),
(323,-163,o),
(352,-193,o),
(427,-193,cs)
);
}
);
width = 574;
}
);
note = uogonek;
unicode = 371;
},
{
glyphname = Wcircumflex;
kernLeft = W;
kernRight = W;
layers = (
{
layerId = m01;
shapes = (
{
closed = 1;
nodes = (
(360,739,l),
(463,830,l),
(567,739,l),
(601,778,l),
(463,923,l),
(326,778,l)
);
},
{
closed = 1;
nodes = (
(288,0,l),
(347,146,o),
(405,294,o),
(463,478,c),
(521,294,o),
(577,146,o),
(638,0,c),
(727,0,l),
(796,203,o),
(846,420,o),
(895,693,c),
(806,693,l),
(768,475,o),
(722,259,o),
(679,107,c),
(622,248,o),
(559,421,o),
(503,611,c),
(427,611,l),
(371,421,o),
(309,250,o),
(254,107,c),
(208,261,o),
(161,477,o),
(125,693,c),
(32,693,l),
(79,420,o),
(128,203,o),
(200,0,c)
);
}
);
width = 927;
}
);
note = Wcircumflex;
unicode = 372;
},
{
glyphname = wcircumflex;
kernLeft = w;
kernRight = w;
layers = (
{
layerId = m01;
shapes = (
{
closed = 1;
nodes = (
(287,583,l),
(390,674,l),
(493,583,l),
(527,622,l),
(390,767,l),
(252,622,l)
);
},
{
closed = 1;
nodes = (
(267,0,l),
(305,95,o),
(352,228,o),
(388,367,c),
(425,228,o),
(473,95,o),
(511,0,c),
(584,0,l),
(648,141,o),
(707,315,o),
(757,519,c),
(672,519,l),
(644,389,o),
(589,202,o),
(547,98,c),
(499,228,o),
(450,396,o),
(426,519,c),
(358,519,l),
(331,395,o),
(283,228,o),
(235,99,c),
(192,202,o),
(137,389,o),
(109,519,c),
(20,519,l),
(71,315,o),
(130,141,o),
(192,0,c)
);
}
);
width = 777;
}
);
note = wcircumflex;
unicode = 373;
},
{
glyphname = Ycircumflex;
kernLeft = Y;
kernRight = Y;
layers = (
{
layerId = m01;
shapes = (
{
closed = 1;
nodes = (
(193,741,l),
(296,833,l),
(399,741,l),
(433,780,l),
(296,925,l),
(158,780,l)
);
},
{
closed = 1;
nodes = (
(251,0,l),
(340,0,l),
(340,282,l),
(431,423,o),
(510,562,o),
(581,693,c),
(485,693,l),
(431,582,o),
(365,463,o),
(298,357,c),
(229,463,o),
(164,582,o),
(111,693,c),
(9,693,l),
(79,561,o),
(158,423,o),
(251,280,c)
);
}
);
width = 590;
}
);
note = Ycircumflex;
unicode = 374;
},
{
glyphname = ycircumflex;
kernLeft = y;
kernRight = y;
layers = (
{
layerId = m01;
shapes = (
{
closed = 1;
nodes = (
(151,583,l),
(254,674,l),
(357,583,l),
(391,622,l),
(254,767,l),
(116,622,l)
);
},
{
closed = 1;
nodes = (
(199,-187,o),
(248,-136,o),
(300,-16,cs),
(367,138,o),
(424,325,o),
(471,519,c),
(385,519,l),
(349,360,o),
(317,233,o),
(264,84,c),
(194,230,o),
(136,397,o),
(107,519,c),
(18,519,l),
(64,339,o),
(139,152,o),
(223,-3,c),
(190,-86,o),
(154,-116,o),
(83,-116,cs),
(57,-116,o),
(29,-108,o),
(18,-102,c),
(2,-171,l),
(12,-177,o),
(46,-187,o),
(83,-187,cs)
);
}
);
width = 491;
}
);
note = ycircumflex;
unicode = 375;
},
{
glyphname = Zacute;
kernLeft = Z;
kernRight = Z;
layers = (
{
layerId = m01;
shapes = (
{
closed = 1;
nodes = (
(259,738,l),
(429,877,l),
(372,936,l),
(218,782,l)
);
},
{
closed = 1;
nodes = (
(37,0,l),
(534,0,l),
(534,76,l),
(138,76,l),
(240,258,o),
(430,515,o),
(524,620,c),
(524,693,l),
(56,693,l),
(56,617,l),
(419,617,l),
(310,493,o),
(123,226,o),
(37,61,c)
);
}
);
width = 572;
}
);
note = Zacute;
unicode = 377;
},
{
glyphname = zacute;
kernLeft = z;
kernRight = z;
layers = (
{
layerId = m01;
shapes = (
{
closed = 1;
nodes = (
(199,581,l),
(369,720,l),
(312,779,l),
(158,625,l)
);
},
{
closed = 1;
nodes = (
(37,0,l),
(428,0,l),
(428,71,l),
(137,71,l),
(218,211,o),
(362,390,o),
(420,455,c),
(420,519,l),
(52,519,l),
(52,448,l),
(315,448,l),
(244,363,o),
(103,179,o),
(37,56,c)
);
}
);
width = 465;
}
);
note = zacute;
unicode = 378;
},
{
glyphname = Zdotaccent;
kernLeft = Z;
kernRight = Z;
layers = (
{
layerId = m01;
shapes = (
{
closed = 1;
nodes = (
(322,775,o),
(346,797,o),
(346,831,cs),
(346,865,o),
(322,888,o),
(291,888,cs),
(260,888,o),
(236,865,o),
(236,831,cs),
(236,797,o),
(260,775,o),
(291,775,cs)
);
},
{
closed = 1;
nodes = (
(37,0,l),
(534,0,l),
(534,76,l),
(138,76,l),
(240,258,o),
(430,515,o),
(524,620,c),
(524,693,l),
(56,693,l),
(56,617,l),
(419,617,l),
(310,493,o),
(123,226,o),
(37,61,c)
);
}
);
width = 572;
}
);
note = Zdotaccent;
unicode = 379;
},
{
glyphname = zdotaccent;
kernLeft = z;
kernRight = z;
layers = (
{
layerId = m01;
shapes = (
{
closed = 1;
nodes = (
(261,618,o),
(286,640,o),
(286,674,cs),
(286,708,o),
(261,731,o),
(231,731,cs),
(200,731,o),
(176,708,o),
(176,674,cs),
(176,640,o),
(200,618,o),
(231,618,cs)
);
},
{
closed = 1;
nodes = (
(37,0,l),
(428,0,l),
(428,71,l),
(137,71,l),
(218,211,o),
(362,390,o),
(420,455,c),
(420,519,l),
(52,519,l),
(52,448,l),
(315,448,l),
(244,363,o),
(103,179,o),
(37,56,c)
);
}
);
width = 465;
}
);
note = zdotaccent;
unicode = 380;
},
{
glyphname = Zcaron;
kernLeft = Z;
kernRight = Z;
layers = (
{
layerId = m01;
shapes = (
{
closed = 1;
nodes = (
(293,744,l),
(430,889,l),
(396,928,l),
(293,836,l),
(189,928,l),
(155,889,l)
);
},
{
closed = 1;
nodes = (
(37,0,l),
(534,0,l),
(534,76,l),
(138,76,l),
(240,258,o),
(430,515,o),
(524,620,c),
(524,693,l),
(56,693,l),
(56,617,l),
(419,617,l),
(310,493,o),
(123,226,o),
(37,61,c)
);
}
);
width = 572;
}
);
note = Zcaron;
unicode = 381;
},
{
glyphname = zcaron;
kernLeft = z;
kernRight = z;
layers = (
{
layerId = m01;
shapes = (
{
closed = 1;
nodes = (
(232,587,l),
(370,731,l),
(335,771,l),
(232,679,l),
(129,771,l),
(95,731,l)
);
},
{
closed = 1;
nodes = (
(37,0,l),
(428,0,l),
(428,71,l),
(137,71,l),
(218,211,o),
(362,390,o),
(420,455,c),
(420,519,l),
(52,519,l),
(52,448,l),
(315,448,l),
(244,363,o),
(103,179,o),
(37,56,c)
);
}
);
width = 465;
}
);
note = zcaron;
unicode = 382;
},
{
glyphname = longs;
layers = (
{
layerId = m01;
shapes = (
{
closed = 1;
nodes = (
(82,0,l),
(167,0,l),
(167,567,ls),
(167,658,o),
(199,702,o),
(287,702,cs),
(327,702,o),
(357,694,o),
(374,686,c),
(391,756,l),
(376,764,o),
(336,776,o),
(281,776,cs),
(147,776,o),
(82,703,o),
(82,569,cs)
);
}
);
width = 266;
}
);
note = longs;
unicode = 383;
},
{
glyphname = uni0218;
kernLeft = S;
kernRight = S;
layers = (
{
layerId = m01;
shapes = (
{
closed = 1;
nodes = (
(402,-15,o),
(495,51,o),
(495,177,cs),
(495,306,o),
(409,346,o),
(292,393,cs),
(206,427,o),
(142,451,o),
(142,528,cs),
(142,601,o),
(198,632,o),
(282,632,cs),
(346,632,o),
(402,615,o),
(440,590,c),
(469,662,l),
(432,685,o),
(362,708,o),
(282,708,cs),
(140,708,o),
(52,641,o),
(52,521,cs),
(52,411,o),
(128,367,o),
(237,324,cs),
(331,288,o),
(403,263,o),
(403,174,cs),
(403,97,o),
(349,61,o),
(246,61,cs),
(154,61,o),
(92,91,o),
(62,108,c),
(35,34,l),
(63,17,o),
(135,-15,o),
(245,-15,cs)
);
},
{
closed = 1;
nodes = (
(259,-194,o),
(309,-154,o),
(309,-76,cs),
(309,-72,o),
(309,-62,o),
(307,-54,c),
(231,-54,l),
(231,-68,ls),
(231,-119,o),
(211,-137,o),
(157,-137,c),
(157,-189,l),
(164,-192,o),
(181,-194,o),
(193,-194,cs)
);
}
);
width = 532;
}
);
note = uni0218;
unicode = 536;
},
{
glyphname = uni0219;
kernLeft = s;
kernRight = s;
layers = (
{
layerId = m01;
shapes = (
{
closed = 1;
nodes = (
(325,-12,o),
(401,38,o),
(401,133,cs),
(401,229,o),
(336,260,o),
(245,296,cs),
(170,325,o),
(134,342,o),
(134,391,cs),
(134,439,o),
(178,460,o),
(234,460,cs),
(302,460,o),
(338,444,o),
(358,435,c),
(376,506,l),
(354,516,o),
(302,532,o),
(234,532,cs),
(119,532,o),
(49,474,o),
(49,386,cs),
(49,296,o),
(116,264,o),
(196,232,cs),
(284,197,o),
(315,181,o),
(315,131,cs),
(315,79,o),
(269,60,o),
(199,60,cs),
(124,60,o),
(77,83,o),
(59,90,c),
(40,17,l),
(58,9,o),
(108,-12,o),
(198,-12,cs)
);
},
{
closed = 1;
nodes = (
(212,-194,o),
(262,-154,o),
(262,-76,cs),
(262,-72,o),
(262,-62,o),
(260,-54,c),
(184,-54,l),
(184,-68,ls),
(184,-119,o),
(164,-137,o),
(110,-137,c),
(110,-189,l),
(117,-192,o),
(134,-194,o),
(146,-194,cs)
);
}
);
width = 441;
}
);
note = uni0219;
unicode = 537;
},
{
glyphname = uni021A;
kernLeft = T;
kernRight = T;
layers = (
{
layerId = m01;
shapes = (
{
closed = 1;
nodes = (
(237,0,l),
(326,0,l),
(326,617,l),
(545,617,l),
(545,693,l),
(18,693,l),
(18,617,l),
(237,617,l)
);
},
{
closed = 1;
nodes = (
(269,-194,o),
(318,-154,o),
(318,-76,cs),
(318,-72,o),
(318,-62,o),
(317,-54,c),
(241,-54,l),
(241,-68,ls),
(241,-119,o),
(220,-137,o),
(167,-137,c),
(167,-189,l),
(174,-192,o),
(190,-194,o),
(203,-194,cs)
);
}
);
width = 563;
}
);
note = uni021A;
unicode = 538;
},
{
glyphname = uni021B;
kernLeft = t;
kernRight = t;
layers = (
{
layerId = m01;
shapes = (
{
closed = 1;
nodes = (
(312,-11,o),
(361,7,o),
(384,20,c),
(367,88,l),
(346,78,o),
(313,63,o),
(264,63,cs),
(198,63,o),
(162,89,o),
(162,194,cs),
(162,448,l),
(362,448,l),
(362,519,l),
(162,519,l),
(162,681,l),
(78,666,l),
(78,198,ls),
(78,61,o),
(118,-11,o),
(255,-11,cs)
);
},
{
closed = 1;
nodes = (
(227,-194,o),
(277,-154,o),
(277,-76,cs),
(277,-72,o),
(277,-62,o),
(276,-54,c),
(199,-54,l),
(199,-68,ls),
(199,-119,o),
(179,-137,o),
(126,-137,c),
(126,-189,l),
(132,-192,o),
(149,-194,o),
(161,-194,cs)
);
}
);
width = 400;
}
);
note = uni021B;
unicode = 539;
},
{
glyphname = uni0237;
kernLeft = j;
kernRight = j;
layers = (
{
layerId = m01;
shapes = (
{
closed = 1;
nodes = (
(116,-187,o),
(167,-124,o),
(167,8,cs),
(167,519,l),
(82,519,l),
(82,7,ls),
(82,-73,o),
(64,-114,o),
(-8,-114,cs),
(-25,-114,o),
(-42,-111,o),
(-54,-107,c),
(-65,-176,l),
(-49,-182,o),
(-19,-187,o),
(-4,-187,cs)
);
}
);
width = 249;
}
);
note = uni0237;
unicode = 567;
},
{
glyphname = apostrophe;
kernLeft = quoteright;
kernRight = quoteright;
layers = (
{
layerId = m01;
shapes = (
{
closed = 1;
nodes = (
(167,562,l),
(204,623,o),
(228,674,o),
(233,748,cs),
(234,757,o),
(234,766,o),
(234,776,c),
(148,776,l),
(149,768,o),
(150,752,o),
(150,739,cs),
(150,686,o),
(134,635,o),
(110,585,c)
);
}
);
width = 352;
}
);
note = apostrophe;
unicode = 700;
},
{
glyphname = caron;
layers = (
{
layerId = m01;
shapes = (
{
closed = 1;
nodes = (
(191,587,l),
(329,731,l),
(294,771,l),
(191,679,l),
(88,771,l),
(53,731,l)
);
}
);
width = 379;
}
);
note = caron;
unicode = 711;
},
{
glyphname = uni02C9;
layers = (
{
layerId = m01;
shapes = (
{
closed = 1;
nodes = (
(49,643,l),
(327,643,l),
(327,709,l),
(49,709,l)
);
}
);
width = 376;
}
);
note = uni02C9;
unicode = 713;
},
{
glyphname = breve;
layers = (
{
layerId = m01;
shapes = (
{
closed = 1;
nodes = (
(263,610,o),
(325,655,o),
(323,750,c),
(267,750,l),
(265,723,o),
(254,675,o),
(192,675,cs),
(130,675,o),
(119,723,o),
(117,750,c),
(61,750,l),
(58,655,o),
(121,610,o),
(192,610,cs)
);
}
);
width = 384;
}
);
note = breve;
unicode = 728;
},
{
glyphname = dotaccent;
layers = (
{
layerId = m01;
shapes = (
{
closed = 1;
nodes = (
(204,618,o),
(228,640,o),
(228,674,cs),
(228,708,o),
(204,731,o),
(173,731,cs),
(142,731,o),
(118,708,o),
(118,674,cs),
(118,640,o),
(142,618,o),
(173,618,cs)
);
}
);
width = 346;
}
);
note = dotaccent;
unicode = 729;
},
{
glyphname = ring;
layers = (
{
layerId = m01;
shapes = (
{
closed = 1;
nodes = (
(236,581,o),
(282,619,o),
(282,681,cs),
(282,742,o),
(236,781,o),
(182,781,cs),
(128,781,o),
(81,742,o),
(81,681,cs),
(81,619,o),
(128,581,o),
(182,581,cs)
);
},
{
closed = 1;
nodes = (
(152,625,o),
(128,645,o),
(128,681,cs),
(128,717,o),
(152,738,o),
(182,738,cs),
(212,738,o),
(236,717,o),
(236,681,cs),
(236,645,o),
(212,625,o),
(182,625,cs)
);
}
);
width = 364;
}
);
note = ring;
unicode = 730;
},
{
glyphname = ogonek;
layers = (
{
layerId = m01;
shapes = (
{
closed = 1;
nodes = (
(199,-194,o),
(227,-189,o),
(241,-183,c),
(235,-123,l),
(221,-128,o),
(206,-130,o),
(194,-130,cs),
(170,-130,o),
(154,-120,o),
(154,-98,cs),
(154,-61,o),
(208,-18,o),
(243,10,c),
(163,10,l),
(126,-15,o),
(73,-66,o),
(73,-119,cs),
(73,-163,o),
(102,-194,o),
(177,-194,cs)
);
}
);
width = 361;
}
);
note = ogonek;
unicode = 731;
},
{
glyphname = hungarumlaut;
layers = (
{
layerId = m01;
shapes = (
{
closed = 1;
nodes = (
(241,581,l),
(370,731,l),
(315,779,l),
(196,615,l)
);
},
{
closed = 1;
nodes = (
(74,581,l),
(203,731,l),
(147,779,l),
(28,615,l)
);
}
);
width = 389;
}
);
note = hungarumlaut;
unicode = 733;
},
{
glyphname = uni20B9;
layers = (
{
layerId = m01;
shapes = (
{
closed = 1;
nodes = (
(436,0,l),
(374,97,o),
(260,226,o),
(193,289,c),
(197,289,ls),
(347,293,o),
(450,341,o),
(465,459,c),
(526,459,l),
(539,523,l),
(466,523,l),
(459,567,o),
(439,606,o),
(401,629,c),
(560,629,l),
(572,693,l),
(81,693,l),
(81,629,l),
(247,629,ls),
(315,629,o),
(367,603,o),
(379,523,c),
(81,523,l),
(81,459,l),
(377,459,l),
(362,381,o),
(284,356,o),
(171,356,cs),
(81,356,l),
(81,292,l),
(148,230,o),
(261,101,o),
(333,0,c)
);
}
);
width = 565;
}
);
note = uni20B9;
unicode = 8377;
},
